<mxfile host="app.diagrams.net" agent="Mozilla/5.0 (Windows NT 10.0; Win64; x64) AppleWebKit/537.36 (KHTML, like Gecko) Chrome/128.0.0.0 Safari/537.36" version="24.7.10">
  <diagram name="Page-1" id="plZfm_86Kl9MTUtSTH7-">
    <mxGraphModel dx="4550" dy="2295" grid="1" gridSize="10" guides="1" tooltips="1" connect="1" arrows="1" fold="1" page="1" pageScale="1" pageWidth="850" pageHeight="1100" math="0" shadow="0">
      <root>
        <mxCell id="0" />
        <mxCell id="1" parent="0" />
        <mxCell id="NJSE71hC_PdKQ5q1DnFO-1" value="Advisory Algorithms" style="whiteSpace=wrap;strokeWidth=2;verticalAlign=top;sketch=1;hachureGap=4;jiggle=2;curveFitting=1;fontFamily=Architects Daughter;fontSource=https%3A%2F%2Ffonts.googleapis.com%2Fcss%3Ffamily%3DArchitects%2BDaughter;" vertex="1" parent="1">
          <mxGeometry x="20" y="322" width="568" height="84" as="geometry" />
        </mxCell>
        <mxCell id="NJSE71hC_PdKQ5q1DnFO-2" value="investment advice" style="whiteSpace=wrap;strokeWidth=2;sketch=1;hachureGap=4;jiggle=2;curveFitting=1;fontFamily=Architects Daughter;fontSource=https%3A%2F%2Ffonts.googleapis.com%2Fcss%3Ffamily%3DArchitects%2BDaughter;" vertex="1" parent="1">
          <mxGeometry x="55" y="347" width="146" height="34" as="geometry" />
        </mxCell>
        <mxCell id="NJSE71hC_PdKQ5q1DnFO-3" value="credit advice" style="whiteSpace=wrap;strokeWidth=2;sketch=1;hachureGap=4;jiggle=2;curveFitting=1;fontFamily=Architects Daughter;fontSource=https%3A%2F%2Ffonts.googleapis.com%2Fcss%3Ffamily%3DArchitects%2BDaughter;" vertex="1" parent="1">
          <mxGeometry x="251" y="347" width="109" height="34" as="geometry" />
        </mxCell>
        <mxCell id="NJSE71hC_PdKQ5q1DnFO-4" value="financial planning" style="whiteSpace=wrap;strokeWidth=2;sketch=1;hachureGap=4;jiggle=2;curveFitting=1;fontFamily=Architects Daughter;fontSource=https%3A%2F%2Ffonts.googleapis.com%2Fcss%3Ffamily%3DArchitects%2BDaughter;" vertex="1" parent="1">
          <mxGeometry x="410" y="347" width="143" height="34" as="geometry" />
        </mxCell>
        <mxCell id="NJSE71hC_PdKQ5q1DnFO-5" value="Analytics Tools" style="whiteSpace=wrap;strokeWidth=2;verticalAlign=top;sketch=1;hachureGap=4;jiggle=2;curveFitting=1;fontFamily=Architects Daughter;fontSource=https%3A%2F%2Ffonts.googleapis.com%2Fcss%3Ffamily%3DArchitects%2BDaughter;" vertex="1" parent="1">
          <mxGeometry x="608" y="322" width="519" height="84" as="geometry" />
        </mxCell>
        <mxCell id="NJSE71hC_PdKQ5q1DnFO-6" value="data analysis" style="whiteSpace=wrap;strokeWidth=2;sketch=1;hachureGap=4;jiggle=2;curveFitting=1;fontFamily=Architects Daughter;fontSource=https%3A%2F%2Ffonts.googleapis.com%2Fcss%3Ffamily%3DArchitects%2BDaughter;" vertex="1" parent="1">
          <mxGeometry x="643" y="347" width="108" height="34" as="geometry" />
        </mxCell>
        <mxCell id="NJSE71hC_PdKQ5q1DnFO-7" value="data visualization" style="whiteSpace=wrap;strokeWidth=2;sketch=1;hachureGap=4;jiggle=2;curveFitting=1;fontFamily=Architects Daughter;fontSource=https%3A%2F%2Ffonts.googleapis.com%2Fcss%3Ffamily%3DArchitects%2BDaughter;" vertex="1" parent="1">
          <mxGeometry x="800" y="347" width="141" height="34" as="geometry" />
        </mxCell>
        <mxCell id="NJSE71hC_PdKQ5q1DnFO-8" value="data mining" style="whiteSpace=wrap;strokeWidth=2;sketch=1;hachureGap=4;jiggle=2;curveFitting=1;fontFamily=Architects Daughter;fontSource=https%3A%2F%2Ffonts.googleapis.com%2Fcss%3Ffamily%3DArchitects%2BDaughter;" vertex="1" parent="1">
          <mxGeometry x="992" y="347" width="100" height="34" as="geometry" />
        </mxCell>
        <mxCell id="NJSE71hC_PdKQ5q1DnFO-9" value="Error Handling" style="whiteSpace=wrap;strokeWidth=2;verticalAlign=top;sketch=1;hachureGap=4;jiggle=2;curveFitting=1;fontFamily=Architects Daughter;fontSource=https%3A%2F%2Ffonts.googleapis.com%2Fcss%3Ffamily%3DArchitects%2BDaughter;" vertex="1" parent="1">
          <mxGeometry x="1146" y="322" width="544" height="84" as="geometry" />
        </mxCell>
        <mxCell id="NJSE71hC_PdKQ5q1DnFO-10" value="error detection" style="whiteSpace=wrap;strokeWidth=2;sketch=1;hachureGap=4;jiggle=2;curveFitting=1;fontFamily=Architects Daughter;fontSource=https%3A%2F%2Ffonts.googleapis.com%2Fcss%3Ffamily%3DArchitects%2BDaughter;" vertex="1" parent="1">
          <mxGeometry x="1181" y="347" width="125" height="34" as="geometry" />
        </mxCell>
        <mxCell id="NJSE71hC_PdKQ5q1DnFO-11" value="error reporting" style="whiteSpace=wrap;strokeWidth=2;sketch=1;hachureGap=4;jiggle=2;curveFitting=1;fontFamily=Architects Daughter;fontSource=https%3A%2F%2Ffonts.googleapis.com%2Fcss%3Ffamily%3DArchitects%2BDaughter;" vertex="1" parent="1">
          <mxGeometry x="1356" y="347" width="122" height="34" as="geometry" />
        </mxCell>
        <mxCell id="NJSE71hC_PdKQ5q1DnFO-12" value="error resolution" style="whiteSpace=wrap;strokeWidth=2;sketch=1;hachureGap=4;jiggle=2;curveFitting=1;fontFamily=Architects Daughter;fontSource=https%3A%2F%2Ffonts.googleapis.com%2Fcss%3Ffamily%3DArchitects%2BDaughter;" vertex="1" parent="1">
          <mxGeometry x="1528" y="347" width="128" height="34" as="geometry" />
        </mxCell>
        <mxCell id="NJSE71hC_PdKQ5q1DnFO-13" value="Utility Functions" style="whiteSpace=wrap;strokeWidth=2;verticalAlign=top;sketch=1;hachureGap=4;jiggle=2;curveFitting=1;fontFamily=Architects Daughter;fontSource=https%3A%2F%2Ffonts.googleapis.com%2Fcss%3Ffamily%3DArchitects%2BDaughter;" vertex="1" parent="1">
          <mxGeometry x="1711" y="322" width="550" height="84" as="geometry" />
        </mxCell>
        <mxCell id="NJSE71hC_PdKQ5q1DnFO-14" value="data validation" style="whiteSpace=wrap;strokeWidth=2;sketch=1;hachureGap=4;jiggle=2;curveFitting=1;fontFamily=Architects Daughter;fontSource=https%3A%2F%2Ffonts.googleapis.com%2Fcss%3Ffamily%3DArchitects%2BDaughter;" vertex="1" parent="1">
          <mxGeometry x="1746" y="347" width="123" height="34" as="geometry" />
        </mxCell>
        <mxCell id="NJSE71hC_PdKQ5q1DnFO-15" value="data formatting" style="whiteSpace=wrap;strokeWidth=2;sketch=1;hachureGap=4;jiggle=2;curveFitting=1;fontFamily=Architects Daughter;fontSource=https%3A%2F%2Ffonts.googleapis.com%2Fcss%3Ffamily%3DArchitects%2BDaughter;" vertex="1" parent="1">
          <mxGeometry x="1919" y="347" width="128" height="34" as="geometry" />
        </mxCell>
        <mxCell id="NJSE71hC_PdKQ5q1DnFO-16" value="data conversion" style="whiteSpace=wrap;strokeWidth=2;sketch=1;hachureGap=4;jiggle=2;curveFitting=1;fontFamily=Architects Daughter;fontSource=https%3A%2F%2Ffonts.googleapis.com%2Fcss%3Ffamily%3DArchitects%2BDaughter;" vertex="1" parent="1">
          <mxGeometry x="2097" y="347" width="128" height="34" as="geometry" />
        </mxCell>
        <mxCell id="NJSE71hC_PdKQ5q1DnFO-17" value="Security Tools" style="whiteSpace=wrap;strokeWidth=2;verticalAlign=top;sketch=1;hachureGap=4;jiggle=2;curveFitting=1;fontFamily=Architects Daughter;fontSource=https%3A%2F%2Ffonts.googleapis.com%2Fcss%3Ffamily%3DArchitects%2BDaughter;" vertex="1" parent="1">
          <mxGeometry x="2280" y="322" width="557" height="84" as="geometry" />
        </mxCell>
        <mxCell id="NJSE71hC_PdKQ5q1DnFO-18" value="encryption" style="whiteSpace=wrap;strokeWidth=2;sketch=1;hachureGap=4;jiggle=2;curveFitting=1;fontFamily=Architects Daughter;fontSource=https%3A%2F%2Ffonts.googleapis.com%2Fcss%3Ffamily%3DArchitects%2BDaughter;" vertex="1" parent="1">
          <mxGeometry x="2315" y="347" width="92" height="34" as="geometry" />
        </mxCell>
        <mxCell id="NJSE71hC_PdKQ5q1DnFO-19" value="access control" style="whiteSpace=wrap;strokeWidth=2;sketch=1;hachureGap=4;jiggle=2;curveFitting=1;fontFamily=Architects Daughter;fontSource=https%3A%2F%2Ffonts.googleapis.com%2Fcss%3Ffamily%3DArchitects%2BDaughter;" vertex="1" parent="1">
          <mxGeometry x="2457" y="347" width="117" height="34" as="geometry" />
        </mxCell>
        <mxCell id="NJSE71hC_PdKQ5q1DnFO-20" value="password management" style="whiteSpace=wrap;strokeWidth=2;sketch=1;hachureGap=4;jiggle=2;curveFitting=1;fontFamily=Architects Daughter;fontSource=https%3A%2F%2Ffonts.googleapis.com%2Fcss%3Ffamily%3DArchitects%2BDaughter;" vertex="1" parent="1">
          <mxGeometry x="2624" y="347" width="179" height="34" as="geometry" />
        </mxCell>
        <mxCell id="NJSE71hC_PdKQ5q1DnFO-21" value="Credit Scoring" style="whiteSpace=wrap;strokeWidth=2;verticalAlign=top;sketch=1;hachureGap=4;jiggle=2;curveFitting=1;fontFamily=Architects Daughter;fontSource=https%3A%2F%2Ffonts.googleapis.com%2Fcss%3Ffamily%3DArchitects%2BDaughter;" vertex="1" parent="1">
          <mxGeometry x="2857" y="322" width="616" height="84" as="geometry" />
        </mxCell>
        <mxCell id="NJSE71hC_PdKQ5q1DnFO-22" value="credit report" style="whiteSpace=wrap;strokeWidth=2;sketch=1;hachureGap=4;jiggle=2;curveFitting=1;fontFamily=Architects Daughter;fontSource=https%3A%2F%2Ffonts.googleapis.com%2Fcss%3Ffamily%3DArchitects%2BDaughter;" vertex="1" parent="1">
          <mxGeometry x="2892" y="347" width="108" height="34" as="geometry" />
        </mxCell>
        <mxCell id="NJSE71hC_PdKQ5q1DnFO-23" value="credit score calculation" style="whiteSpace=wrap;strokeWidth=2;sketch=1;hachureGap=4;jiggle=2;curveFitting=1;fontFamily=Architects Daughter;fontSource=https%3A%2F%2Ffonts.googleapis.com%2Fcss%3Ffamily%3DArchitects%2BDaughter;" vertex="1" parent="1">
          <mxGeometry x="3050" y="347" width="184" height="34" as="geometry" />
        </mxCell>
        <mxCell id="NJSE71hC_PdKQ5q1DnFO-24" value="credit score history" style="whiteSpace=wrap;strokeWidth=2;sketch=1;hachureGap=4;jiggle=2;curveFitting=1;fontFamily=Architects Daughter;fontSource=https%3A%2F%2Ffonts.googleapis.com%2Fcss%3Ffamily%3DArchitects%2BDaughter;" vertex="1" parent="1">
          <mxGeometry x="3284" y="347" width="154" height="34" as="geometry" />
        </mxCell>
        <mxCell id="NJSE71hC_PdKQ5q1DnFO-25" value="Transaction Handling" style="whiteSpace=wrap;strokeWidth=2;verticalAlign=top;sketch=1;hachureGap=4;jiggle=2;curveFitting=1;fontFamily=Architects Daughter;fontSource=https%3A%2F%2Ffonts.googleapis.com%2Fcss%3Ffamily%3DArchitects%2BDaughter;" vertex="1" parent="1">
          <mxGeometry x="3494" y="322" width="655" height="84" as="geometry" />
        </mxCell>
        <mxCell id="NJSE71hC_PdKQ5q1DnFO-26" value="transaction creation" style="whiteSpace=wrap;strokeWidth=2;sketch=1;hachureGap=4;jiggle=2;curveFitting=1;fontFamily=Architects Daughter;fontSource=https%3A%2F%2Ffonts.googleapis.com%2Fcss%3Ffamily%3DArchitects%2BDaughter;" vertex="1" parent="1">
          <mxGeometry x="3529" y="347" width="160" height="34" as="geometry" />
        </mxCell>
        <mxCell id="NJSE71hC_PdKQ5q1DnFO-27" value="transaction processing" style="whiteSpace=wrap;strokeWidth=2;sketch=1;hachureGap=4;jiggle=2;curveFitting=1;fontFamily=Architects Daughter;fontSource=https%3A%2F%2Ffonts.googleapis.com%2Fcss%3Ffamily%3DArchitects%2BDaughter;" vertex="1" parent="1">
          <mxGeometry x="3739" y="347" width="175" height="34" as="geometry" />
        </mxCell>
        <mxCell id="NJSE71hC_PdKQ5q1DnFO-28" value="transaction history" style="whiteSpace=wrap;strokeWidth=2;sketch=1;hachureGap=4;jiggle=2;curveFitting=1;fontFamily=Architects Daughter;fontSource=https%3A%2F%2Ffonts.googleapis.com%2Fcss%3Ffamily%3DArchitects%2BDaughter;" vertex="1" parent="1">
          <mxGeometry x="3964" y="347" width="150" height="34" as="geometry" />
        </mxCell>
        <mxCell id="NJSE71hC_PdKQ5q1DnFO-29" value="Investment Management" style="whiteSpace=wrap;strokeWidth=2;verticalAlign=top;sketch=1;hachureGap=4;jiggle=2;curveFitting=1;fontFamily=Architects Daughter;fontSource=https%3A%2F%2Ffonts.googleapis.com%2Fcss%3Ffamily%3DArchitects%2BDaughter;" vertex="1" parent="1">
          <mxGeometry x="4168" y="322" width="636" height="84" as="geometry" />
        </mxCell>
        <mxCell id="NJSE71hC_PdKQ5q1DnFO-30" value="investment portfolio" style="whiteSpace=wrap;strokeWidth=2;sketch=1;hachureGap=4;jiggle=2;curveFitting=1;fontFamily=Architects Daughter;fontSource=https%3A%2F%2Ffonts.googleapis.com%2Fcss%3Ffamily%3DArchitects%2BDaughter;" vertex="1" parent="1">
          <mxGeometry x="4203" y="347" width="162" height="34" as="geometry" />
        </mxCell>
        <mxCell id="NJSE71hC_PdKQ5q1DnFO-31" value="investment tracking" style="whiteSpace=wrap;strokeWidth=2;sketch=1;hachureGap=4;jiggle=2;curveFitting=1;fontFamily=Architects Daughter;fontSource=https%3A%2F%2Ffonts.googleapis.com%2Fcss%3Ffamily%3DArchitects%2BDaughter;" vertex="1" parent="1">
          <mxGeometry x="4416" y="347" width="158" height="34" as="geometry" />
        </mxCell>
        <mxCell id="NJSE71hC_PdKQ5q1DnFO-32" value="investment advice" style="whiteSpace=wrap;strokeWidth=2;sketch=1;hachureGap=4;jiggle=2;curveFitting=1;fontFamily=Architects Daughter;fontSource=https%3A%2F%2Ffonts.googleapis.com%2Fcss%3Ffamily%3DArchitects%2BDaughter;" vertex="1" parent="1">
          <mxGeometry x="4624" y="347" width="146" height="34" as="geometry" />
        </mxCell>
        <mxCell id="NJSE71hC_PdKQ5q1DnFO-33" value="Personal Finance Management" style="whiteSpace=wrap;strokeWidth=2;verticalAlign=top;sketch=1;hachureGap=4;jiggle=2;curveFitting=1;fontFamily=Architects Daughter;fontSource=https%3A%2F%2Ffonts.googleapis.com%2Fcss%3Ffamily%3DArchitects%2BDaughter;" vertex="1" parent="1">
          <mxGeometry x="4825" y="322" width="550" height="84" as="geometry" />
        </mxCell>
        <mxCell id="NJSE71hC_PdKQ5q1DnFO-34" value="budgeting" style="whiteSpace=wrap;strokeWidth=2;sketch=1;hachureGap=4;jiggle=2;curveFitting=1;fontFamily=Architects Daughter;fontSource=https%3A%2F%2Ffonts.googleapis.com%2Fcss%3Ffamily%3DArchitects%2BDaughter;" vertex="1" parent="1">
          <mxGeometry x="4860" y="347" width="86" height="34" as="geometry" />
        </mxCell>
        <mxCell id="NJSE71hC_PdKQ5q1DnFO-35" value="expense tracking" style="whiteSpace=wrap;strokeWidth=2;sketch=1;hachureGap=4;jiggle=2;curveFitting=1;fontFamily=Architects Daughter;fontSource=https%3A%2F%2Ffonts.googleapis.com%2Fcss%3Ffamily%3DArchitects%2BDaughter;" vertex="1" parent="1">
          <mxGeometry x="4996" y="347" width="136" height="34" as="geometry" />
        </mxCell>
        <mxCell id="NJSE71hC_PdKQ5q1DnFO-36" value="investment tracking" style="whiteSpace=wrap;strokeWidth=2;sketch=1;hachureGap=4;jiggle=2;curveFitting=1;fontFamily=Architects Daughter;fontSource=https%3A%2F%2Ffonts.googleapis.com%2Fcss%3Ffamily%3DArchitects%2BDaughter;" vertex="1" parent="1">
          <mxGeometry x="5182" y="347" width="158" height="34" as="geometry" />
        </mxCell>
        <mxCell id="NJSE71hC_PdKQ5q1DnFO-37" value="User Dashboard" style="whiteSpace=wrap;strokeWidth=2;verticalAlign=top;sketch=1;hachureGap=4;jiggle=2;curveFitting=1;fontFamily=Architects Daughter;fontSource=https%3A%2F%2Ffonts.googleapis.com%2Fcss%3Ffamily%3DArchitects%2BDaughter;" vertex="1" parent="1">
          <mxGeometry x="5395" y="322" width="593" height="84" as="geometry" />
        </mxCell>
        <mxCell id="NJSE71hC_PdKQ5q1DnFO-38" value="account overview" style="whiteSpace=wrap;strokeWidth=2;sketch=1;hachureGap=4;jiggle=2;curveFitting=1;fontFamily=Architects Daughter;fontSource=https%3A%2F%2Ffonts.googleapis.com%2Fcss%3Ffamily%3DArchitects%2BDaughter;" vertex="1" parent="1">
          <mxGeometry x="5430" y="347" width="141" height="34" as="geometry" />
        </mxCell>
        <mxCell id="NJSE71hC_PdKQ5q1DnFO-39" value="transaction history" style="whiteSpace=wrap;strokeWidth=2;sketch=1;hachureGap=4;jiggle=2;curveFitting=1;fontFamily=Architects Daughter;fontSource=https%3A%2F%2Ffonts.googleapis.com%2Fcss%3Ffamily%3DArchitects%2BDaughter;" vertex="1" parent="1">
          <mxGeometry x="5621" y="347" width="150" height="34" as="geometry" />
        </mxCell>
        <mxCell id="NJSE71hC_PdKQ5q1DnFO-40" value="account settings" style="whiteSpace=wrap;strokeWidth=2;sketch=1;hachureGap=4;jiggle=2;curveFitting=1;fontFamily=Architects Daughter;fontSource=https%3A%2F%2Ffonts.googleapis.com%2Fcss%3Ffamily%3DArchitects%2BDaughter;" vertex="1" parent="1">
          <mxGeometry x="5821" y="347" width="132" height="34" as="geometry" />
        </mxCell>
        <mxCell id="NJSE71hC_PdKQ5q1DnFO-41" value="Support Helpdesk" style="whiteSpace=wrap;strokeWidth=2;verticalAlign=top;sketch=1;hachureGap=4;jiggle=2;curveFitting=1;fontFamily=Architects Daughter;fontSource=https%3A%2F%2Ffonts.googleapis.com%2Fcss%3Ffamily%3DArchitects%2BDaughter;" vertex="1" parent="1">
          <mxGeometry x="6008" y="322" width="567" height="84" as="geometry" />
        </mxCell>
        <mxCell id="NJSE71hC_PdKQ5q1DnFO-42" value="ticket creation" style="whiteSpace=wrap;strokeWidth=2;sketch=1;hachureGap=4;jiggle=2;curveFitting=1;fontFamily=Architects Daughter;fontSource=https%3A%2F%2Ffonts.googleapis.com%2Fcss%3Ffamily%3DArchitects%2BDaughter;" vertex="1" parent="1">
          <mxGeometry x="6043" y="347" width="121" height="34" as="geometry" />
        </mxCell>
        <mxCell id="NJSE71hC_PdKQ5q1DnFO-43" value="ticket assignment" style="whiteSpace=wrap;strokeWidth=2;sketch=1;hachureGap=4;jiggle=2;curveFitting=1;fontFamily=Architects Daughter;fontSource=https%3A%2F%2Ffonts.googleapis.com%2Fcss%3Ffamily%3DArchitects%2BDaughter;" vertex="1" parent="1">
          <mxGeometry x="6214" y="347" width="142" height="34" as="geometry" />
        </mxCell>
        <mxCell id="NJSE71hC_PdKQ5q1DnFO-44" value="ticket resolution" style="whiteSpace=wrap;strokeWidth=2;sketch=1;hachureGap=4;jiggle=2;curveFitting=1;fontFamily=Architects Daughter;fontSource=https%3A%2F%2Ffonts.googleapis.com%2Fcss%3Ffamily%3DArchitects%2BDaughter;" vertex="1" parent="1">
          <mxGeometry x="6406" y="347" width="134" height="34" as="geometry" />
        </mxCell>
        <mxCell id="NJSE71hC_PdKQ5q1DnFO-45" value="System Security" style="whiteSpace=wrap;strokeWidth=2;verticalAlign=top;sketch=1;hachureGap=4;jiggle=2;curveFitting=1;fontFamily=Architects Daughter;fontSource=https%3A%2F%2Ffonts.googleapis.com%2Fcss%3Ffamily%3DArchitects%2BDaughter;" vertex="1" parent="1">
          <mxGeometry x="6595" y="322" width="557" height="84" as="geometry" />
        </mxCell>
        <mxCell id="NJSE71hC_PdKQ5q1DnFO-46" value="password management" style="whiteSpace=wrap;strokeWidth=2;sketch=1;hachureGap=4;jiggle=2;curveFitting=1;fontFamily=Architects Daughter;fontSource=https%3A%2F%2Ffonts.googleapis.com%2Fcss%3Ffamily%3DArchitects%2BDaughter;" vertex="1" parent="1">
          <mxGeometry x="6630" y="347" width="179" height="34" as="geometry" />
        </mxCell>
        <mxCell id="NJSE71hC_PdKQ5q1DnFO-47" value="access control" style="whiteSpace=wrap;strokeWidth=2;sketch=1;hachureGap=4;jiggle=2;curveFitting=1;fontFamily=Architects Daughter;fontSource=https%3A%2F%2Ffonts.googleapis.com%2Fcss%3Ffamily%3DArchitects%2BDaughter;" vertex="1" parent="1">
          <mxGeometry x="6858" y="347" width="117" height="34" as="geometry" />
        </mxCell>
        <mxCell id="NJSE71hC_PdKQ5q1DnFO-48" value="encryption" style="whiteSpace=wrap;strokeWidth=2;sketch=1;hachureGap=4;jiggle=2;curveFitting=1;fontFamily=Architects Daughter;fontSource=https%3A%2F%2Ffonts.googleapis.com%2Fcss%3Ffamily%3DArchitects%2BDaughter;" vertex="1" parent="1">
          <mxGeometry x="7025" y="347" width="92" height="34" as="geometry" />
        </mxCell>
        <mxCell id="NJSE71hC_PdKQ5q1DnFO-49" value="Product Management" style="whiteSpace=wrap;strokeWidth=2;verticalAlign=top;sketch=1;hachureGap=4;jiggle=2;curveFitting=1;fontFamily=Architects Daughter;fontSource=https%3A%2F%2Ffonts.googleapis.com%2Fcss%3Ffamily%3DArchitects%2BDaughter;" vertex="1" parent="1">
          <mxGeometry x="7172" y="322" width="565" height="84" as="geometry" />
        </mxCell>
        <mxCell id="NJSE71hC_PdKQ5q1DnFO-50" value="product creation" style="whiteSpace=wrap;strokeWidth=2;sketch=1;hachureGap=4;jiggle=2;curveFitting=1;fontFamily=Architects Daughter;fontSource=https%3A%2F%2Ffonts.googleapis.com%2Fcss%3Ffamily%3DArchitects%2BDaughter;" vertex="1" parent="1">
          <mxGeometry x="7207" y="347" width="135" height="34" as="geometry" />
        </mxCell>
        <mxCell id="NJSE71hC_PdKQ5q1DnFO-51" value="product deletion" style="whiteSpace=wrap;strokeWidth=2;sketch=1;hachureGap=4;jiggle=2;curveFitting=1;fontFamily=Architects Daughter;fontSource=https%3A%2F%2Ffonts.googleapis.com%2Fcss%3Ffamily%3DArchitects%2BDaughter;" vertex="1" parent="1">
          <mxGeometry x="7392" y="347" width="135" height="34" as="geometry" />
        </mxCell>
        <mxCell id="NJSE71hC_PdKQ5q1DnFO-52" value="product update" style="whiteSpace=wrap;strokeWidth=2;sketch=1;hachureGap=4;jiggle=2;curveFitting=1;fontFamily=Architects Daughter;fontSource=https%3A%2F%2Ffonts.googleapis.com%2Fcss%3Ffamily%3DArchitects%2BDaughter;" vertex="1" parent="1">
          <mxGeometry x="7577" y="347" width="126" height="34" as="geometry" />
        </mxCell>
        <mxCell id="NJSE71hC_PdKQ5q1DnFO-53" value="User Management" style="whiteSpace=wrap;strokeWidth=2;verticalAlign=top;sketch=1;hachureGap=4;jiggle=2;curveFitting=1;fontFamily=Architects Daughter;fontSource=https%3A%2F%2Ffonts.googleapis.com%2Fcss%3Ffamily%3DArchitects%2BDaughter;" vertex="1" parent="1">
          <mxGeometry x="7757" y="322" width="489" height="84" as="geometry" />
        </mxCell>
        <mxCell id="NJSE71hC_PdKQ5q1DnFO-54" value="user creation" style="whiteSpace=wrap;strokeWidth=2;sketch=1;hachureGap=4;jiggle=2;curveFitting=1;fontFamily=Architects Daughter;fontSource=https%3A%2F%2Ffonts.googleapis.com%2Fcss%3Ffamily%3DArchitects%2BDaughter;" vertex="1" parent="1">
          <mxGeometry x="7792" y="347" width="110" height="34" as="geometry" />
        </mxCell>
        <mxCell id="NJSE71hC_PdKQ5q1DnFO-55" value="user deletion" style="whiteSpace=wrap;strokeWidth=2;sketch=1;hachureGap=4;jiggle=2;curveFitting=1;fontFamily=Architects Daughter;fontSource=https%3A%2F%2Ffonts.googleapis.com%2Fcss%3Ffamily%3DArchitects%2BDaughter;" vertex="1" parent="1">
          <mxGeometry x="7952" y="347" width="109" height="34" as="geometry" />
        </mxCell>
        <mxCell id="NJSE71hC_PdKQ5q1DnFO-56" value="user update" style="whiteSpace=wrap;strokeWidth=2;sketch=1;hachureGap=4;jiggle=2;curveFitting=1;fontFamily=Architects Daughter;fontSource=https%3A%2F%2Ffonts.googleapis.com%2Fcss%3Ffamily%3DArchitects%2BDaughter;" vertex="1" parent="1">
          <mxGeometry x="8111" y="347" width="100" height="34" as="geometry" />
        </mxCell>
        <mxCell id="NJSE71hC_PdKQ5q1DnFO-57" value="Library Category" style="whiteSpace=wrap;strokeWidth=2;verticalAlign=top;sketch=1;hachureGap=4;jiggle=2;curveFitting=1;fontFamily=Architects Daughter;fontSource=https%3A%2F%2Ffonts.googleapis.com%2Fcss%3Ffamily%3DArchitects%2BDaughter;" vertex="1" parent="1">
          <mxGeometry x="88" y="188" width="2647" height="84" as="geometry" />
        </mxCell>
        <mxCell id="NJSE71hC_PdKQ5q1DnFO-58" value="security tools" style="whiteSpace=wrap;strokeWidth=2;sketch=1;hachureGap=4;jiggle=2;curveFitting=1;fontFamily=Architects Daughter;fontSource=https%3A%2F%2Ffonts.googleapis.com%2Fcss%3Ffamily%3DArchitects%2BDaughter;" vertex="1" parent="1">
          <mxGeometry x="2460" y="213" width="111" height="34" as="geometry" />
        </mxCell>
        <mxCell id="NJSE71hC_PdKQ5q1DnFO-59" value="utility functions" style="whiteSpace=wrap;strokeWidth=2;sketch=1;hachureGap=4;jiggle=2;curveFitting=1;fontFamily=Architects Daughter;fontSource=https%3A%2F%2Ffonts.googleapis.com%2Fcss%3Ffamily%3DArchitects%2BDaughter;" vertex="1" parent="1">
          <mxGeometry x="1918" y="213" width="129" height="34" as="geometry" />
        </mxCell>
        <mxCell id="NJSE71hC_PdKQ5q1DnFO-60" value="error handling" style="whiteSpace=wrap;strokeWidth=2;sketch=1;hachureGap=4;jiggle=2;curveFitting=1;fontFamily=Architects Daughter;fontSource=https%3A%2F%2Ffonts.googleapis.com%2Fcss%3Ffamily%3DArchitects%2BDaughter;" vertex="1" parent="1">
          <mxGeometry x="1359" y="213" width="117" height="34" as="geometry" />
        </mxCell>
        <mxCell id="NJSE71hC_PdKQ5q1DnFO-61" value="analytics tools" style="whiteSpace=wrap;strokeWidth=2;sketch=1;hachureGap=4;jiggle=2;curveFitting=1;fontFamily=Architects Daughter;fontSource=https%3A%2F%2Ffonts.googleapis.com%2Fcss%3Ffamily%3DArchitects%2BDaughter;" vertex="1" parent="1">
          <mxGeometry x="812" y="213" width="118" height="34" as="geometry" />
        </mxCell>
        <mxCell id="NJSE71hC_PdKQ5q1DnFO-62" value="advisory algorithms" style="whiteSpace=wrap;strokeWidth=2;sketch=1;hachureGap=4;jiggle=2;curveFitting=1;fontFamily=Architects Daughter;fontSource=https%3A%2F%2Ffonts.googleapis.com%2Fcss%3Ffamily%3DArchitects%2BDaughter;" vertex="1" parent="1">
          <mxGeometry x="228" y="213" width="154" height="34" as="geometry" />
        </mxCell>
        <mxCell id="NJSE71hC_PdKQ5q1DnFO-63" value="User Category" style="whiteSpace=wrap;strokeWidth=2;verticalAlign=top;sketch=1;hachureGap=4;jiggle=2;curveFitting=1;fontFamily=Architects Daughter;fontSource=https%3A%2F%2Ffonts.googleapis.com%2Fcss%3Ffamily%3DArchitects%2BDaughter;" vertex="1" parent="1">
          <mxGeometry x="2906" y="188" width="3003" height="84" as="geometry" />
        </mxCell>
        <mxCell id="NJSE71hC_PdKQ5q1DnFO-64" value="user dashboard" style="whiteSpace=wrap;strokeWidth=2;sketch=1;hachureGap=4;jiggle=2;curveFitting=1;fontFamily=Architects Daughter;fontSource=https%3A%2F%2Ffonts.googleapis.com%2Fcss%3Ffamily%3DArchitects%2BDaughter;" vertex="1" parent="1">
          <mxGeometry x="5634" y="213" width="124" height="34" as="geometry" />
        </mxCell>
        <mxCell id="NJSE71hC_PdKQ5q1DnFO-65" value="personal finance management" style="whiteSpace=wrap;strokeWidth=2;sketch=1;hachureGap=4;jiggle=2;curveFitting=1;fontFamily=Architects Daughter;fontSource=https%3A%2F%2Ffonts.googleapis.com%2Fcss%3Ffamily%3DArchitects%2BDaughter;" vertex="1" parent="1">
          <mxGeometry x="4948" y="213" width="231" height="34" as="geometry" />
        </mxCell>
        <mxCell id="NJSE71hC_PdKQ5q1DnFO-66" value="investment management" style="whiteSpace=wrap;strokeWidth=2;sketch=1;hachureGap=4;jiggle=2;curveFitting=1;fontFamily=Architects Daughter;fontSource=https%3A%2F%2Ffonts.googleapis.com%2Fcss%3Ffamily%3DArchitects%2BDaughter;" vertex="1" parent="1">
          <mxGeometry x="4398" y="213" width="192" height="34" as="geometry" />
        </mxCell>
        <mxCell id="NJSE71hC_PdKQ5q1DnFO-67" value="transaction handling" style="whiteSpace=wrap;strokeWidth=2;sketch=1;hachureGap=4;jiggle=2;curveFitting=1;fontFamily=Architects Daughter;fontSource=https%3A%2F%2Ffonts.googleapis.com%2Fcss%3Ffamily%3DArchitects%2BDaughter;" vertex="1" parent="1">
          <mxGeometry x="3746" y="213" width="161" height="34" as="geometry" />
        </mxCell>
        <mxCell id="NJSE71hC_PdKQ5q1DnFO-68" value="credit scoring" style="whiteSpace=wrap;strokeWidth=2;sketch=1;hachureGap=4;jiggle=2;curveFitting=1;fontFamily=Architects Daughter;fontSource=https%3A%2F%2Ffonts.googleapis.com%2Fcss%3Ffamily%3DArchitects%2BDaughter;" vertex="1" parent="1">
          <mxGeometry x="3086" y="213" width="113" height="34" as="geometry" />
        </mxCell>
        <mxCell id="NJSE71hC_PdKQ5q1DnFO-69" value="Admin Category" style="whiteSpace=wrap;strokeWidth=2;verticalAlign=top;sketch=1;hachureGap=4;jiggle=2;curveFitting=1;fontFamily=Architects Daughter;fontSource=https%3A%2F%2Ffonts.googleapis.com%2Fcss%3Ffamily%3DArchitects%2BDaughter;" vertex="1" parent="1">
          <mxGeometry x="6064" y="188" width="2119" height="84" as="geometry" />
        </mxCell>
        <mxCell id="NJSE71hC_PdKQ5q1DnFO-70" value="user management" style="whiteSpace=wrap;strokeWidth=2;sketch=1;hachureGap=4;jiggle=2;curveFitting=1;fontFamily=Architects Daughter;fontSource=https%3A%2F%2Ffonts.googleapis.com%2Fcss%3Ffamily%3DArchitects%2BDaughter;" vertex="1" parent="1">
          <mxGeometry x="7935" y="213" width="143" height="34" as="geometry" />
        </mxCell>
        <mxCell id="NJSE71hC_PdKQ5q1DnFO-71" value="product management" style="whiteSpace=wrap;strokeWidth=2;sketch=1;hachureGap=4;jiggle=2;curveFitting=1;fontFamily=Architects Daughter;fontSource=https%3A%2F%2Ffonts.googleapis.com%2Fcss%3Ffamily%3DArchitects%2BDaughter;" vertex="1" parent="1">
          <mxGeometry x="7375" y="213" width="168" height="34" as="geometry" />
        </mxCell>
        <mxCell id="NJSE71hC_PdKQ5q1DnFO-72" value="system security" style="whiteSpace=wrap;strokeWidth=2;sketch=1;hachureGap=4;jiggle=2;curveFitting=1;fontFamily=Architects Daughter;fontSource=https%3A%2F%2Ffonts.googleapis.com%2Fcss%3Ffamily%3DArchitects%2BDaughter;" vertex="1" parent="1">
          <mxGeometry x="6854" y="213" width="126" height="34" as="geometry" />
        </mxCell>
        <mxCell id="NJSE71hC_PdKQ5q1DnFO-73" value="support helpdesk" style="whiteSpace=wrap;strokeWidth=2;sketch=1;hachureGap=4;jiggle=2;curveFitting=1;fontFamily=Architects Daughter;fontSource=https%3A%2F%2Ffonts.googleapis.com%2Fcss%3Ffamily%3DArchitects%2BDaughter;" vertex="1" parent="1">
          <mxGeometry x="6216" y="213" width="138" height="34" as="geometry" />
        </mxCell>
        <mxCell id="NJSE71hC_PdKQ5q1DnFO-74" value="com.finhub" style="whiteSpace=wrap;strokeWidth=2;sketch=1;hachureGap=4;jiggle=2;curveFitting=1;fontFamily=Architects Daughter;fontSource=https%3A%2F%2Ffonts.googleapis.com%2Fcss%3Ffamily%3DArchitects%2BDaughter;" vertex="1" parent="1">
          <mxGeometry x="4446" y="20" width="96" height="34" as="geometry" />
        </mxCell>
        <mxCell id="NJSE71hC_PdKQ5q1DnFO-75" value="admin" style="whiteSpace=wrap;strokeWidth=2;sketch=1;hachureGap=4;jiggle=2;curveFitting=1;fontFamily=Architects Daughter;fontSource=https%3A%2F%2Ffonts.googleapis.com%2Fcss%3Ffamily%3DArchitects%2BDaughter;" vertex="1" parent="1">
          <mxGeometry x="7158" y="104" width="59" height="34" as="geometry" />
        </mxCell>
        <mxCell id="NJSE71hC_PdKQ5q1DnFO-76" value="user" style="whiteSpace=wrap;strokeWidth=2;sketch=1;hachureGap=4;jiggle=2;curveFitting=1;fontFamily=Architects Daughter;fontSource=https%3A%2F%2Ffonts.googleapis.com%2Fcss%3Ffamily%3DArchitects%2BDaughter;" vertex="1" parent="1">
          <mxGeometry x="4472" y="104" width="45" height="34" as="geometry" />
        </mxCell>
        <mxCell id="NJSE71hC_PdKQ5q1DnFO-77" value="library" style="whiteSpace=wrap;strokeWidth=2;sketch=1;hachureGap=4;jiggle=2;curveFitting=1;fontFamily=Architects Daughter;fontSource=https%3A%2F%2Ffonts.googleapis.com%2Fcss%3Ffamily%3DArchitects%2BDaughter;" vertex="1" parent="1">
          <mxGeometry x="1386" y="104" width="62" height="34" as="geometry" />
        </mxCell>
        <mxCell id="NJSE71hC_PdKQ5q1DnFO-78" value="" style="curved=1;startArrow=none;endArrow=block;exitX=1.01;exitY=0.52;entryX=0.51;entryY=0;rounded=0;sketch=1;hachureGap=4;jiggle=2;curveFitting=1;fontFamily=Architects Daughter;fontSource=https%3A%2F%2Ffonts.googleapis.com%2Fcss%3Ffamily%3DArchitects%2BDaughter;" edge="1" parent="1" source="NJSE71hC_PdKQ5q1DnFO-74" target="NJSE71hC_PdKQ5q1DnFO-75">
          <mxGeometry relative="1" as="geometry">
            <Array as="points">
              <mxPoint x="7188" y="79" />
            </Array>
          </mxGeometry>
        </mxCell>
        <mxCell id="NJSE71hC_PdKQ5q1DnFO-79" value="" style="curved=1;startArrow=none;endArrow=block;exitX=0.51;exitY=1;entryX=0.5;entryY=0;rounded=0;sketch=1;hachureGap=4;jiggle=2;curveFitting=1;fontFamily=Architects Daughter;fontSource=https%3A%2F%2Ffonts.googleapis.com%2Fcss%3Ffamily%3DArchitects%2BDaughter;" edge="1" parent="1" source="NJSE71hC_PdKQ5q1DnFO-74" target="NJSE71hC_PdKQ5q1DnFO-76">
          <mxGeometry relative="1" as="geometry">
            <Array as="points" />
          </mxGeometry>
        </mxCell>
        <mxCell id="NJSE71hC_PdKQ5q1DnFO-80" value="" style="curved=1;startArrow=none;endArrow=block;exitX=0;exitY=0.52;entryX=0.5;entryY=0;rounded=0;sketch=1;hachureGap=4;jiggle=2;curveFitting=1;fontFamily=Architects Daughter;fontSource=https%3A%2F%2Ffonts.googleapis.com%2Fcss%3Ffamily%3DArchitects%2BDaughter;" edge="1" parent="1" source="NJSE71hC_PdKQ5q1DnFO-74" target="NJSE71hC_PdKQ5q1DnFO-77">
          <mxGeometry relative="1" as="geometry">
            <Array as="points">
              <mxPoint x="1417" y="79" />
            </Array>
          </mxGeometry>
        </mxCell>
        <mxCell id="NJSE71hC_PdKQ5q1DnFO-81" value="" style="curved=1;startArrow=none;endArrow=block;exitX=1.01;exitY=0.54;entryX=0.5;entryY=-0.01;rounded=0;sketch=1;hachureGap=4;jiggle=2;curveFitting=1;fontFamily=Architects Daughter;fontSource=https%3A%2F%2Ffonts.googleapis.com%2Fcss%3Ffamily%3DArchitects%2BDaughter;" edge="1" parent="1" source="NJSE71hC_PdKQ5q1DnFO-75" target="NJSE71hC_PdKQ5q1DnFO-70">
          <mxGeometry relative="1" as="geometry">
            <Array as="points">
              <mxPoint x="8006" y="163" />
            </Array>
          </mxGeometry>
        </mxCell>
        <mxCell id="NJSE71hC_PdKQ5q1DnFO-82" value="" style="curved=1;startArrow=none;endArrow=block;exitX=1.01;exitY=0.63;entryX=0.5;entryY=-0.01;rounded=0;sketch=1;hachureGap=4;jiggle=2;curveFitting=1;fontFamily=Architects Daughter;fontSource=https%3A%2F%2Ffonts.googleapis.com%2Fcss%3Ffamily%3DArchitects%2BDaughter;" edge="1" parent="1" source="NJSE71hC_PdKQ5q1DnFO-75" target="NJSE71hC_PdKQ5q1DnFO-71">
          <mxGeometry relative="1" as="geometry">
            <Array as="points">
              <mxPoint x="7459" y="163" />
            </Array>
          </mxGeometry>
        </mxCell>
        <mxCell id="NJSE71hC_PdKQ5q1DnFO-83" value="" style="curved=1;startArrow=none;endArrow=block;exitX=0.01;exitY=0.63;entryX=0.5;entryY=-0.01;rounded=0;sketch=1;hachureGap=4;jiggle=2;curveFitting=1;fontFamily=Architects Daughter;fontSource=https%3A%2F%2Ffonts.googleapis.com%2Fcss%3Ffamily%3DArchitects%2BDaughter;" edge="1" parent="1" source="NJSE71hC_PdKQ5q1DnFO-75" target="NJSE71hC_PdKQ5q1DnFO-72">
          <mxGeometry relative="1" as="geometry">
            <Array as="points">
              <mxPoint x="6917" y="163" />
            </Array>
          </mxGeometry>
        </mxCell>
        <mxCell id="NJSE71hC_PdKQ5q1DnFO-84" value="" style="curved=1;startArrow=none;endArrow=block;exitX=0.01;exitY=0.54;entryX=0.5;entryY=-0.01;rounded=0;sketch=1;hachureGap=4;jiggle=2;curveFitting=1;fontFamily=Architects Daughter;fontSource=https%3A%2F%2Ffonts.googleapis.com%2Fcss%3Ffamily%3DArchitects%2BDaughter;" edge="1" parent="1" source="NJSE71hC_PdKQ5q1DnFO-75" target="NJSE71hC_PdKQ5q1DnFO-73">
          <mxGeometry relative="1" as="geometry">
            <Array as="points">
              <mxPoint x="6285" y="163" />
            </Array>
          </mxGeometry>
        </mxCell>
        <mxCell id="NJSE71hC_PdKQ5q1DnFO-85" value="" style="curved=1;startArrow=none;endArrow=block;exitX=1.01;exitY=0.52;entryX=0.5;entryY=-0.01;rounded=0;sketch=1;hachureGap=4;jiggle=2;curveFitting=1;fontFamily=Architects Daughter;fontSource=https%3A%2F%2Ffonts.googleapis.com%2Fcss%3Ffamily%3DArchitects%2BDaughter;" edge="1" parent="1" source="NJSE71hC_PdKQ5q1DnFO-76" target="NJSE71hC_PdKQ5q1DnFO-64">
          <mxGeometry relative="1" as="geometry">
            <Array as="points">
              <mxPoint x="5696" y="163" />
            </Array>
          </mxGeometry>
        </mxCell>
        <mxCell id="NJSE71hC_PdKQ5q1DnFO-86" value="" style="curved=1;startArrow=none;endArrow=block;exitX=1.01;exitY=0.55;entryX=0.5;entryY=-0.01;rounded=0;sketch=1;hachureGap=4;jiggle=2;curveFitting=1;fontFamily=Architects Daughter;fontSource=https%3A%2F%2Ffonts.googleapis.com%2Fcss%3Ffamily%3DArchitects%2BDaughter;" edge="1" parent="1" source="NJSE71hC_PdKQ5q1DnFO-76" target="NJSE71hC_PdKQ5q1DnFO-65">
          <mxGeometry relative="1" as="geometry">
            <Array as="points">
              <mxPoint x="5064" y="163" />
            </Array>
          </mxGeometry>
        </mxCell>
        <mxCell id="NJSE71hC_PdKQ5q1DnFO-87" value="" style="curved=1;startArrow=none;endArrow=block;exitX=0.5;exitY=0.99;entryX=0.5;entryY=-0.01;rounded=0;sketch=1;hachureGap=4;jiggle=2;curveFitting=1;fontFamily=Architects Daughter;fontSource=https%3A%2F%2Ffonts.googleapis.com%2Fcss%3Ffamily%3DArchitects%2BDaughter;" edge="1" parent="1" source="NJSE71hC_PdKQ5q1DnFO-76" target="NJSE71hC_PdKQ5q1DnFO-66">
          <mxGeometry relative="1" as="geometry">
            <Array as="points" />
          </mxGeometry>
        </mxCell>
        <mxCell id="NJSE71hC_PdKQ5q1DnFO-88" value="" style="curved=1;startArrow=none;endArrow=block;exitX=0;exitY=0.54;entryX=0.5;entryY=-0.01;rounded=0;sketch=1;hachureGap=4;jiggle=2;curveFitting=1;fontFamily=Architects Daughter;fontSource=https%3A%2F%2Ffonts.googleapis.com%2Fcss%3Ffamily%3DArchitects%2BDaughter;" edge="1" parent="1" source="NJSE71hC_PdKQ5q1DnFO-76" target="NJSE71hC_PdKQ5q1DnFO-67">
          <mxGeometry relative="1" as="geometry">
            <Array as="points">
              <mxPoint x="3826" y="163" />
            </Array>
          </mxGeometry>
        </mxCell>
        <mxCell id="NJSE71hC_PdKQ5q1DnFO-89" value="" style="curved=1;startArrow=none;endArrow=block;exitX=0;exitY=0.52;entryX=0.5;entryY=-0.01;rounded=0;sketch=1;hachureGap=4;jiggle=2;curveFitting=1;fontFamily=Architects Daughter;fontSource=https%3A%2F%2Ffonts.googleapis.com%2Fcss%3Ffamily%3DArchitects%2BDaughter;" edge="1" parent="1" source="NJSE71hC_PdKQ5q1DnFO-76" target="NJSE71hC_PdKQ5q1DnFO-68">
          <mxGeometry relative="1" as="geometry">
            <Array as="points">
              <mxPoint x="3142" y="163" />
            </Array>
          </mxGeometry>
        </mxCell>
        <mxCell id="NJSE71hC_PdKQ5q1DnFO-90" value="" style="curved=1;startArrow=none;endArrow=block;exitX=1;exitY=0.53;entryX=0.5;entryY=-0.01;rounded=0;sketch=1;hachureGap=4;jiggle=2;curveFitting=1;fontFamily=Architects Daughter;fontSource=https%3A%2F%2Ffonts.googleapis.com%2Fcss%3Ffamily%3DArchitects%2BDaughter;" edge="1" parent="1" source="NJSE71hC_PdKQ5q1DnFO-77" target="NJSE71hC_PdKQ5q1DnFO-58">
          <mxGeometry relative="1" as="geometry">
            <Array as="points">
              <mxPoint x="2515" y="163" />
            </Array>
          </mxGeometry>
        </mxCell>
        <mxCell id="NJSE71hC_PdKQ5q1DnFO-91" value="" style="curved=1;startArrow=none;endArrow=block;exitX=1;exitY=0.56;entryX=0.5;entryY=-0.01;rounded=0;sketch=1;hachureGap=4;jiggle=2;curveFitting=1;fontFamily=Architects Daughter;fontSource=https%3A%2F%2Ffonts.googleapis.com%2Fcss%3Ffamily%3DArchitects%2BDaughter;" edge="1" parent="1" source="NJSE71hC_PdKQ5q1DnFO-77" target="NJSE71hC_PdKQ5q1DnFO-59">
          <mxGeometry relative="1" as="geometry">
            <Array as="points">
              <mxPoint x="1983" y="163" />
            </Array>
          </mxGeometry>
        </mxCell>
        <mxCell id="NJSE71hC_PdKQ5q1DnFO-92" value="" style="curved=1;startArrow=none;endArrow=block;exitX=0.5;exitY=0.99;entryX=0.5;entryY=-0.01;rounded=0;sketch=1;hachureGap=4;jiggle=2;curveFitting=1;fontFamily=Architects Daughter;fontSource=https%3A%2F%2Ffonts.googleapis.com%2Fcss%3Ffamily%3DArchitects%2BDaughter;" edge="1" parent="1" source="NJSE71hC_PdKQ5q1DnFO-77" target="NJSE71hC_PdKQ5q1DnFO-60">
          <mxGeometry relative="1" as="geometry">
            <Array as="points" />
          </mxGeometry>
        </mxCell>
        <mxCell id="NJSE71hC_PdKQ5q1DnFO-93" value="" style="curved=1;startArrow=none;endArrow=block;exitX=0;exitY=0.57;entryX=0.5;entryY=-0.01;rounded=0;sketch=1;hachureGap=4;jiggle=2;curveFitting=1;fontFamily=Architects Daughter;fontSource=https%3A%2F%2Ffonts.googleapis.com%2Fcss%3Ffamily%3DArchitects%2BDaughter;" edge="1" parent="1" source="NJSE71hC_PdKQ5q1DnFO-77" target="NJSE71hC_PdKQ5q1DnFO-61">
          <mxGeometry relative="1" as="geometry">
            <Array as="points">
              <mxPoint x="871" y="163" />
            </Array>
          </mxGeometry>
        </mxCell>
        <mxCell id="NJSE71hC_PdKQ5q1DnFO-94" value="" style="curved=1;startArrow=none;endArrow=block;exitX=0;exitY=0.53;entryX=0.5;entryY=-0.01;rounded=0;sketch=1;hachureGap=4;jiggle=2;curveFitting=1;fontFamily=Architects Daughter;fontSource=https%3A%2F%2Ffonts.googleapis.com%2Fcss%3Ffamily%3DArchitects%2BDaughter;" edge="1" parent="1" source="NJSE71hC_PdKQ5q1DnFO-77" target="NJSE71hC_PdKQ5q1DnFO-62">
          <mxGeometry relative="1" as="geometry">
            <Array as="points">
              <mxPoint x="305" y="163" />
            </Array>
          </mxGeometry>
        </mxCell>
        <mxCell id="NJSE71hC_PdKQ5q1DnFO-95" value="" style="curved=1;startArrow=none;endArrow=block;exitX=0.05;exitY=0.99;entryX=0.5;entryY=-0.01;rounded=0;sketch=1;hachureGap=4;jiggle=2;curveFitting=1;fontFamily=Architects Daughter;fontSource=https%3A%2F%2Ffonts.googleapis.com%2Fcss%3Ffamily%3DArchitects%2BDaughter;" edge="1" parent="1" source="NJSE71hC_PdKQ5q1DnFO-70" target="NJSE71hC_PdKQ5q1DnFO-54">
          <mxGeometry relative="1" as="geometry">
            <Array as="points">
              <mxPoint x="7847" y="272" />
            </Array>
          </mxGeometry>
        </mxCell>
        <mxCell id="NJSE71hC_PdKQ5q1DnFO-96" value="" style="curved=1;startArrow=none;endArrow=block;exitX=0.5;exitY=0.99;entryX=0.5;entryY=-0.01;rounded=0;sketch=1;hachureGap=4;jiggle=2;curveFitting=1;fontFamily=Architects Daughter;fontSource=https%3A%2F%2Ffonts.googleapis.com%2Fcss%3Ffamily%3DArchitects%2BDaughter;" edge="1" parent="1" source="NJSE71hC_PdKQ5q1DnFO-70" target="NJSE71hC_PdKQ5q1DnFO-55">
          <mxGeometry relative="1" as="geometry">
            <Array as="points" />
          </mxGeometry>
        </mxCell>
        <mxCell id="NJSE71hC_PdKQ5q1DnFO-97" value="" style="curved=1;startArrow=none;endArrow=block;exitX=0.93;exitY=0.99;entryX=0.5;entryY=-0.01;rounded=0;sketch=1;hachureGap=4;jiggle=2;curveFitting=1;fontFamily=Architects Daughter;fontSource=https%3A%2F%2Ffonts.googleapis.com%2Fcss%3Ffamily%3DArchitects%2BDaughter;" edge="1" parent="1" source="NJSE71hC_PdKQ5q1DnFO-70" target="NJSE71hC_PdKQ5q1DnFO-56">
          <mxGeometry relative="1" as="geometry">
            <Array as="points">
              <mxPoint x="8161" y="272" />
            </Array>
          </mxGeometry>
        </mxCell>
        <mxCell id="NJSE71hC_PdKQ5q1DnFO-98" value="" style="curved=1;startArrow=none;endArrow=block;exitX=0.06;exitY=0.99;entryX=0.5;entryY=-0.01;rounded=0;sketch=1;hachureGap=4;jiggle=2;curveFitting=1;fontFamily=Architects Daughter;fontSource=https%3A%2F%2Ffonts.googleapis.com%2Fcss%3Ffamily%3DArchitects%2BDaughter;" edge="1" parent="1" source="NJSE71hC_PdKQ5q1DnFO-71" target="NJSE71hC_PdKQ5q1DnFO-50">
          <mxGeometry relative="1" as="geometry">
            <Array as="points">
              <mxPoint x="7274" y="272" />
            </Array>
          </mxGeometry>
        </mxCell>
        <mxCell id="NJSE71hC_PdKQ5q1DnFO-99" value="" style="curved=1;startArrow=none;endArrow=block;exitX=0.5;exitY=0.99;entryX=0.5;entryY=-0.01;rounded=0;sketch=1;hachureGap=4;jiggle=2;curveFitting=1;fontFamily=Architects Daughter;fontSource=https%3A%2F%2Ffonts.googleapis.com%2Fcss%3Ffamily%3DArchitects%2BDaughter;" edge="1" parent="1" source="NJSE71hC_PdKQ5q1DnFO-71" target="NJSE71hC_PdKQ5q1DnFO-51">
          <mxGeometry relative="1" as="geometry">
            <Array as="points" />
          </mxGeometry>
        </mxCell>
        <mxCell id="NJSE71hC_PdKQ5q1DnFO-100" value="" style="curved=1;startArrow=none;endArrow=block;exitX=0.93;exitY=0.99;entryX=0.49;entryY=-0.01;rounded=0;sketch=1;hachureGap=4;jiggle=2;curveFitting=1;fontFamily=Architects Daughter;fontSource=https%3A%2F%2Ffonts.googleapis.com%2Fcss%3Ffamily%3DArchitects%2BDaughter;" edge="1" parent="1" source="NJSE71hC_PdKQ5q1DnFO-71" target="NJSE71hC_PdKQ5q1DnFO-52">
          <mxGeometry relative="1" as="geometry">
            <Array as="points">
              <mxPoint x="7639" y="272" />
            </Array>
          </mxGeometry>
        </mxCell>
        <mxCell id="NJSE71hC_PdKQ5q1DnFO-101" value="" style="curved=1;startArrow=none;endArrow=block;exitX=0;exitY=0.89;entryX=0.5;entryY=-0.01;rounded=0;sketch=1;hachureGap=4;jiggle=2;curveFitting=1;fontFamily=Architects Daughter;fontSource=https%3A%2F%2Ffonts.googleapis.com%2Fcss%3Ffamily%3DArchitects%2BDaughter;" edge="1" parent="1" source="NJSE71hC_PdKQ5q1DnFO-72" target="NJSE71hC_PdKQ5q1DnFO-46">
          <mxGeometry relative="1" as="geometry">
            <Array as="points">
              <mxPoint x="6719" y="272" />
            </Array>
          </mxGeometry>
        </mxCell>
        <mxCell id="NJSE71hC_PdKQ5q1DnFO-102" value="" style="curved=1;startArrow=none;endArrow=block;exitX=0.5;exitY=0.99;entryX=0.5;entryY=-0.01;rounded=0;sketch=1;hachureGap=4;jiggle=2;curveFitting=1;fontFamily=Architects Daughter;fontSource=https%3A%2F%2Ffonts.googleapis.com%2Fcss%3Ffamily%3DArchitects%2BDaughter;" edge="1" parent="1" source="NJSE71hC_PdKQ5q1DnFO-72" target="NJSE71hC_PdKQ5q1DnFO-47">
          <mxGeometry relative="1" as="geometry">
            <Array as="points" />
          </mxGeometry>
        </mxCell>
        <mxCell id="NJSE71hC_PdKQ5q1DnFO-103" value="" style="curved=1;startArrow=none;endArrow=block;exitX=0.99;exitY=0.99;entryX=0.5;entryY=-0.01;rounded=0;sketch=1;hachureGap=4;jiggle=2;curveFitting=1;fontFamily=Architects Daughter;fontSource=https%3A%2F%2Ffonts.googleapis.com%2Fcss%3Ffamily%3DArchitects%2BDaughter;" edge="1" parent="1" source="NJSE71hC_PdKQ5q1DnFO-72" target="NJSE71hC_PdKQ5q1DnFO-48">
          <mxGeometry relative="1" as="geometry">
            <Array as="points">
              <mxPoint x="7071" y="272" />
            </Array>
          </mxGeometry>
        </mxCell>
        <mxCell id="NJSE71hC_PdKQ5q1DnFO-104" value="" style="curved=1;startArrow=none;endArrow=block;exitX=0;exitY=0.96;entryX=0.5;entryY=-0.01;rounded=0;sketch=1;hachureGap=4;jiggle=2;curveFitting=1;fontFamily=Architects Daughter;fontSource=https%3A%2F%2Ffonts.googleapis.com%2Fcss%3Ffamily%3DArchitects%2BDaughter;" edge="1" parent="1" source="NJSE71hC_PdKQ5q1DnFO-73" target="NJSE71hC_PdKQ5q1DnFO-42">
          <mxGeometry relative="1" as="geometry">
            <Array as="points">
              <mxPoint x="6104" y="272" />
            </Array>
          </mxGeometry>
        </mxCell>
        <mxCell id="NJSE71hC_PdKQ5q1DnFO-105" value="" style="curved=1;startArrow=none;endArrow=block;exitX=0.5;exitY=0.99;entryX=0.5;entryY=-0.01;rounded=0;sketch=1;hachureGap=4;jiggle=2;curveFitting=1;fontFamily=Architects Daughter;fontSource=https%3A%2F%2Ffonts.googleapis.com%2Fcss%3Ffamily%3DArchitects%2BDaughter;" edge="1" parent="1" source="NJSE71hC_PdKQ5q1DnFO-73" target="NJSE71hC_PdKQ5q1DnFO-43">
          <mxGeometry relative="1" as="geometry">
            <Array as="points" />
          </mxGeometry>
        </mxCell>
        <mxCell id="NJSE71hC_PdKQ5q1DnFO-106" value="" style="curved=1;startArrow=none;endArrow=block;exitX=1;exitY=0.95;entryX=0.5;entryY=-0.01;rounded=0;sketch=1;hachureGap=4;jiggle=2;curveFitting=1;fontFamily=Architects Daughter;fontSource=https%3A%2F%2Ffonts.googleapis.com%2Fcss%3Ffamily%3DArchitects%2BDaughter;" edge="1" parent="1" source="NJSE71hC_PdKQ5q1DnFO-73" target="NJSE71hC_PdKQ5q1DnFO-44">
          <mxGeometry relative="1" as="geometry">
            <Array as="points">
              <mxPoint x="6473" y="272" />
            </Array>
          </mxGeometry>
        </mxCell>
        <mxCell id="NJSE71hC_PdKQ5q1DnFO-107" value="" style="curved=1;startArrow=none;endArrow=block;exitX=0;exitY=0.88;entryX=0.5;entryY=-0.01;rounded=0;sketch=1;hachureGap=4;jiggle=2;curveFitting=1;fontFamily=Architects Daughter;fontSource=https%3A%2F%2Ffonts.googleapis.com%2Fcss%3Ffamily%3DArchitects%2BDaughter;" edge="1" parent="1" source="NJSE71hC_PdKQ5q1DnFO-64" target="NJSE71hC_PdKQ5q1DnFO-38">
          <mxGeometry relative="1" as="geometry">
            <Array as="points">
              <mxPoint x="5501" y="272" />
            </Array>
          </mxGeometry>
        </mxCell>
        <mxCell id="NJSE71hC_PdKQ5q1DnFO-108" value="" style="curved=1;startArrow=none;endArrow=block;exitX=0.5;exitY=0.99;entryX=0.5;entryY=-0.01;rounded=0;sketch=1;hachureGap=4;jiggle=2;curveFitting=1;fontFamily=Architects Daughter;fontSource=https%3A%2F%2Ffonts.googleapis.com%2Fcss%3Ffamily%3DArchitects%2BDaughter;" edge="1" parent="1" source="NJSE71hC_PdKQ5q1DnFO-64" target="NJSE71hC_PdKQ5q1DnFO-39">
          <mxGeometry relative="1" as="geometry">
            <Array as="points" />
          </mxGeometry>
        </mxCell>
        <mxCell id="NJSE71hC_PdKQ5q1DnFO-109" value="" style="curved=1;startArrow=none;endArrow=block;exitX=1;exitY=0.89;entryX=0.5;entryY=-0.01;rounded=0;sketch=1;hachureGap=4;jiggle=2;curveFitting=1;fontFamily=Architects Daughter;fontSource=https%3A%2F%2Ffonts.googleapis.com%2Fcss%3Ffamily%3DArchitects%2BDaughter;" edge="1" parent="1" source="NJSE71hC_PdKQ5q1DnFO-64" target="NJSE71hC_PdKQ5q1DnFO-40">
          <mxGeometry relative="1" as="geometry">
            <Array as="points">
              <mxPoint x="5887" y="272" />
            </Array>
          </mxGeometry>
        </mxCell>
        <mxCell id="NJSE71hC_PdKQ5q1DnFO-110" value="" style="curved=1;startArrow=none;endArrow=block;exitX=0.22;exitY=0.99;entryX=0.49;entryY=-0.01;rounded=0;sketch=1;hachureGap=4;jiggle=2;curveFitting=1;fontFamily=Architects Daughter;fontSource=https%3A%2F%2Ffonts.googleapis.com%2Fcss%3Ffamily%3DArchitects%2BDaughter;" edge="1" parent="1" source="NJSE71hC_PdKQ5q1DnFO-65" target="NJSE71hC_PdKQ5q1DnFO-34">
          <mxGeometry relative="1" as="geometry">
            <Array as="points">
              <mxPoint x="4903" y="272" />
            </Array>
          </mxGeometry>
        </mxCell>
        <mxCell id="NJSE71hC_PdKQ5q1DnFO-111" value="" style="curved=1;startArrow=none;endArrow=block;exitX=0.5;exitY=0.99;entryX=0.5;entryY=-0.01;rounded=0;sketch=1;hachureGap=4;jiggle=2;curveFitting=1;fontFamily=Architects Daughter;fontSource=https%3A%2F%2Ffonts.googleapis.com%2Fcss%3Ffamily%3DArchitects%2BDaughter;" edge="1" parent="1" source="NJSE71hC_PdKQ5q1DnFO-65" target="NJSE71hC_PdKQ5q1DnFO-35">
          <mxGeometry relative="1" as="geometry">
            <Array as="points" />
          </mxGeometry>
        </mxCell>
        <mxCell id="NJSE71hC_PdKQ5q1DnFO-112" value="" style="curved=1;startArrow=none;endArrow=block;exitX=0.85;exitY=0.99;entryX=0.5;entryY=-0.01;rounded=0;sketch=1;hachureGap=4;jiggle=2;curveFitting=1;fontFamily=Architects Daughter;fontSource=https%3A%2F%2Ffonts.googleapis.com%2Fcss%3Ffamily%3DArchitects%2BDaughter;" edge="1" parent="1" source="NJSE71hC_PdKQ5q1DnFO-65" target="NJSE71hC_PdKQ5q1DnFO-36">
          <mxGeometry relative="1" as="geometry">
            <Array as="points">
              <mxPoint x="5261" y="272" />
            </Array>
          </mxGeometry>
        </mxCell>
        <mxCell id="NJSE71hC_PdKQ5q1DnFO-113" value="" style="curved=1;startArrow=none;endArrow=block;exitX=0.06;exitY=0.99;entryX=0.5;entryY=-0.01;rounded=0;sketch=1;hachureGap=4;jiggle=2;curveFitting=1;fontFamily=Architects Daughter;fontSource=https%3A%2F%2Ffonts.googleapis.com%2Fcss%3Ffamily%3DArchitects%2BDaughter;" edge="1" parent="1" source="NJSE71hC_PdKQ5q1DnFO-66" target="NJSE71hC_PdKQ5q1DnFO-30">
          <mxGeometry relative="1" as="geometry">
            <Array as="points">
              <mxPoint x="4285" y="272" />
            </Array>
          </mxGeometry>
        </mxCell>
        <mxCell id="NJSE71hC_PdKQ5q1DnFO-114" value="" style="curved=1;startArrow=none;endArrow=block;exitX=0.5;exitY=0.99;entryX=0.5;entryY=-0.01;rounded=0;sketch=1;hachureGap=4;jiggle=2;curveFitting=1;fontFamily=Architects Daughter;fontSource=https%3A%2F%2Ffonts.googleapis.com%2Fcss%3Ffamily%3DArchitects%2BDaughter;" edge="1" parent="1" source="NJSE71hC_PdKQ5q1DnFO-66" target="NJSE71hC_PdKQ5q1DnFO-31">
          <mxGeometry relative="1" as="geometry">
            <Array as="points" />
          </mxGeometry>
        </mxCell>
        <mxCell id="NJSE71hC_PdKQ5q1DnFO-115" value="" style="curved=1;startArrow=none;endArrow=block;exitX=0.93;exitY=0.99;entryX=0.5;entryY=-0.01;rounded=0;sketch=1;hachureGap=4;jiggle=2;curveFitting=1;fontFamily=Architects Daughter;fontSource=https%3A%2F%2Ffonts.googleapis.com%2Fcss%3Ffamily%3DArchitects%2BDaughter;" edge="1" parent="1" source="NJSE71hC_PdKQ5q1DnFO-66" target="NJSE71hC_PdKQ5q1DnFO-32">
          <mxGeometry relative="1" as="geometry">
            <Array as="points">
              <mxPoint x="4697" y="272" />
            </Array>
          </mxGeometry>
        </mxCell>
        <mxCell id="NJSE71hC_PdKQ5q1DnFO-116" value="" style="curved=1;startArrow=none;endArrow=block;exitX=0;exitY=0.95;entryX=0.5;entryY=-0.01;rounded=0;sketch=1;hachureGap=4;jiggle=2;curveFitting=1;fontFamily=Architects Daughter;fontSource=https%3A%2F%2Ffonts.googleapis.com%2Fcss%3Ffamily%3DArchitects%2BDaughter;" edge="1" parent="1" source="NJSE71hC_PdKQ5q1DnFO-67" target="NJSE71hC_PdKQ5q1DnFO-26">
          <mxGeometry relative="1" as="geometry">
            <Array as="points">
              <mxPoint x="3609" y="272" />
            </Array>
          </mxGeometry>
        </mxCell>
        <mxCell id="NJSE71hC_PdKQ5q1DnFO-117" value="" style="curved=1;startArrow=none;endArrow=block;exitX=0.5;exitY=0.99;entryX=0.5;entryY=-0.01;rounded=0;sketch=1;hachureGap=4;jiggle=2;curveFitting=1;fontFamily=Architects Daughter;fontSource=https%3A%2F%2Ffonts.googleapis.com%2Fcss%3Ffamily%3DArchitects%2BDaughter;" edge="1" parent="1" source="NJSE71hC_PdKQ5q1DnFO-67" target="NJSE71hC_PdKQ5q1DnFO-27">
          <mxGeometry relative="1" as="geometry">
            <Array as="points" />
          </mxGeometry>
        </mxCell>
        <mxCell id="NJSE71hC_PdKQ5q1DnFO-118" value="" style="curved=1;startArrow=none;endArrow=block;exitX=1;exitY=0.96;entryX=0.5;entryY=-0.01;rounded=0;sketch=1;hachureGap=4;jiggle=2;curveFitting=1;fontFamily=Architects Daughter;fontSource=https%3A%2F%2Ffonts.googleapis.com%2Fcss%3Ffamily%3DArchitects%2BDaughter;" edge="1" parent="1" source="NJSE71hC_PdKQ5q1DnFO-67" target="NJSE71hC_PdKQ5q1DnFO-28">
          <mxGeometry relative="1" as="geometry">
            <Array as="points">
              <mxPoint x="4039" y="272" />
            </Array>
          </mxGeometry>
        </mxCell>
        <mxCell id="NJSE71hC_PdKQ5q1DnFO-119" value="" style="curved=1;startArrow=none;endArrow=block;exitX=0;exitY=0.85;entryX=0.5;entryY=-0.01;rounded=0;sketch=1;hachureGap=4;jiggle=2;curveFitting=1;fontFamily=Architects Daughter;fontSource=https%3A%2F%2Ffonts.googleapis.com%2Fcss%3Ffamily%3DArchitects%2BDaughter;" edge="1" parent="1" source="NJSE71hC_PdKQ5q1DnFO-68" target="NJSE71hC_PdKQ5q1DnFO-22">
          <mxGeometry relative="1" as="geometry">
            <Array as="points">
              <mxPoint x="2946" y="272" />
            </Array>
          </mxGeometry>
        </mxCell>
        <mxCell id="NJSE71hC_PdKQ5q1DnFO-120" value="" style="curved=1;startArrow=none;endArrow=block;exitX=0.5;exitY=0.99;entryX=0.5;entryY=-0.01;rounded=0;sketch=1;hachureGap=4;jiggle=2;curveFitting=1;fontFamily=Architects Daughter;fontSource=https%3A%2F%2Ffonts.googleapis.com%2Fcss%3Ffamily%3DArchitects%2BDaughter;" edge="1" parent="1" source="NJSE71hC_PdKQ5q1DnFO-68" target="NJSE71hC_PdKQ5q1DnFO-23">
          <mxGeometry relative="1" as="geometry">
            <Array as="points" />
          </mxGeometry>
        </mxCell>
        <mxCell id="NJSE71hC_PdKQ5q1DnFO-121" value="" style="curved=1;startArrow=none;endArrow=block;exitX=1;exitY=0.81;entryX=0.5;entryY=-0.01;rounded=0;sketch=1;hachureGap=4;jiggle=2;curveFitting=1;fontFamily=Architects Daughter;fontSource=https%3A%2F%2Ffonts.googleapis.com%2Fcss%3Ffamily%3DArchitects%2BDaughter;" edge="1" parent="1" source="NJSE71hC_PdKQ5q1DnFO-68" target="NJSE71hC_PdKQ5q1DnFO-24">
          <mxGeometry relative="1" as="geometry">
            <Array as="points">
              <mxPoint x="3362" y="272" />
            </Array>
          </mxGeometry>
        </mxCell>
        <mxCell id="NJSE71hC_PdKQ5q1DnFO-122" value="" style="curved=1;startArrow=none;endArrow=block;exitX=0;exitY=0.94;entryX=0.5;entryY=-0.01;rounded=0;sketch=1;hachureGap=4;jiggle=2;curveFitting=1;fontFamily=Architects Daughter;fontSource=https%3A%2F%2Ffonts.googleapis.com%2Fcss%3Ffamily%3DArchitects%2BDaughter;" edge="1" parent="1" source="NJSE71hC_PdKQ5q1DnFO-58" target="NJSE71hC_PdKQ5q1DnFO-18">
          <mxGeometry relative="1" as="geometry">
            <Array as="points">
              <mxPoint x="2361" y="272" />
            </Array>
          </mxGeometry>
        </mxCell>
        <mxCell id="NJSE71hC_PdKQ5q1DnFO-123" value="" style="curved=1;startArrow=none;endArrow=block;exitX=0.5;exitY=0.99;entryX=0.5;entryY=-0.01;rounded=0;sketch=1;hachureGap=4;jiggle=2;curveFitting=1;fontFamily=Architects Daughter;fontSource=https%3A%2F%2Ffonts.googleapis.com%2Fcss%3Ffamily%3DArchitects%2BDaughter;" edge="1" parent="1" source="NJSE71hC_PdKQ5q1DnFO-58" target="NJSE71hC_PdKQ5q1DnFO-19">
          <mxGeometry relative="1" as="geometry">
            <Array as="points" />
          </mxGeometry>
        </mxCell>
        <mxCell id="NJSE71hC_PdKQ5q1DnFO-124" value="" style="curved=1;startArrow=none;endArrow=block;exitX=1;exitY=0.84;entryX=0.5;entryY=-0.01;rounded=0;sketch=1;hachureGap=4;jiggle=2;curveFitting=1;fontFamily=Architects Daughter;fontSource=https%3A%2F%2Ffonts.googleapis.com%2Fcss%3Ffamily%3DArchitects%2BDaughter;" edge="1" parent="1" source="NJSE71hC_PdKQ5q1DnFO-58" target="NJSE71hC_PdKQ5q1DnFO-20">
          <mxGeometry relative="1" as="geometry">
            <Array as="points">
              <mxPoint x="2713" y="272" />
            </Array>
          </mxGeometry>
        </mxCell>
        <mxCell id="NJSE71hC_PdKQ5q1DnFO-125" value="" style="curved=1;startArrow=none;endArrow=block;exitX=0;exitY=0.95;entryX=0.5;entryY=-0.01;rounded=0;sketch=1;hachureGap=4;jiggle=2;curveFitting=1;fontFamily=Architects Daughter;fontSource=https%3A%2F%2Ffonts.googleapis.com%2Fcss%3Ffamily%3DArchitects%2BDaughter;" edge="1" parent="1" source="NJSE71hC_PdKQ5q1DnFO-59" target="NJSE71hC_PdKQ5q1DnFO-14">
          <mxGeometry relative="1" as="geometry">
            <Array as="points">
              <mxPoint x="1807" y="272" />
            </Array>
          </mxGeometry>
        </mxCell>
        <mxCell id="NJSE71hC_PdKQ5q1DnFO-126" value="" style="curved=1;startArrow=none;endArrow=block;exitX=0.5;exitY=0.99;entryX=0.5;entryY=-0.01;rounded=0;sketch=1;hachureGap=4;jiggle=2;curveFitting=1;fontFamily=Architects Daughter;fontSource=https%3A%2F%2Ffonts.googleapis.com%2Fcss%3Ffamily%3DArchitects%2BDaughter;" edge="1" parent="1" source="NJSE71hC_PdKQ5q1DnFO-59" target="NJSE71hC_PdKQ5q1DnFO-15">
          <mxGeometry relative="1" as="geometry">
            <Array as="points" />
          </mxGeometry>
        </mxCell>
        <mxCell id="NJSE71hC_PdKQ5q1DnFO-127" value="" style="curved=1;startArrow=none;endArrow=block;exitX=1;exitY=0.94;entryX=0.5;entryY=-0.01;rounded=0;sketch=1;hachureGap=4;jiggle=2;curveFitting=1;fontFamily=Architects Daughter;fontSource=https%3A%2F%2Ffonts.googleapis.com%2Fcss%3Ffamily%3DArchitects%2BDaughter;" edge="1" parent="1" source="NJSE71hC_PdKQ5q1DnFO-59" target="NJSE71hC_PdKQ5q1DnFO-16">
          <mxGeometry relative="1" as="geometry">
            <Array as="points">
              <mxPoint x="2161" y="272" />
            </Array>
          </mxGeometry>
        </mxCell>
        <mxCell id="NJSE71hC_PdKQ5q1DnFO-128" value="" style="curved=1;startArrow=none;endArrow=block;exitX=0;exitY=0.91;entryX=0.5;entryY=-0.01;rounded=0;sketch=1;hachureGap=4;jiggle=2;curveFitting=1;fontFamily=Architects Daughter;fontSource=https%3A%2F%2Ffonts.googleapis.com%2Fcss%3Ffamily%3DArchitects%2BDaughter;" edge="1" parent="1" source="NJSE71hC_PdKQ5q1DnFO-60" target="NJSE71hC_PdKQ5q1DnFO-10">
          <mxGeometry relative="1" as="geometry">
            <Array as="points">
              <mxPoint x="1244" y="272" />
            </Array>
          </mxGeometry>
        </mxCell>
        <mxCell id="NJSE71hC_PdKQ5q1DnFO-129" value="" style="curved=1;startArrow=none;endArrow=block;exitX=0.5;exitY=0.99;entryX=0.5;entryY=-0.01;rounded=0;sketch=1;hachureGap=4;jiggle=2;curveFitting=1;fontFamily=Architects Daughter;fontSource=https%3A%2F%2Ffonts.googleapis.com%2Fcss%3Ffamily%3DArchitects%2BDaughter;" edge="1" parent="1" source="NJSE71hC_PdKQ5q1DnFO-60" target="NJSE71hC_PdKQ5q1DnFO-11">
          <mxGeometry relative="1" as="geometry">
            <Array as="points" />
          </mxGeometry>
        </mxCell>
        <mxCell id="NJSE71hC_PdKQ5q1DnFO-130" value="" style="curved=1;startArrow=none;endArrow=block;exitX=1;exitY=0.91;entryX=0.5;entryY=-0.01;rounded=0;sketch=1;hachureGap=4;jiggle=2;curveFitting=1;fontFamily=Architects Daughter;fontSource=https%3A%2F%2Ffonts.googleapis.com%2Fcss%3Ffamily%3DArchitects%2BDaughter;" edge="1" parent="1" source="NJSE71hC_PdKQ5q1DnFO-60" target="NJSE71hC_PdKQ5q1DnFO-12">
          <mxGeometry relative="1" as="geometry">
            <Array as="points">
              <mxPoint x="1592" y="272" />
            </Array>
          </mxGeometry>
        </mxCell>
        <mxCell id="NJSE71hC_PdKQ5q1DnFO-131" value="" style="curved=1;startArrow=none;endArrow=block;exitX=0;exitY=0.91;entryX=0.49;entryY=-0.01;rounded=0;sketch=1;hachureGap=4;jiggle=2;curveFitting=1;fontFamily=Architects Daughter;fontSource=https%3A%2F%2Ffonts.googleapis.com%2Fcss%3Ffamily%3DArchitects%2BDaughter;" edge="1" parent="1" source="NJSE71hC_PdKQ5q1DnFO-61" target="NJSE71hC_PdKQ5q1DnFO-6">
          <mxGeometry relative="1" as="geometry">
            <Array as="points">
              <mxPoint x="696" y="272" />
            </Array>
          </mxGeometry>
        </mxCell>
        <mxCell id="NJSE71hC_PdKQ5q1DnFO-132" value="" style="curved=1;startArrow=none;endArrow=block;exitX=0.5;exitY=0.99;entryX=0.5;entryY=-0.01;rounded=0;sketch=1;hachureGap=4;jiggle=2;curveFitting=1;fontFamily=Architects Daughter;fontSource=https%3A%2F%2Ffonts.googleapis.com%2Fcss%3Ffamily%3DArchitects%2BDaughter;" edge="1" parent="1" source="NJSE71hC_PdKQ5q1DnFO-61" target="NJSE71hC_PdKQ5q1DnFO-7">
          <mxGeometry relative="1" as="geometry">
            <Array as="points" />
          </mxGeometry>
        </mxCell>
        <mxCell id="NJSE71hC_PdKQ5q1DnFO-133" value="" style="curved=1;startArrow=none;endArrow=block;exitX=1;exitY=0.92;entryX=0.49;entryY=-0.01;rounded=0;sketch=1;hachureGap=4;jiggle=2;curveFitting=1;fontFamily=Architects Daughter;fontSource=https%3A%2F%2Ffonts.googleapis.com%2Fcss%3Ffamily%3DArchitects%2BDaughter;" edge="1" parent="1" source="NJSE71hC_PdKQ5q1DnFO-61" target="NJSE71hC_PdKQ5q1DnFO-8">
          <mxGeometry relative="1" as="geometry">
            <Array as="points">
              <mxPoint x="1041" y="272" />
            </Array>
          </mxGeometry>
        </mxCell>
        <mxCell id="NJSE71hC_PdKQ5q1DnFO-134" value="" style="curved=1;startArrow=none;endArrow=block;exitX=0.04;exitY=0.99;entryX=0.5;entryY=-0.01;rounded=0;sketch=1;hachureGap=4;jiggle=2;curveFitting=1;fontFamily=Architects Daughter;fontSource=https%3A%2F%2Ffonts.googleapis.com%2Fcss%3Ffamily%3DArchitects%2BDaughter;" edge="1" parent="1" source="NJSE71hC_PdKQ5q1DnFO-62" target="NJSE71hC_PdKQ5q1DnFO-2">
          <mxGeometry relative="1" as="geometry">
            <Array as="points">
              <mxPoint x="128" y="272" />
            </Array>
          </mxGeometry>
        </mxCell>
        <mxCell id="NJSE71hC_PdKQ5q1DnFO-135" value="" style="curved=1;startArrow=none;endArrow=block;exitX=0.5;exitY=0.99;entryX=0.5;entryY=-0.01;rounded=0;sketch=1;hachureGap=4;jiggle=2;curveFitting=1;fontFamily=Architects Daughter;fontSource=https%3A%2F%2Ffonts.googleapis.com%2Fcss%3Ffamily%3DArchitects%2BDaughter;" edge="1" parent="1" source="NJSE71hC_PdKQ5q1DnFO-62" target="NJSE71hC_PdKQ5q1DnFO-3">
          <mxGeometry relative="1" as="geometry">
            <Array as="points" />
          </mxGeometry>
        </mxCell>
        <mxCell id="NJSE71hC_PdKQ5q1DnFO-136" value="" style="curved=1;startArrow=none;endArrow=block;exitX=0.96;exitY=0.99;entryX=0.5;entryY=-0.01;rounded=0;sketch=1;hachureGap=4;jiggle=2;curveFitting=1;fontFamily=Architects Daughter;fontSource=https%3A%2F%2Ffonts.googleapis.com%2Fcss%3Ffamily%3DArchitects%2BDaughter;" edge="1" parent="1" source="NJSE71hC_PdKQ5q1DnFO-62" target="NJSE71hC_PdKQ5q1DnFO-4">
          <mxGeometry relative="1" as="geometry">
            <Array as="points">
              <mxPoint x="481" y="272" />
            </Array>
          </mxGeometry>
        </mxCell>
        <UserObject label="" mermaidData="{&#xa;  &quot;data&quot;: &quot;\n\ngraph TD\n    A[com.finhub] --&gt; B[admin]\n    A --&gt; C[user]\n    A --&gt; D[library]\n\n    B --&gt; B1[user management]\n    B --&gt; B2[product management]\n    B --&gt; B3[system security]\n    B --&gt; B4[support helpdesk]\n\n    C --&gt; C1[user dashboard]\n    C --&gt; C2[personal finance management]\n    C --&gt; C3[investment management]\n    C --&gt; C4[transaction handling]\n    C --&gt; C5[credit scoring]\n\n    D --&gt; D1[security tools]\n    D --&gt; D2[utility functions]\n    D --&gt; D3[error handling]\n    D --&gt; D4[analytics tools]\n    D --&gt; D5[advisory algorithms]\n\n    %% Categories\n    subgraph \&quot;Admin Category\&quot;\n        B1\n        B2\n        B3\n        B4\n    end\n\n    subgraph \&quot;User Category\&quot;\n        C1\n        C2\n        C3\n        C4\n        C5\n    end\n\n    subgraph \&quot;Library Category\&quot;\n        D1\n        D2\n        D3\n        D4\n        D5\n    end\n\n    %% Subcategories\n    subgraph \&quot;User Management\&quot;\n        B1 --&gt; B11[user creation]\n        B1 --&gt; B12[user deletion]\n        B1 --&gt; B13[user update]\n    end\n\n    subgraph \&quot;Product Management\&quot;\n        B2 --&gt; B21[product creation]\n        B2 --&gt; B22[product deletion]\n        B2 --&gt; B23[product update]\n    end\n\n    subgraph \&quot;System Security\&quot;\n        B3 --&gt; B31[password management]\n        B3 --&gt; B32[access control]\n        B3 --&gt; B33[encryption]\n    end\n\n    subgraph \&quot;Support Helpdesk\&quot;\n        B4 --&gt; B41[ticket creation]\n        B4 --&gt; B42[ticket assignment]\n        B4 --&gt; B43[ticket resolution]\n    end\n\n    subgraph \&quot;User Dashboard\&quot;\n        C1 --&gt; C11[account overview]\n        C1 --&gt; C12[transaction history]\n        C1 --&gt; C13[account settings]\n    end\n\n    subgraph \&quot;Personal Finance Management\&quot;\n        C2 --&gt; C21[budgeting]\n        C2 --&gt; C22[expense tracking]\n        C2 --&gt; C23[investment tracking]\n    end\n\n    subgraph \&quot;Investment Management\&quot;\n        C3 --&gt; C31[investment portfolio]\n        C3 --&gt; C32[investment tracking]\n        C3 --&gt; C33[investment advice]\n    end\n\n    subgraph \&quot;Transaction Handling\&quot;\n        C4 --&gt; C41[transaction creation]\n        C4 --&gt; C42[transaction processing]\n        C4 --&gt; C43[transaction history]\n    end\n\n    subgraph \&quot;Credit Scoring\&quot;\n        C5 --&gt; C51[credit report]\n        C5 --&gt; C52[credit score calculation]\n        C5 --&gt; C53[credit score history]\n    end\n\n    subgraph \&quot;Security Tools\&quot;\n        D1 --&gt; D11[encryption]\n        D1 --&gt; D12[access control]\n        D1 --&gt; D13[password management]\n    end\n\n    subgraph \&quot;Utility Functions\&quot;\n        D2 --&gt; D21[data validation]\n        D2 --&gt; D22[data formatting]\n        D2 --&gt; D23[data conversion]\n    end\n\n    subgraph \&quot;Error Handling\&quot;\n        D3 --&gt; D31[error detection]\n        D3 --&gt; D32[error reporting]\n        D3 --&gt; D33[error resolution]\n    end\n\n    subgraph \&quot;Analytics Tools\&quot;\n        D4 --&gt; D41[data analysis]\n        D4 --&gt; D42[data visualization]\n        D4 --&gt; D43[data mining]\n    end\n\n    subgraph \&quot;Advisory Algorithms\&quot;\n        D5 --&gt; D51[investment advice]\n        D5 --&gt; D52[credit advice]\n        D5 --&gt; D53[financial planning]\n    end\n&quot;&#xa;}" id="NJSE71hC_PdKQ5q1DnFO-138">
          <mxCell style="shape=image;noLabel=1;verticalAlign=top;imageAspect=1;image=data:image/svg+xml,PHN2ZyBhcmlhLXJvbGVkZXNjcmlwdGlvbj0iZmxvd2NoYXJ0LXYyIiByb2xlPSJncmFwaGljcy1kb2N1bWVudCBkb2N1bWVudCIgdmlld0JveD0iLTggLTggODI0MS44NTU0Njg3NSA0MDEuNjM2MzUyNTM5MDYyNSIgc3R5bGU9Im1heC13aWR0aDogODI0MS44NTU0Njg3NXB4OyIgeG1sbnM9Imh0dHA6Ly93d3cudzMub3JnLzIwMDAvc3ZnIiB3aWR0aD0iMTAwJSIgaWQ9ImdlTWVybWFpZE91dHB1dC0xNzI1NTIyOTk3MTI4Ij48c3R5bGU+I2dlTWVybWFpZE91dHB1dC0xNzI1NTIyOTk3MTI4e2ZvbnQtZmFtaWx5OiJ0cmVidWNoZXQgbXMiLHZlcmRhbmEsYXJpYWwsc2Fucy1zZXJpZjtmb250LXNpemU6MTZweDtmaWxsOiMwMDAwMDA7fSNnZU1lcm1haWRPdXRwdXQtMTcyNTUyMjk5NzEyOCAuZXJyb3ItaWNvbntmaWxsOiM1NTIyMjI7fSNnZU1lcm1haWRPdXRwdXQtMTcyNTUyMjk5NzEyOCAuZXJyb3ItdGV4dHtmaWxsOiM1NTIyMjI7c3Ryb2tlOiM1NTIyMjI7fSNnZU1lcm1haWRPdXRwdXQtMTcyNTUyMjk5NzEyOCAuZWRnZS10aGlja25lc3Mtbm9ybWFse3N0cm9rZS13aWR0aDoycHg7fSNnZU1lcm1haWRPdXRwdXQtMTcyNTUyMjk5NzEyOCAuZWRnZS10aGlja25lc3MtdGhpY2t7c3Ryb2tlLXdpZHRoOjMuNXB4O30jZ2VNZXJtYWlkT3V0cHV0LTE3MjU1MjI5OTcxMjggLmVkZ2UtcGF0dGVybi1zb2xpZHtzdHJva2UtZGFzaGFycmF5OjA7fSNnZU1lcm1haWRPdXRwdXQtMTcyNTUyMjk5NzEyOCAuZWRnZS1wYXR0ZXJuLWRhc2hlZHtzdHJva2UtZGFzaGFycmF5OjM7fSNnZU1lcm1haWRPdXRwdXQtMTcyNTUyMjk5NzEyOCAuZWRnZS1wYXR0ZXJuLWRvdHRlZHtzdHJva2UtZGFzaGFycmF5OjI7fSNnZU1lcm1haWRPdXRwdXQtMTcyNTUyMjk5NzEyOCAubWFya2Vye2ZpbGw6IzY2NjtzdHJva2U6IzY2Njt9I2dlTWVybWFpZE91dHB1dC0xNzI1NTIyOTk3MTI4IC5tYXJrZXIuY3Jvc3N7c3Ryb2tlOiM2NjY7fSNnZU1lcm1haWRPdXRwdXQtMTcyNTUyMjk5NzEyOCBzdmd7Zm9udC1mYW1pbHk6InRyZWJ1Y2hldCBtcyIsdmVyZGFuYSxhcmlhbCxzYW5zLXNlcmlmO2ZvbnQtc2l6ZToxNnB4O30jZ2VNZXJtYWlkT3V0cHV0LTE3MjU1MjI5OTcxMjggLmxhYmVse2ZvbnQtZmFtaWx5OiJ0cmVidWNoZXQgbXMiLHZlcmRhbmEsYXJpYWwsc2Fucy1zZXJpZjtjb2xvcjojMDAwMDAwO30jZ2VNZXJtYWlkT3V0cHV0LTE3MjU1MjI5OTcxMjggLmNsdXN0ZXItbGFiZWwgdGV4dHtmaWxsOiMzMzM7fSNnZU1lcm1haWRPdXRwdXQtMTcyNTUyMjk5NzEyOCAuY2x1c3Rlci1sYWJlbCBzcGFuLCNnZU1lcm1haWRPdXRwdXQtMTcyNTUyMjk5NzEyOCBwe2NvbG9yOiMzMzM7fSNnZU1lcm1haWRPdXRwdXQtMTcyNTUyMjk5NzEyOCAubGFiZWwgdGV4dCwjZ2VNZXJtYWlkT3V0cHV0LTE3MjU1MjI5OTcxMjggc3BhbiwjZ2VNZXJtYWlkT3V0cHV0LTE3MjU1MjI5OTcxMjggcHtmaWxsOiMwMDAwMDA7Y29sb3I6IzAwMDAwMDt9I2dlTWVybWFpZE91dHB1dC0xNzI1NTIyOTk3MTI4IC5ub2RlIHJlY3QsI2dlTWVybWFpZE91dHB1dC0xNzI1NTIyOTk3MTI4IC5ub2RlIGNpcmNsZSwjZ2VNZXJtYWlkT3V0cHV0LTE3MjU1MjI5OTcxMjggLm5vZGUgZWxsaXBzZSwjZ2VNZXJtYWlkT3V0cHV0LTE3MjU1MjI5OTcxMjggLm5vZGUgcG9seWdvbiwjZ2VNZXJtYWlkT3V0cHV0LTE3MjU1MjI5OTcxMjggLm5vZGUgcGF0aHtmaWxsOiNlZWU7c3Ryb2tlOiM5OTk7c3Ryb2tlLXdpZHRoOjFweDt9I2dlTWVybWFpZE91dHB1dC0xNzI1NTIyOTk3MTI4IC5mbG93Y2hhcnQtbGFiZWwgdGV4dHt0ZXh0LWFuY2hvcjptaWRkbGU7fSNnZU1lcm1haWRPdXRwdXQtMTcyNTUyMjk5NzEyOCAubm9kZSAua2F0ZXggcGF0aHtmaWxsOiMwMDA7c3Ryb2tlOiMwMDA7c3Ryb2tlLXdpZHRoOjFweDt9I2dlTWVybWFpZE91dHB1dC0xNzI1NTIyOTk3MTI4IC5ub2RlIC5sYWJlbHt0ZXh0LWFsaWduOmNlbnRlcjt9I2dlTWVybWFpZE91dHB1dC0xNzI1NTIyOTk3MTI4IC5ub2RlLmNsaWNrYWJsZXtjdXJzb3I6cG9pbnRlcjt9I2dlTWVybWFpZE91dHB1dC0xNzI1NTIyOTk3MTI4IC5hcnJvd2hlYWRQYXRoe2ZpbGw6IzMzMzMzMzt9I2dlTWVybWFpZE91dHB1dC0xNzI1NTIyOTk3MTI4IC5lZGdlUGF0aCAucGF0aHtzdHJva2U6IzY2NjtzdHJva2Utd2lkdGg6Mi4wcHg7fSNnZU1lcm1haWRPdXRwdXQtMTcyNTUyMjk5NzEyOCAuZmxvd2NoYXJ0LWxpbmt7c3Ryb2tlOiM2NjY7ZmlsbDpub25lO30jZ2VNZXJtYWlkT3V0cHV0LTE3MjU1MjI5OTcxMjggLmVkZ2VMYWJlbHtiYWNrZ3JvdW5kLWNvbG9yOndoaXRlO3RleHQtYWxpZ246Y2VudGVyO30jZ2VNZXJtYWlkT3V0cHV0LTE3MjU1MjI5OTcxMjggLmVkZ2VMYWJlbCByZWN0e29wYWNpdHk6MC41O2JhY2tncm91bmQtY29sb3I6d2hpdGU7ZmlsbDp3aGl0ZTt9I2dlTWVybWFpZE91dHB1dC0xNzI1NTIyOTk3MTI4IC5sYWJlbEJrZ3tiYWNrZ3JvdW5kLWNvbG9yOnJnYmEoMjU1LCAyNTUsIDI1NSwgMC41KTt9I2dlTWVybWFpZE91dHB1dC0xNzI1NTIyOTk3MTI4IC5jbHVzdGVyIHJlY3R7ZmlsbDpoc2woMCwgMCUsIDk4LjkyMTU2ODYyNzUlKTtzdHJva2U6IzcwNzA3MDtzdHJva2Utd2lkdGg6MXB4O30jZ2VNZXJtYWlkT3V0cHV0LTE3MjU1MjI5OTcxMjggLmNsdXN0ZXIgdGV4dHtmaWxsOiMzMzM7fSNnZU1lcm1haWRPdXRwdXQtMTcyNTUyMjk5NzEyOCAuY2x1c3RlciBzcGFuLCNnZU1lcm1haWRPdXRwdXQtMTcyNTUyMjk5NzEyOCBwe2NvbG9yOiMzMzM7fSNnZU1lcm1haWRPdXRwdXQtMTcyNTUyMjk5NzEyOCBkaXYubWVybWFpZFRvb2x0aXB7cG9zaXRpb246YWJzb2x1dGU7dGV4dC1hbGlnbjpjZW50ZXI7bWF4LXdpZHRoOjIwMHB4O3BhZGRpbmc6MnB4O2ZvbnQtZmFtaWx5OiJ0cmVidWNoZXQgbXMiLHZlcmRhbmEsYXJpYWwsc2Fucy1zZXJpZjtmb250LXNpemU6MTJweDtiYWNrZ3JvdW5kOmhzbCgtMTYwLCAwJSwgOTMuMzMzMzMzMzMzMyUpO2JvcmRlcjoxcHggc29saWQgIzcwNzA3MDtib3JkZXItcmFkaXVzOjJweDtwb2ludGVyLWV2ZW50czpub25lO3otaW5kZXg6MTAwO30jZ2VNZXJtYWlkT3V0cHV0LTE3MjU1MjI5OTcxMjggLmZsb3djaGFydFRpdGxlVGV4dHt0ZXh0LWFuY2hvcjptaWRkbGU7Zm9udC1zaXplOjE4cHg7ZmlsbDojMDAwMDAwO30jZ2VNZXJtYWlkT3V0cHV0LTE3MjU1MjI5OTcxMjggOnJvb3R7LS1tZXJtYWlkLWZvbnQtZmFtaWx5OiJ0cmVidWNoZXQgbXMiLHZlcmRhbmEsYXJpYWwsc2Fucy1zZXJpZjt9PC9zdHlsZT48Zz48bWFya2VyIG9yaWVudD0iYXV0byIgbWFya2VySGVpZ2h0PSIxMiIgbWFya2VyV2lkdGg9IjEyIiBtYXJrZXJVbml0cz0idXNlclNwYWNlT25Vc2UiIHJlZlk9IjUiIHJlZlg9IjYiIHZpZXdCb3g9IjAgMCAxMCAxMCIgY2xhc3M9Im1hcmtlciBmbG93Y2hhcnQiIGlkPSJnZU1lcm1haWRPdXRwdXQtMTcyNTUyMjk5NzEyOF9mbG93Y2hhcnQtcG9pbnRFbmQiPjxwYXRoIHN0eWxlPSJzdHJva2Utd2lkdGg6IDE7IHN0cm9rZS1kYXNoYXJyYXk6IDEsIDA7IiBjbGFzcz0iYXJyb3dNYXJrZXJQYXRoIiBkPSJNIDAgMCBMIDEwIDUgTCAwIDEwIHoiPjwvcGF0aD48L21hcmtlcj48bWFya2VyIG9yaWVudD0iYXV0byIgbWFya2VySGVpZ2h0PSIxMiIgbWFya2VyV2lkdGg9IjEyIiBtYXJrZXJVbml0cz0idXNlclNwYWNlT25Vc2UiIHJlZlk9IjUiIHJlZlg9IjQuNSIgdmlld0JveD0iMCAwIDEwIDEwIiBjbGFzcz0ibWFya2VyIGZsb3djaGFydCIgaWQ9ImdlTWVybWFpZE91dHB1dC0xNzI1NTIyOTk3MTI4X2Zsb3djaGFydC1wb2ludFN0YXJ0Ij48cGF0aCBzdHlsZT0ic3Ryb2tlLXdpZHRoOiAxOyBzdHJva2UtZGFzaGFycmF5OiAxLCAwOyIgY2xhc3M9ImFycm93TWFya2VyUGF0aCIgZD0iTSAwIDUgTCAxMCAxMCBMIDEwIDAgeiI+PC9wYXRoPjwvbWFya2VyPjxtYXJrZXIgb3JpZW50PSJhdXRvIiBtYXJrZXJIZWlnaHQ9IjExIiBtYXJrZXJXaWR0aD0iMTEiIG1hcmtlclVuaXRzPSJ1c2VyU3BhY2VPblVzZSIgcmVmWT0iNSIgcmVmWD0iMTEiIHZpZXdCb3g9IjAgMCAxMCAxMCIgY2xhc3M9Im1hcmtlciBmbG93Y2hhcnQiIGlkPSJnZU1lcm1haWRPdXRwdXQtMTcyNTUyMjk5NzEyOF9mbG93Y2hhcnQtY2lyY2xlRW5kIj48Y2lyY2xlIHN0eWxlPSJzdHJva2Utd2lkdGg6IDE7IHN0cm9rZS1kYXNoYXJyYXk6IDEsIDA7IiBjbGFzcz0iYXJyb3dNYXJrZXJQYXRoIiByPSI1IiBjeT0iNSIgY3g9IjUiPjwvY2lyY2xlPjwvbWFya2VyPjxtYXJrZXIgb3JpZW50PSJhdXRvIiBtYXJrZXJIZWlnaHQ9IjExIiBtYXJrZXJXaWR0aD0iMTEiIG1hcmtlclVuaXRzPSJ1c2VyU3BhY2VPblVzZSIgcmVmWT0iNSIgcmVmWD0iLTEiIHZpZXdCb3g9IjAgMCAxMCAxMCIgY2xhc3M9Im1hcmtlciBmbG93Y2hhcnQiIGlkPSJnZU1lcm1haWRPdXRwdXQtMTcyNTUyMjk5NzEyOF9mbG93Y2hhcnQtY2lyY2xlU3RhcnQiPjxjaXJjbGUgc3R5bGU9InN0cm9rZS13aWR0aDogMTsgc3Ryb2tlLWRhc2hhcnJheTogMSwgMDsiIGNsYXNzPSJhcnJvd01hcmtlclBhdGgiIHI9IjUiIGN5PSI1IiBjeD0iNSI+PC9jaXJjbGU+PC9tYXJrZXI+PG1hcmtlciBvcmllbnQ9ImF1dG8iIG1hcmtlckhlaWdodD0iMTEiIG1hcmtlcldpZHRoPSIxMSIgbWFya2VyVW5pdHM9InVzZXJTcGFjZU9uVXNlIiByZWZZPSI1LjIiIHJlZlg9IjEyIiB2aWV3Qm94PSIwIDAgMTEgMTEiIGNsYXNzPSJtYXJrZXIgY3Jvc3MgZmxvd2NoYXJ0IiBpZD0iZ2VNZXJtYWlkT3V0cHV0LTE3MjU1MjI5OTcxMjhfZmxvd2NoYXJ0LWNyb3NzRW5kIj48cGF0aCBzdHlsZT0ic3Ryb2tlLXdpZHRoOiAyOyBzdHJva2UtZGFzaGFycmF5OiAxLCAwOyIgY2xhc3M9ImFycm93TWFya2VyUGF0aCIgZD0iTSAxLDEgbCA5LDkgTSAxMCwxIGwgLTksOSI+PC9wYXRoPjwvbWFya2VyPjxtYXJrZXIgb3JpZW50PSJhdXRvIiBtYXJrZXJIZWlnaHQ9IjExIiBtYXJrZXJXaWR0aD0iMTEiIG1hcmtlclVuaXRzPSJ1c2VyU3BhY2VPblVzZSIgcmVmWT0iNS4yIiByZWZYPSItMSIgdmlld0JveD0iMCAwIDExIDExIiBjbGFzcz0ibWFya2VyIGNyb3NzIGZsb3djaGFydCIgaWQ9ImdlTWVybWFpZE91dHB1dC0xNzI1NTIyOTk3MTI4X2Zsb3djaGFydC1jcm9zc1N0YXJ0Ij48cGF0aCBzdHlsZT0ic3Ryb2tlLXdpZHRoOiAyOyBzdHJva2UtZGFzaGFycmF5OiAxLCAwOyIgY2xhc3M9ImFycm93TWFya2VyUGF0aCIgZD0iTSAxLDEgbCA5LDkgTSAxMCwxIGwgLTksOSI+PC9wYXRoPjwvbWFya2VyPjxnIGNsYXNzPSJyb290Ij48ZyBjbGFzcz0iY2x1c3RlcnMiPjxnIGlkPSJzdWJHcmFwaDE2IiBjbGFzcz0iY2x1c3RlciBkZWZhdWx0IGZsb3djaGFydC1sYWJlbCI+PHJlY3QgaGVpZ2h0PSI4My45MDkwOTE5NDk0NjI4OSIgd2lkdGg9IjU2Ny41MTIwNzczMzE1NDMiIHk9IjMwMS43MjcyNzU4NDgzODg3IiB4PSIwIiByeT0iMCIgcng9IjAiIHN0eWxlPSIiPjwvcmVjdD48ZyB0cmFuc2Zvcm09InRyYW5zbGF0ZSgyODMuNzU2MDM4NjY1NzcxNSwgMzAxLjcyNzI3NTg0ODM4ODcpIiBjbGFzcz0iY2x1c3Rlci1sYWJlbCI+PHRleHQgc3R5bGU9IiI+PHRzcGFuIGNsYXNzPSJyb3ciIHg9IjAiIGR5PSIxZW0iIHhtbDpzcGFjZT0icHJlc2VydmUiPkFkdmlzb3J5IEFsZ29yaXRobXM8L3RzcGFuPjwvdGV4dD48L2c+PC9nPjxnIGlkPSJzdWJHcmFwaDE1IiBjbGFzcz0iY2x1c3RlciBkZWZhdWx0IGZsb3djaGFydC1sYWJlbCI+PHJlY3QgaGVpZ2h0PSI4My45MDkwOTE5NDk0NjI4OSIgd2lkdGg9IjUxOC44ODkyMTM1NjIwMTE3IiB5PSIzMDEuNzI3Mjc1ODQ4Mzg4NyIgeD0iNTg3LjUxMjA3NzMzMTU0MyIgcnk9IjAiIHJ4PSIwIiBzdHlsZT0iIj48L3JlY3Q+PGcgdHJhbnNmb3JtPSJ0cmFuc2xhdGUoODQ2Ljk1NjY4NDExMjU0ODgsIDMwMS43MjcyNzU4NDgzODg3KSIgY2xhc3M9ImNsdXN0ZXItbGFiZWwiPjx0ZXh0IHN0eWxlPSIiPjx0c3BhbiBjbGFzcz0icm93IiB4PSIwIiBkeT0iMWVtIiB4bWw6c3BhY2U9InByZXNlcnZlIj5BbmFseXRpY3MgVG9vbHM8L3RzcGFuPjwvdGV4dD48L2c+PC9nPjxnIGlkPSJzdWJHcmFwaDE0IiBjbGFzcz0iY2x1c3RlciBkZWZhdWx0IGZsb3djaGFydC1sYWJlbCI+PHJlY3QgaGVpZ2h0PSI4My45MDkwOTE5NDk0NjI4OSIgd2lkdGg9IjU0NC4yOTU0NDgzMDMyMjI3IiB5PSIzMDEuNzI3Mjc1ODQ4Mzg4NyIgeD0iMTEyNi40MDEyOTA4OTM1NTQ3IiByeT0iMCIgcng9IjAiIHN0eWxlPSIiPjwvcmVjdD48ZyB0cmFuc2Zvcm09InRyYW5zbGF0ZSgxMzk4LjU0OTAxNTA0NTE2NiwgMzAxLjcyNzI3NTg0ODM4ODcpIiBjbGFzcz0iY2x1c3Rlci1sYWJlbCI+PHRleHQgc3R5bGU9IiI+PHRzcGFuIGNsYXNzPSJyb3ciIHg9IjAiIGR5PSIxZW0iIHhtbDpzcGFjZT0icHJlc2VydmUiPkVycm9yIEhhbmRsaW5nPC90c3Bhbj48L3RleHQ+PC9nPjwvZz48ZyBpZD0ic3ViR3JhcGgxMyIgY2xhc3M9ImNsdXN0ZXIgZGVmYXVsdCBmbG93Y2hhcnQtbGFiZWwiPjxyZWN0IGhlaWdodD0iODMuOTA5MDkxOTQ5NDYyODkiIHdpZHRoPSI1NDkuNjAyMzAyNTUxMjY5NSIgeT0iMzAxLjcyNzI3NTg0ODM4ODciIHg9IjE2OTAuNjk2NzM5MTk2Nzc3MyIgcnk9IjAiIHJ4PSIwIiBzdHlsZT0iIj48L3JlY3Q+PGcgdHJhbnNmb3JtPSJ0cmFuc2xhdGUoMTk2NS40OTc4OTA0NzI0MTIsIDMwMS43MjcyNzU4NDgzODg3KSIgY2xhc3M9ImNsdXN0ZXItbGFiZWwiPjx0ZXh0IHN0eWxlPSIiPjx0c3BhbiBjbGFzcz0icm93IiB4PSIwIiBkeT0iMWVtIiB4bWw6c3BhY2U9InByZXNlcnZlIj5VdGlsaXR5IEZ1bmN0aW9uczwvdHNwYW4+PC90ZXh0PjwvZz48L2c+PGcgaWQ9InN1YkdyYXBoMTIiIGNsYXNzPSJjbHVzdGVyIGRlZmF1bHQgZmxvd2NoYXJ0LWxhYmVsIj48cmVjdCBoZWlnaHQ9IjgzLjkwOTA5MTk0OTQ2Mjg5IiB3aWR0aD0iNTU3LjE0MjA1MTY5Njc3NzMiIHk9IjMwMS43MjcyNzU4NDgzODg3IiB4PSIyMjYwLjI5OTA0MTc0ODA0NyIgcnk9IjAiIHJ4PSIwIiBzdHlsZT0iIj48L3JlY3Q+PGcgdHJhbnNmb3JtPSJ0cmFuc2xhdGUoMjUzOC44NzAwNjc1OTY0MzU1LCAzMDEuNzI3Mjc1ODQ4Mzg4NykiIGNsYXNzPSJjbHVzdGVyLWxhYmVsIj48dGV4dCBzdHlsZT0iIj48dHNwYW4gY2xhc3M9InJvdyIgeD0iMCIgZHk9IjFlbSIgeG1sOnNwYWNlPSJwcmVzZXJ2ZSI+U2VjdXJpdHkgVG9vbHM8L3RzcGFuPjwvdGV4dD48L2c+PC9nPjxnIGlkPSJzdWJHcmFwaDExIiBjbGFzcz0iY2x1c3RlciBkZWZhdWx0IGZsb3djaGFydC1sYWJlbCI+PHJlY3QgaGVpZ2h0PSI4My45MDkwOTE5NDk0NjI4OSIgd2lkdGg9IjYxNi4yMzQzNzUiIHk9IjMwMS43MjcyNzU4NDgzODg3IiB4PSIyODM3LjQ0MTA5MzQ0NDgyNCIgcnk9IjAiIHJ4PSIwIiBzdHlsZT0iIj48L3JlY3Q+PGcgdHJhbnNmb3JtPSJ0cmFuc2xhdGUoMzE0NS41NTgyODA5NDQ4MjQsIDMwMS43MjcyNzU4NDgzODg3KSIgY2xhc3M9ImNsdXN0ZXItbGFiZWwiPjx0ZXh0IHN0eWxlPSIiPjx0c3BhbiBjbGFzcz0icm93IiB4PSIwIiBkeT0iMWVtIiB4bWw6c3BhY2U9InByZXNlcnZlIj5DcmVkaXQgU2NvcmluZzwvdHNwYW4+PC90ZXh0PjwvZz48L2c+PGcgaWQ9InN1YkdyYXBoMTAiIGNsYXNzPSJjbHVzdGVyIGRlZmF1bHQgZmxvd2NoYXJ0LWxhYmVsIj48cmVjdCBoZWlnaHQ9IjgzLjkwOTA5MTk0OTQ2Mjg5IiB3aWR0aD0iNjU0LjgwNjgyMzczMDQ2ODgiIHk9IjMwMS43MjcyNzU4NDgzODg3IiB4PSIzNDczLjY3NTQ2ODQ0NDgyNCIgcnk9IjAiIHJ4PSIwIiBzdHlsZT0iIj48L3JlY3Q+PGcgdHJhbnNmb3JtPSJ0cmFuc2xhdGUoMzgwMS4wNzg4ODAzMTAwNTg2LCAzMDEuNzI3Mjc1ODQ4Mzg4NykiIGNsYXNzPSJjbHVzdGVyLWxhYmVsIj48dGV4dCBzdHlsZT0iIj48dHNwYW4gY2xhc3M9InJvdyIgeD0iMCIgZHk9IjFlbSIgeG1sOnNwYWNlPSJwcmVzZXJ2ZSI+VHJhbnNhY3Rpb24gSGFuZGxpbmc8L3RzcGFuPjwvdGV4dD48L2c+PC9nPjxnIGlkPSJzdWJHcmFwaDkiIGNsYXNzPSJjbHVzdGVyIGRlZmF1bHQgZmxvd2NoYXJ0LWxhYmVsIj48cmVjdCBoZWlnaHQ9IjgzLjkwOTA5MTk0OTQ2Mjg5IiB3aWR0aD0iNjM2LjA1ODk1OTk2MDkzNzUiIHk9IjMwMS43MjcyNzU4NDgzODg3IiB4PSI0MTQ4LjQ4MjI5MjE3NTI5MyIgcnk9IjAiIHJ4PSIwIiBzdHlsZT0iIj48L3JlY3Q+PGcgdHJhbnNmb3JtPSJ0cmFuc2xhdGUoNDQ2Ni41MTE3NzIxNTU3NjIsIDMwMS43MjcyNzU4NDgzODg3KSIgY2xhc3M9ImNsdXN0ZXItbGFiZWwiPjx0ZXh0IHN0eWxlPSIiPjx0c3BhbiBjbGFzcz0icm93IiB4PSIwIiBkeT0iMWVtIiB4bWw6c3BhY2U9InByZXNlcnZlIj5JbnZlc3RtZW50IE1hbmFnZW1lbnQ8L3RzcGFuPjwvdGV4dD48L2c+PC9nPjxnIGlkPSJzdWJHcmFwaDgiIGNsYXNzPSJjbHVzdGVyIGRlZmF1bHQgZmxvd2NoYXJ0LWxhYmVsIj48cmVjdCBoZWlnaHQ9IjgzLjkwOTA5MTk0OTQ2Mjg5IiB3aWR0aD0iNTUwLjM3NTAxNTI1ODc4OTEiIHk9IjMwMS43MjcyNzU4NDgzODg3IiB4PSI0ODA0LjU0MTI1MjEzNjIzMDUiIHJ5PSIwIiByeD0iMCIgc3R5bGU9IiI+PC9yZWN0PjxnIHRyYW5zZm9ybT0idHJhbnNsYXRlKDUwNzkuNzI4NzU5NzY1NjI1LCAzMDEuNzI3Mjc1ODQ4Mzg4NykiIGNsYXNzPSJjbHVzdGVyLWxhYmVsIj48dGV4dCBzdHlsZT0iIj48dHNwYW4gY2xhc3M9InJvdyIgeD0iMCIgZHk9IjFlbSIgeG1sOnNwYWNlPSJwcmVzZXJ2ZSI+UGVyc29uYWwgRmluYW5jZSBNYW5hZ2VtZW50PC90c3Bhbj48L3RleHQ+PC9nPjwvZz48ZyBpZD0ic3ViR3JhcGg3IiBjbGFzcz0iY2x1c3RlciBkZWZhdWx0IGZsb3djaGFydC1sYWJlbCI+PHJlY3QgaGVpZ2h0PSI4My45MDkwOTE5NDk0NjI4OSIgd2lkdGg9IjU5My4wOTY1ODgxMzQ3NjU2IiB5PSIzMDEuNzI3Mjc1ODQ4Mzg4NyIgeD0iNTM3NC45MTYyNjczOTUwMTk1IiByeT0iMCIgcng9IjAiIHN0eWxlPSIiPjwvcmVjdD48ZyB0cmFuc2Zvcm09InRyYW5zbGF0ZSg1NjcxLjQ2NDU2MTQ2MjQwMiwgMzAxLjcyNzI3NTg0ODM4ODcpIiBjbGFzcz0iY2x1c3Rlci1sYWJlbCI+PHRleHQgc3R5bGU9IiI+PHRzcGFuIGNsYXNzPSJyb3ciIHg9IjAiIGR5PSIxZW0iIHhtbDpzcGFjZT0icHJlc2VydmUiPlVzZXIgRGFzaGJvYXJkPC90c3Bhbj48L3RleHQ+PC9nPjwvZz48ZyBpZD0ic3ViR3JhcGg2IiBjbGFzcz0iY2x1c3RlciBkZWZhdWx0IGZsb3djaGFydC1sYWJlbCI+PHJlY3QgaGVpZ2h0PSI4My45MDkwOTE5NDk0NjI4OSIgd2lkdGg9IjU2Ni41ODY2NDcwMzM2OTE0IiB5PSIzMDEuNzI3Mjc1ODQ4Mzg4NyIgeD0iNTk4OC4wMTI4NTU1Mjk3ODUiIHJ5PSIwIiByeD0iMCIgc3R5bGU9IiI+PC9yZWN0PjxnIHRyYW5zZm9ybT0idHJhbnNsYXRlKDYyNzEuMzA2MTc5MDQ2NjMxLCAzMDEuNzI3Mjc1ODQ4Mzg4NykiIGNsYXNzPSJjbHVzdGVyLWxhYmVsIj48dGV4dCBzdHlsZT0iIj48dHNwYW4gY2xhc3M9InJvdyIgeD0iMCIgZHk9IjFlbSIgeG1sOnNwYWNlPSJwcmVzZXJ2ZSI+U3VwcG9ydCBIZWxwZGVzazwvdHNwYW4+PC90ZXh0PjwvZz48L2c+PGcgaWQ9InN1YkdyYXBoNSIgY2xhc3M9ImNsdXN0ZXIgZGVmYXVsdCBmbG93Y2hhcnQtbGFiZWwiPjxyZWN0IGhlaWdodD0iODMuOTA5MDkxOTQ5NDYyODkiIHdpZHRoPSI1NTcuMTQyMDUxNjk2Nzc3MyIgeT0iMzAxLjcyNzI3NTg0ODM4ODciIHg9IjY1NzQuNTk5NTAyNTYzNDc3IiByeT0iMCIgcng9IjAiIHN0eWxlPSIiPjwvcmVjdD48ZyB0cmFuc2Zvcm09InRyYW5zbGF0ZSg2ODUzLjE3MDUyODQxMTg2NSwgMzAxLjcyNzI3NTg0ODM4ODcpIiBjbGFzcz0iY2x1c3Rlci1sYWJlbCI+PHRleHQgc3R5bGU9IiI+PHRzcGFuIGNsYXNzPSJyb3ciIHg9IjAiIGR5PSIxZW0iIHhtbDpzcGFjZT0icHJlc2VydmUiPlN5c3RlbSBTZWN1cml0eTwvdHNwYW4+PC90ZXh0PjwvZz48L2c+PGcgaWQ9InN1YkdyYXBoNCIgY2xhc3M9ImNsdXN0ZXIgZGVmYXVsdCBmbG93Y2hhcnQtbGFiZWwiPjxyZWN0IGhlaWdodD0iODMuOTA5MDkxOTQ5NDYyODkiIHdpZHRoPSI1NjUuMjcyNzI3OTY2MzA4NiIgeT0iMzAxLjcyNzI3NTg0ODM4ODciIHg9IjcxNTEuNzQxNTU0MjYwMjU0IiByeT0iMCIgcng9IjAiIHN0eWxlPSIiPjwvcmVjdD48ZyB0cmFuc2Zvcm09InRyYW5zbGF0ZSg3NDM0LjM3NzkxODI0MzQwOCwgMzAxLjcyNzI3NTg0ODM4ODcpIiBjbGFzcz0iY2x1c3Rlci1sYWJlbCI+PHRleHQgc3R5bGU9IiI+PHRzcGFuIGNsYXNzPSJyb3ciIHg9IjAiIGR5PSIxZW0iIHhtbDpzcGFjZT0icHJlc2VydmUiPlByb2R1Y3QgTWFuYWdlbWVudDwvdHNwYW4+PC90ZXh0PjwvZz48L2c+PGcgaWQ9InN1YkdyYXBoMyIgY2xhc3M9ImNsdXN0ZXIgZGVmYXVsdCBmbG93Y2hhcnQtbGFiZWwiPjxyZWN0IGhlaWdodD0iODMuOTA5MDkxOTQ5NDYyODkiIHdpZHRoPSI0ODguODQwOTA0MjM1ODM5ODQiIHk9IjMwMS43MjcyNzU4NDgzODg3IiB4PSI3NzM3LjAxNDI4MjIyNjU2MjUiIHJ5PSIwIiByeD0iMCIgc3R5bGU9IiI+PC9yZWN0PjxnIHRyYW5zZm9ybT0idHJhbnNsYXRlKDc5ODEuNDM0NzM0MzQ0NDgyLCAzMDEuNzI3Mjc1ODQ4Mzg4NykiIGNsYXNzPSJjbHVzdGVyLWxhYmVsIj48dGV4dCBzdHlsZT0iIj48dHNwYW4gY2xhc3M9InJvdyIgeD0iMCIgZHk9IjFlbSIgeG1sOnNwYWNlPSJwcmVzZXJ2ZSI+VXNlciBNYW5hZ2VtZW50PC90c3Bhbj48L3RleHQ+PC9nPjwvZz48ZyBpZD0ic3ViR3JhcGgyIiBjbGFzcz0iY2x1c3RlciBkZWZhdWx0IGZsb3djaGFydC1sYWJlbCI+PHJlY3QgaGVpZ2h0PSI4My45MDkwOTE5NDk0NjI4OSIgd2lkdGg9IjI2NDcuMTkwOTEwMzM5MzU1NSIgeT0iMTY3LjgxODE4Mzg5ODkyNTc4IiB4PSI2Ny45ODg2Mzk4MzE1NDI5NyIgcnk9IjAiIHJ4PSIwIiBzdHlsZT0iIj48L3JlY3Q+PGcgdHJhbnNmb3JtPSJ0cmFuc2xhdGUoMTM5MS41ODQwOTUwMDEyMjA3LCAxNjcuODE4MTgzODk4OTI1NzgpIiBjbGFzcz0iY2x1c3Rlci1sYWJlbCI+PHRleHQgc3R5bGU9IiI+PHRzcGFuIGNsYXNzPSJyb3ciIHg9IjAiIGR5PSIxZW0iIHhtbDpzcGFjZT0icHJlc2VydmUiPkxpYnJhcnkgQ2F0ZWdvcnk8L3RzcGFuPjwvdGV4dD48L2c+PC9nPjxnIGlkPSJzdWJHcmFwaDEiIGNsYXNzPSJjbHVzdGVyIGRlZmF1bHQgZmxvd2NoYXJ0LWxhYmVsIj48cmVjdCBoZWlnaHQ9IjgzLjkwOTA5MTk0OTQ2Mjg5IiB3aWR0aD0iMzAwMi42MjczMzQ1OTQ3MjY2IiB5PSIxNjcuODE4MTgzODk4OTI1NzgiIHg9IjI4ODYuMjk5NzU4OTExMTMzIiByeT0iMCIgcng9IjAiIHN0eWxlPSIiPjwvcmVjdD48ZyB0cmFuc2Zvcm09InRyYW5zbGF0ZSg0Mzg3LjYxMzQyNjIwODQ5NiwgMTY3LjgxODE4Mzg5ODkyNTc4KSIgY2xhc3M9ImNsdXN0ZXItbGFiZWwiPjx0ZXh0IHN0eWxlPSIiPjx0c3BhbiBjbGFzcz0icm93IiB4PSIwIiBkeT0iMWVtIiB4bWw6c3BhY2U9InByZXNlcnZlIj5Vc2VyIENhdGVnb3J5PC90c3Bhbj48L3RleHQ+PC9nPjwvZz48ZyBpZD0ic3ViR3JhcGgwIiBjbGFzcz0iY2x1c3RlciBkZWZhdWx0IGZsb3djaGFydC1sYWJlbCI+PHJlY3QgaGVpZ2h0PSI4My45MDkwOTE5NDk0NjI4OSIgd2lkdGg9IjIxMTkuMjE0MzEzNTA3MDgiIHk9IjE2Ny44MTgxODM4OTg5MjU3OCIgeD0iNjA0My42NjYyNjM1ODAzMjIiIHJ5PSIwIiByeD0iMCIgc3R5bGU9IiI+PC9yZWN0PjxnIHRyYW5zZm9ybT0idHJhbnNsYXRlKDcxMDMuMjczNDIwMzMzODYyLCAxNjcuODE4MTgzODk4OTI1NzgpIiBjbGFzcz0iY2x1c3Rlci1sYWJlbCI+PHRleHQgc3R5bGU9IiI+PHRzcGFuIGNsYXNzPSJyb3ciIHg9IjAiIGR5PSIxZW0iIHhtbDpzcGFjZT0icHJlc2VydmUiPkFkbWluIENhdGVnb3J5PC90c3Bhbj48L3RleHQ+PC9nPjwvZz48L2c+PGcgY2xhc3M9ImVkZ2VQYXRocyI+PHBhdGggbWFya2VyLWVuZD0idXJsKCNnZU1lcm1haWRPdXRwdXQtMTcyNTUyMjk5NzEyOF9mbG93Y2hhcnQtcG9pbnRFbmQpIiBzdHlsZT0iZmlsbDpub25lOyIgY2xhc3M9ImVkZ2UtdGhpY2tuZXNzLW5vcm1hbCBlZGdlLXBhdHRlcm4tc29saWQgZmxvd2NoYXJ0LWxpbmsgTFMtQSBMRS1CIiBpZD0iTC1BLUItMCIgZD0iTTQ1MjIuNzUxLDE3LjcwNEw0OTYzLjYwNiwyNC41NzJDNTQwNC40NiwzMS40MzksNjI4Ni4xNjksNDUuMTc0LDY3MjcuMDI0LDU1LjMyNUM3MTY3Ljg3OCw2NS40NzYsNzE2Ny44NzgsNzIuMDQyLDcxNjcuODc4LDc1LjMyNkw3MTY3Ljg3OCw3OC42MDkiPjwvcGF0aD48cGF0aCBtYXJrZXItZW5kPSJ1cmwoI2dlTWVybWFpZE91dHB1dC0xNzI1NTIyOTk3MTI4X2Zsb3djaGFydC1wb2ludEVuZCkiIHN0eWxlPSJmaWxsOm5vbmU7IiBjbGFzcz0iZWRnZS10aGlja25lc3Mtbm9ybWFsIGVkZ2UtcGF0dGVybi1zb2xpZCBmbG93Y2hhcnQtbGluayBMUy1BIExFLUMiIGlkPSJMLUEtQy0wIiBkPSJNNDQ3NC42MDksMzMuOTA5TDQ0NzQuNjA5LDM4LjA3NkM0NDc0LjYwOSw0Mi4yNDIsNDQ3NC42MDksNTAuNTc2LDQ0NzQuNjA5LDU4LjAyNkM0NDc0LjYwOSw2NS40NzYsNDQ3NC42MDksNzIuMDQyLDQ0NzQuNjA5LDc1LjMyNkw0NDc0LjYwOSw3OC42MDkiPjwvcGF0aD48cGF0aCBtYXJrZXItZW5kPSJ1cmwoI2dlTWVybWFpZE91dHB1dC0xNzI1NTIyOTk3MTI4X2Zsb3djaGFydC1wb2ludEVuZCkiIHN0eWxlPSJmaWxsOm5vbmU7IiBjbGFzcz0iZWRnZS10aGlja25lc3Mtbm9ybWFsIGVkZ2UtcGF0dGVybi1zb2xpZCBmbG93Y2hhcnQtbGluayBMUy1BIExFLUQiIGlkPSJMLUEtRC0wIiBkPSJNNDQyNi40NjcsMTcuNjExTDM5MjEuNTc4LDI0LjQ5NEMzNDE2LjY4OCwzMS4zNzcsMjQwNi45MDgsNDUuMTQzLDE5MDIuMDE4LDU1LjMwOUMxMzk3LjEyOSw2NS40NzYsMTM5Ny4xMjksNzIuMDQyLDEzOTcuMTI5LDc1LjMyNkwxMzk3LjEyOSw3OC42MDkiPjwvcGF0aD48cGF0aCBtYXJrZXItZW5kPSJ1cmwoI2dlTWVybWFpZE91dHB1dC0xNzI1NTIyOTk3MTI4X2Zsb3djaGFydC1wb2ludEVuZCkiIHN0eWxlPSJmaWxsOm5vbmU7IiBjbGFzcz0iZWRnZS10aGlja25lc3Mtbm9ybWFsIGVkZ2UtcGF0dGVybi1zb2xpZCBmbG93Y2hhcnQtbGluayBMUy1CIExFLUIxIiBpZD0iTC1CLUIxLTAiIGQ9Ik03MTk3LjMzMiwxMDIuMzc0TDczMjguODA1LDEwOS4xMTVDNzQ2MC4yNzgsMTE1Ljg1NSw3NzIzLjIyMywxMjkuMzM3LDc4NTQuNjk1LDE0MC4yNDRDNzk4Ni4xNjgsMTUxLjE1Miw3OTg2LjE2OCwxNTkuNDg1LDc5ODYuMTY4LDE2Ni45MzVDNzk4Ni4xNjgsMTc0LjM4NSw3OTg2LjE2OCwxODAuOTUyLDc5ODYuMTY4LDE4NC4yMzVMNzk4Ni4xNjgsMTg3LjUxOCI+PC9wYXRoPjxwYXRoIG1hcmtlci1lbmQ9InVybCgjZ2VNZXJtYWlkT3V0cHV0LTE3MjU1MjI5OTcxMjhfZmxvd2NoYXJ0LXBvaW50RW5kKSIgc3R5bGU9ImZpbGw6bm9uZTsiIGNsYXNzPSJlZGdlLXRoaWNrbmVzcy1ub3JtYWwgZWRnZS1wYXR0ZXJuLXNvbGlkIGZsb3djaGFydC1saW5rIExTLUIgTEUtQjIiIGlkPSJMLUItQjItMCIgZD0iTTcxOTcuMzMyLDEwNS40Mkw3MjM3LjYyOSwxMTEuNjUzQzcyNzcuOTI1LDExNy44ODYsNzM1OC41MTgsMTMwLjM1Miw3Mzk4LjgxNCwxNDAuNzUyQzc0MzkuMTExLDE1MS4xNTIsNzQzOS4xMTEsMTU5LjQ4NSw3NDM5LjExMSwxNjYuOTM1Qzc0MzkuMTExLDE3NC4zODUsNzQzOS4xMTEsMTgwLjk1Miw3NDM5LjExMSwxODQuMjM1TDc0MzkuMTExLDE4Ny41MTgiPjwvcGF0aD48cGF0aCBtYXJrZXItZW5kPSJ1cmwoI2dlTWVybWFpZE91dHB1dC0xNzI1NTIyOTk3MTI4X2Zsb3djaGFydC1wb2ludEVuZCkiIHN0eWxlPSJmaWxsOm5vbmU7IiBjbGFzcz0iZWRnZS10aGlja25lc3Mtbm9ybWFsIGVkZ2UtcGF0dGVybi1zb2xpZCBmbG93Y2hhcnQtbGluayBMUy1CIExFLUIzIiBpZD0iTC1CLUIzLTAiIGQ9Ik03MTM4LjQyMywxMDUuNDJMNzA5OC4xMjcsMTExLjY1M0M3MDU3LjgzMSwxMTcuODg2LDY5NzcuMjM4LDEzMC4zNTIsNjkzNi45NDEsMTQwLjc1MkM2ODk2LjY0NSwxNTEuMTUyLDY4OTYuNjQ1LDE1OS40ODUsNjg5Ni42NDUsMTY2LjkzNUM2ODk2LjY0NSwxNzQuMzg1LDY4OTYuNjQ1LDE4MC45NTIsNjg5Ni42NDUsMTg0LjIzNUw2ODk2LjY0NSwxODcuNTE4Ij48L3BhdGg+PHBhdGggbWFya2VyLWVuZD0idXJsKCNnZU1lcm1haWRPdXRwdXQtMTcyNTUyMjk5NzEyOF9mbG93Y2hhcnQtcG9pbnRFbmQpIiBzdHlsZT0iZmlsbDpub25lOyIgY2xhc3M9ImVkZ2UtdGhpY2tuZXNzLW5vcm1hbCBlZGdlLXBhdHRlcm4tc29saWQgZmxvd2NoYXJ0LWxpbmsgTFMtQiBMRS1CNCIgaWQ9IkwtQi1CNC0wIiBkPSJNNzEzOC40MjMsMTAyLjIzM0w2OTkyLjg4OCwxMDguOTk3QzY4NDcuMzUyLDExNS43NjEsNjU1Ni4yODEsMTI5LjI5LDY0MTAuNzQ1LDE0MC4yMjFDNjI2NS4yMSwxNTEuMTUyLDYyNjUuMjEsMTU5LjQ4NSw2MjY1LjIxLDE2Ni45MzVDNjI2NS4yMSwxNzQuMzg1LDYyNjUuMjEsMTgwLjk1Miw2MjY1LjIxLDE4NC4yMzVMNjI2NS4yMSwxODcuNTE4Ij48L3BhdGg+PHBhdGggbWFya2VyLWVuZD0idXJsKCNnZU1lcm1haWRPdXRwdXQtMTcyNTUyMjk5NzEyOF9mbG93Y2hhcnQtcG9pbnRFbmQpIiBzdHlsZT0iZmlsbDpub25lOyIgY2xhc3M9ImVkZ2UtdGhpY2tuZXNzLW5vcm1hbCBlZGdlLXBhdHRlcm4tc29saWQgZmxvd2NoYXJ0LWxpbmsgTFMtQyBMRS1DMSIgaWQ9IkwtQy1DMS0wIiBkPSJNNDQ5Ny4zNTUsMTAxLjY1OEw0NjkzLjc5NywxMDguNTE4QzQ4OTAuMjM5LDExNS4zNzgsNTI4My4xMjMsMTI5LjA5OCw1NDc5LjU2NSwxNDAuMTI1QzU2NzYuMDA2LDE1MS4xNTIsNTY3Ni4wMDYsMTU5LjQ4NSw1Njc2LjAwNiwxNjYuOTM1QzU2NzYuMDA2LDE3NC4zODUsNTY3Ni4wMDYsMTgwLjk1Miw1Njc2LjAwNiwxODQuMjM1TDU2NzYuMDA2LDE4Ny41MTgiPjwvcGF0aD48cGF0aCBtYXJrZXItZW5kPSJ1cmwoI2dlTWVybWFpZE91dHB1dC0xNzI1NTIyOTk3MTI4X2Zsb3djaGFydC1wb2ludEVuZCkiIHN0eWxlPSJmaWxsOm5vbmU7IiBjbGFzcz0iZWRnZS10aGlja25lc3Mtbm9ybWFsIGVkZ2UtcGF0dGVybi1zb2xpZCBmbG93Y2hhcnQtbGluayBMUy1DIExFLUMyIiBpZD0iTC1DLUMyLTAiIGQ9Ik00NDk3LjM1NSwxMDIuNTRMNDU4OC40MjYsMTA5LjI1M0M0Njc5LjQ5NywxMTUuOTY2LDQ4NjEuNjM4LDEyOS4zOTIsNDk1Mi43MDksMTQwLjI3MkM1MDQzLjc4LDE1MS4xNTIsNTA0My43OCwxNTkuNDg1LDUwNDMuNzgsMTY2LjkzNUM1MDQzLjc4LDE3NC4zODUsNTA0My43OCwxODAuOTUyLDUwNDMuNzgsMTg0LjIzNUw1MDQzLjc4LDE4Ny41MTgiPjwvcGF0aD48cGF0aCBtYXJrZXItZW5kPSJ1cmwoI2dlTWVybWFpZE91dHB1dC0xNzI1NTIyOTk3MTI4X2Zsb3djaGFydC1wb2ludEVuZCkiIHN0eWxlPSJmaWxsOm5vbmU7IiBjbGFzcz0iZWRnZS10aGlja25lc3Mtbm9ybWFsIGVkZ2UtcGF0dGVybi1zb2xpZCBmbG93Y2hhcnQtbGluayBMUy1DIExFLUMzIiBpZD0iTC1DLUMzLTAiIGQ9Ik00NDc0LjYwOSwxMTcuODE4TDQ0NzQuNjA5LDEyMS45ODVDNDQ3NC42MDksMTI2LjE1Miw0NDc0LjYwOSwxMzQuNDg1LDQ0NzQuNjA5LDE0Mi44MThDNDQ3NC42MDksMTUxLjE1Miw0NDc0LjYwOSwxNTkuNDg1LDQ0NzQuNjA5LDE2Ni45MzVDNDQ3NC42MDksMTc0LjM4NSw0NDc0LjYwOSwxODAuOTUyLDQ0NzQuNjA5LDE4NC4yMzVMNDQ3NC42MDksMTg3LjUxOCI+PC9wYXRoPjxwYXRoIG1hcmtlci1lbmQ9InVybCgjZ2VNZXJtYWlkT3V0cHV0LTE3MjU1MjI5OTcxMjhfZmxvd2NoYXJ0LXBvaW50RW5kKSIgc3R5bGU9ImZpbGw6bm9uZTsiIGNsYXNzPSJlZGdlLXRoaWNrbmVzcy1ub3JtYWwgZWRnZS1wYXR0ZXJuLXNvbGlkIGZsb3djaGFydC1saW5rIExTLUMgTEUtQzQiIGlkPSJMLUMtQzQtMCIgZD0iTTQ0NTEuODY0LDEwMi4yOTJMNDM0NC4yODEsMTA5LjA0NkM0MjM2LjY5OSwxMTUuODAxLDQwMjEuNTM0LDEyOS4zMDksMzkxMy45NTEsMTQwLjIzQzM4MDYuMzY5LDE1MS4xNTIsMzgwNi4zNjksMTU5LjQ4NSwzODA2LjM2OSwxNjYuOTM1QzM4MDYuMzY5LDE3NC4zODUsMzgwNi4zNjksMTgwLjk1MiwzODA2LjM2OSwxODQuMjM1TDM4MDYuMzY5LDE4Ny41MTgiPjwvcGF0aD48cGF0aCBtYXJrZXItZW5kPSJ1cmwoI2dlTWVybWFpZE91dHB1dC0xNzI1NTIyOTk3MTI4X2Zsb3djaGFydC1wb2ludEVuZCkiIHN0eWxlPSJmaWxsOm5vbmU7IiBjbGFzcz0iZWRnZS10aGlja25lc3Mtbm9ybWFsIGVkZ2UtcGF0dGVybi1zb2xpZCBmbG93Y2hhcnQtbGluayBMUy1DIExFLUM1IiBpZD0iTC1DLUM1LTAiIGQ9Ik00NDUxLjg2NCwxMDEuNTY5TDQyMzAuMjc0LDEwOC40NDRDNDAwOC42ODQsMTE1LjMxOSwzNTY1LjUwMywxMjkuMDY5LDMzNDMuOTEzLDE0MC4xMUMzMTIyLjMyMywxNTEuMTUyLDMxMjIuMzIzLDE1OS40ODUsMzEyMi4zMjMsMTY2LjkzNUMzMTIyLjMyMywxNzQuMzg1LDMxMjIuMzIzLDE4MC45NTIsMzEyMi4zMjMsMTg0LjIzNUwzMTIyLjMyMywxODcuNTE4Ij48L3BhdGg+PHBhdGggbWFya2VyLWVuZD0idXJsKCNnZU1lcm1haWRPdXRwdXQtMTcyNTUyMjk5NzEyOF9mbG93Y2hhcnQtcG9pbnRFbmQpIiBzdHlsZT0iZmlsbDpub25lOyIgY2xhc3M9ImVkZ2UtdGhpY2tuZXNzLW5vcm1hbCBlZGdlLXBhdHRlcm4tc29saWQgZmxvd2NoYXJ0LWxpbmsgTFMtRCBMRS1EMSIgaWQ9IkwtRC1EMS0wIiBkPSJNMTQyOC4xNDgsMTAyLjA0OUwxNjA2LjAyMywxMDguODQ0QzE3ODMuODk3LDExNS42MzgsMjEzOS42NDYsMTI5LjIyOCwyMzE3LjUyMSwxNDAuMTlDMjQ5NS4zOTYsMTUxLjE1MiwyNDk1LjM5NiwxNTkuNDg1LDI0OTUuMzk2LDE2Ni45MzVDMjQ5NS4zOTYsMTc0LjM4NSwyNDk1LjM5NiwxODAuOTUyLDI0OTUuMzk2LDE4NC4yMzVMMjQ5NS4zOTYsMTg3LjUxOCI+PC9wYXRoPjxwYXRoIG1hcmtlci1lbmQ9InVybCgjZ2VNZXJtYWlkT3V0cHV0LTE3MjU1MjI5OTcxMjhfZmxvd2NoYXJ0LXBvaW50RW5kKSIgc3R5bGU9ImZpbGw6bm9uZTsiIGNsYXNzPSJlZGdlLXRoaWNrbmVzcy1ub3JtYWwgZWRnZS1wYXR0ZXJuLXNvbGlkIGZsb3djaGFydC1saW5rIExTLUQgTEUtRDIiIGlkPSJMLUQtRDItMCIgZD0iTTE0MjguMTQ4LDEwMy4xNjRMMTUxNy4yNjMsMTA5Ljc3M0MxNjA2LjM3OCwxMTYuMzgyLDE3ODQuNjA5LDEyOS42LDE4NzMuNzI0LDE0MC4zNzZDMTk2Mi44MzksMTUxLjE1MiwxOTYyLjgzOSwxNTkuNDg1LDE5NjIuODM5LDE2Ni45MzVDMTk2Mi44MzksMTc0LjM4NSwxOTYyLjgzOSwxODAuOTUyLDE5NjIuODM5LDE4NC4yMzVMMTk2Mi44MzksMTg3LjUxOCI+PC9wYXRoPjxwYXRoIG1hcmtlci1lbmQ9InVybCgjZ2VNZXJtYWlkT3V0cHV0LTE3MjU1MjI5OTcxMjhfZmxvd2NoYXJ0LXBvaW50RW5kKSIgc3R5bGU9ImZpbGw6bm9uZTsiIGNsYXNzPSJlZGdlLXRoaWNrbmVzcy1ub3JtYWwgZWRnZS1wYXR0ZXJuLXNvbGlkIGZsb3djaGFydC1saW5rIExTLUQgTEUtRDMiIGlkPSJMLUQtRDMtMCIgZD0iTTEzOTcuMTI5LDExNy44MThMMTM5Ny4xMjksMTIxLjk4NUMxMzk3LjEyOSwxMjYuMTUyLDEzOTcuMTI5LDEzNC40ODUsMTM5Ny4xMjksMTQyLjgxOEMxMzk3LjEyOSwxNTEuMTUyLDEzOTcuMTI5LDE1OS40ODUsMTM5Ny4xMjksMTY2LjkzNUMxMzk3LjEyOSwxNzQuMzg1LDEzOTcuMTI5LDE4MC45NTIsMTM5Ny4xMjksMTg0LjIzNUwxMzk3LjEyOSwxODcuNTE4Ij48L3BhdGg+PHBhdGggbWFya2VyLWVuZD0idXJsKCNnZU1lcm1haWRPdXRwdXQtMTcyNTUyMjk5NzEyOF9mbG93Y2hhcnQtcG9pbnRFbmQpIiBzdHlsZT0iZmlsbDpub25lOyIgY2xhc3M9ImVkZ2UtdGhpY2tuZXNzLW5vcm1hbCBlZGdlLXBhdHRlcm4tc29saWQgZmxvd2NoYXJ0LWxpbmsgTFMtRCBMRS1ENCIgaWQ9IkwtRC1ENC0wIiBkPSJNMTM2Ni4xMDksMTAzLjI0NkwxMjgwLjIzNSwxMDkuODQxQzExOTQuMzYyLDExNi40MzcsMTAyMi42MTQsMTI5LjYyNyw5MzYuNzQxLDE0MC4zODlDODUwLjg2NywxNTEuMTUyLDg1MC44NjcsMTU5LjQ4NSw4NTAuODY3LDE2Ni45MzVDODUwLjg2NywxNzQuMzg1LDg1MC44NjcsMTgwLjk1Miw4NTAuODY3LDE4NC4yMzVMODUwLjg2NywxODcuNTE4Ij48L3BhdGg+PHBhdGggbWFya2VyLWVuZD0idXJsKCNnZU1lcm1haWRPdXRwdXQtMTcyNTUyMjk5NzEyOF9mbG93Y2hhcnQtcG9pbnRFbmQpIiBzdHlsZT0iZmlsbDpub25lOyIgY2xhc3M9ImVkZ2UtdGhpY2tuZXNzLW5vcm1hbCBlZGdlLXBhdHRlcm4tc29saWQgZmxvd2NoYXJ0LWxpbmsgTFMtRCBMRS1ENSIgaWQ9IkwtRC1ENS0wIiBkPSJNMTM2Ni4xMDksMTAyLjAzNEwxMTg1Ljk5MywxMDguODMyQzEwMDUuODc4LDExNS42MjksNjQ1LjY0NiwxMjkuMjI0LDQ2NS41MzEsMTQwLjE4OEMyODUuNDE1LDE1MS4xNTIsMjg1LjQxNSwxNTkuNDg1LDI4NS40MTUsMTY2LjkzNUMyODUuNDE1LDE3NC4zODUsMjg1LjQxNSwxODAuOTUyLDI4NS40MTUsMTg0LjIzNUwyODUuNDE1LDE4Ny41MTgiPjwvcGF0aD48cGF0aCBtYXJrZXItZW5kPSJ1cmwoI2dlTWVybWFpZE91dHB1dC0xNzI1NTIyOTk3MTI4X2Zsb3djaGFydC1wb2ludEVuZCkiIHN0eWxlPSJmaWxsOm5vbmU7IiBjbGFzcz0iZWRnZS10aGlja25lc3Mtbm9ybWFsIGVkZ2UtcGF0dGVybi1zb2xpZCBmbG93Y2hhcnQtbGluayBMUy1CMSBMRS1CMTEiIGlkPSJMLUIxLUIxMS0wIiBkPSJNNzkyMS43NSwyMjYuNzI3TDc5MDUuOTE5LDIzMC44OTRDNzg5MC4wODgsMjM1LjA2MSw3ODU4LjQyNiwyNDMuMzk0LDc4NDIuNTk1LDI1MS43MjdDNzgyNi43NjQsMjYwLjA2MSw3ODI2Ljc2NCwyNjguMzk0LDc4MjYuNzY0LDI3Ni43MjdDNzgyNi43NjQsMjg1LjA2MSw3ODI2Ljc2NCwyOTMuMzk0LDc4MjYuNzY0LDMwMC44NDRDNzgyNi43NjQsMzA4LjI5NCw3ODI2Ljc2NCwzMTQuODYxLDc4MjYuNzY0LDMxOC4xNDRMNzgyNi43NjQsMzIxLjQyNyI+PC9wYXRoPjxwYXRoIG1hcmtlci1lbmQ9InVybCgjZ2VNZXJtYWlkT3V0cHV0LTE3MjU1MjI5OTcxMjhfZmxvd2NoYXJ0LXBvaW50RW5kKSIgc3R5bGU9ImZpbGw6bm9uZTsiIGNsYXNzPSJlZGdlLXRoaWNrbmVzcy1ub3JtYWwgZWRnZS1wYXR0ZXJuLXNvbGlkIGZsb3djaGFydC1saW5rIExTLUIxIExFLUIxMiIgaWQ9IkwtQjEtQjEyLTAiIGQ9Ik03OTg2LjE2OCwyMjYuNzI3TDc5ODYuMTY4LDIzMC44OTRDNzk4Ni4xNjgsMjM1LjA2MSw3OTg2LjE2OCwyNDMuMzk0LDc5ODYuMTY4LDI1MS43MjdDNzk4Ni4xNjgsMjYwLjA2MSw3OTg2LjE2OCwyNjguMzk0LDc5ODYuMTY4LDI3Ni43MjdDNzk4Ni4xNjgsMjg1LjA2MSw3OTg2LjE2OCwyOTMuMzk0LDc5ODYuMTY4LDMwMC44NDRDNzk4Ni4xNjgsMzA4LjI5NCw3OTg2LjE2OCwzMTQuODYxLDc5ODYuMTY4LDMxOC4xNDRMNzk4Ni4xNjgsMzIxLjQyNyI+PC9wYXRoPjxwYXRoIG1hcmtlci1lbmQ9InVybCgjZ2VNZXJtYWlkT3V0cHV0LTE3MjU1MjI5OTcxMjhfZmxvd2NoYXJ0LXBvaW50RW5kKSIgc3R5bGU9ImZpbGw6bm9uZTsiIGNsYXNzPSJlZGdlLXRoaWNrbmVzcy1ub3JtYWwgZWRnZS1wYXR0ZXJuLXNvbGlkIGZsb3djaGFydC1saW5rIExTLUIxIExFLUIxMyIgaWQ9IkwtQjEtQjEzLTAiIGQ9Ik04MDQ4LjY3MywyMjYuNzI3TDgwNjQuMDM0LDIzMC44OTRDODA3OS4zOTQsMjM1LjA2MSw4MTEwLjExNiwyNDMuMzk0LDgxMjUuNDc3LDI1MS43MjdDODE0MC44MzgsMjYwLjA2MSw4MTQwLjgzOCwyNjguMzk0LDgxNDAuODM4LDI3Ni43MjdDODE0MC44MzgsMjg1LjA2MSw4MTQwLjgzOCwyOTMuMzk0LDgxNDAuODM4LDMwMC44NDRDODE0MC44MzgsMzA4LjI5NCw4MTQwLjgzOCwzMTQuODYxLDgxNDAuODM4LDMxOC4xNDRMODE0MC44MzgsMzIxLjQyNyI+PC9wYXRoPjxwYXRoIG1hcmtlci1lbmQ9InVybCgjZ2VNZXJtYWlkT3V0cHV0LTE3MjU1MjI5OTcxMjhfZmxvd2NoYXJ0LXBvaW50RW5kKSIgc3R5bGU9ImZpbGw6bm9uZTsiIGNsYXNzPSJlZGdlLXRoaWNrbmVzcy1ub3JtYWwgZWRnZS1wYXR0ZXJuLXNvbGlkIGZsb3djaGFydC1saW5rIExTLUIyIExFLUIyMSIgaWQ9IkwtQjItQjIxLTAiIGQ9Ik03MzY0LjM5NywyMjYuNzI3TDczNDYuMDM2LDIzMC44OTRDNzMyNy42NzUsMjM1LjA2MSw3MjkwLjk1MywyNDMuMzk0LDcyNzIuNTkxLDI1MS43MjdDNzI1NC4yMywyNjAuMDYxLDcyNTQuMjMsMjY4LjM5NCw3MjU0LjIzLDI3Ni43MjdDNzI1NC4yMywyODUuMDYxLDcyNTQuMjMsMjkzLjM5NCw3MjU0LjIzLDMwMC44NDRDNzI1NC4yMywzMDguMjk0LDcyNTQuMjMsMzE0Ljg2MSw3MjU0LjIzLDMxOC4xNDRMNzI1NC4yMywzMjEuNDI3Ij48L3BhdGg+PHBhdGggbWFya2VyLWVuZD0idXJsKCNnZU1lcm1haWRPdXRwdXQtMTcyNTUyMjk5NzEyOF9mbG93Y2hhcnQtcG9pbnRFbmQpIiBzdHlsZT0iZmlsbDpub25lOyIgY2xhc3M9ImVkZ2UtdGhpY2tuZXNzLW5vcm1hbCBlZGdlLXBhdHRlcm4tc29saWQgZmxvd2NoYXJ0LWxpbmsgTFMtQjIgTEUtQjIyIiBpZD0iTC1CMi1CMjItMCIgZD0iTTc0MzkuMTExLDIyNi43MjdMNzQzOS4xMTEsMjMwLjg5NEM3NDM5LjExMSwyMzUuMDYxLDc0MzkuMTExLDI0My4zOTQsNzQzOS4xMTEsMjUxLjcyN0M3NDM5LjExMSwyNjAuMDYxLDc0MzkuMTExLDI2OC4zOTQsNzQzOS4xMTEsMjc2LjcyN0M3NDM5LjExMSwyODUuMDYxLDc0MzkuMTExLDI5My4zOTQsNzQzOS4xMTEsMzAwLjg0NEM3NDM5LjExMSwzMDguMjk0LDc0MzkuMTExLDMxNC44NjEsNzQzOS4xMTEsMzE4LjE0NEw3NDM5LjExMSwzMjEuNDI3Ij48L3BhdGg+PHBhdGggbWFya2VyLWVuZD0idXJsKCNnZU1lcm1haWRPdXRwdXQtMTcyNTUyMjk5NzEyOF9mbG93Y2hhcnQtcG9pbnRFbmQpIiBzdHlsZT0iZmlsbDpub25lOyIgY2xhc3M9ImVkZ2UtdGhpY2tuZXNzLW5vcm1hbCBlZGdlLXBhdHRlcm4tc29saWQgZmxvd2NoYXJ0LWxpbmsgTFMtQjIgTEUtQjIzIiBpZD0iTC1CMi1CMjMtMCIgZD0iTTc1MTEuOTEyLDIyNi43MjdMNzUyOS44MDMsMjMwLjg5NEM3NTQ3LjY5NCwyMzUuMDYxLDc1ODMuNDc2LDI0My4zOTQsNzYwMS4zNjcsMjUxLjcyN0M3NjE5LjI1OSwyNjAuMDYxLDc2MTkuMjU5LDI2OC4zOTQsNzYxOS4yNTksMjc2LjcyN0M3NjE5LjI1OSwyODUuMDYxLDc2MTkuMjU5LDI5My4zOTQsNzYxOS4yNTksMzAwLjg0NEM3NjE5LjI1OSwzMDguMjk0LDc2MTkuMjU5LDMxNC44NjEsNzYxOS4yNTksMzE4LjE0NEw3NjE5LjI1OSwzMjEuNDI3Ij48L3BhdGg+PHBhdGggbWFya2VyLWVuZD0idXJsKCNnZU1lcm1haWRPdXRwdXQtMTcyNTUyMjk5NzEyOF9mbG93Y2hhcnQtcG9pbnRFbmQpIiBzdHlsZT0iZmlsbDpub25lOyIgY2xhc3M9ImVkZ2UtdGhpY2tuZXNzLW5vcm1hbCBlZGdlLXBhdHRlcm4tc29saWQgZmxvd2NoYXJ0LWxpbmsgTFMtQjMgTEUtQjMxIiBpZD0iTC1CMy1CMzEtMCIgZD0iTTY4MzMuNjQxLDIyMy4xNEw2ODExLjE4NSwyMjcuOTA1QzY3ODguNzI5LDIzMi42NjksNjc0My44MTYsMjQyLjE5OCw2NzIxLjM2LDI1MS4xMjlDNjY5OC45MDMsMjYwLjA2MSw2Njk4LjkwMywyNjguMzk0LDY2OTguOTAzLDI3Ni43MjdDNjY5OC45MDMsMjg1LjA2MSw2Njk4LjkwMywyOTMuMzk0LDY2OTguOTAzLDMwMC44NDRDNjY5OC45MDMsMzA4LjI5NCw2Njk4LjkwMywzMTQuODYxLDY2OTguOTAzLDMxOC4xNDRMNjY5OC45MDMsMzIxLjQyNyI+PC9wYXRoPjxwYXRoIG1hcmtlci1lbmQ9InVybCgjZ2VNZXJtYWlkT3V0cHV0LTE3MjU1MjI5OTcxMjhfZmxvd2NoYXJ0LXBvaW50RW5kKSIgc3R5bGU9ImZpbGw6bm9uZTsiIGNsYXNzPSJlZGdlLXRoaWNrbmVzcy1ub3JtYWwgZWRnZS1wYXR0ZXJuLXNvbGlkIGZsb3djaGFydC1saW5rIExTLUIzIExFLUIzMiIgaWQ9IkwtQjMtQjMyLTAiIGQ9Ik02ODk2LjY0NSwyMjYuNzI3TDY4OTYuNjQ1LDIzMC44OTRDNjg5Ni42NDUsMjM1LjA2MSw2ODk2LjY0NSwyNDMuMzk0LDY4OTYuNjQ1LDI1MS43MjdDNjg5Ni42NDUsMjYwLjA2MSw2ODk2LjY0NSwyNjguMzk0LDY4OTYuNjQ1LDI3Ni43MjdDNjg5Ni42NDUsMjg1LjA2MSw2ODk2LjY0NSwyOTMuMzk0LDY4OTYuNjQ1LDMwMC44NDRDNjg5Ni42NDUsMzA4LjI5NCw2ODk2LjY0NSwzMTQuODYxLDY4OTYuNjQ1LDMxOC4xNDRMNjg5Ni42NDUsMzIxLjQyNyI+PC9wYXRoPjxwYXRoIG1hcmtlci1lbmQ9InVybCgjZ2VNZXJtYWlkT3V0cHV0LTE3MjU1MjI5OTcxMjhfZmxvd2NoYXJ0LXBvaW50RW5kKSIgc3R5bGU9ImZpbGw6bm9uZTsiIGNsYXNzPSJlZGdlLXRoaWNrbmVzcy1ub3JtYWwgZWRnZS1wYXR0ZXJuLXNvbGlkIGZsb3djaGFydC1saW5rIExTLUIzIExFLUIzMyIgaWQ9IkwtQjMtQjMzLTAiIGQ9Ik02OTU4Ljk4NywyMjYuNzI3TDY5NzQuMzA4LDIzMC44OTRDNjk4OS42MjksMjM1LjA2MSw3MDIwLjI3LDI0My4zOTQsNzAzNS41OTEsMjUxLjcyN0M3MDUwLjkxMiwyNjAuMDYxLDcwNTAuOTEyLDI2OC4zOTQsNzA1MC45MTIsMjc2LjcyN0M3MDUwLjkxMiwyODUuMDYxLDcwNTAuOTEyLDI5My4zOTQsNzA1MC45MTIsMzAwLjg0NEM3MDUwLjkxMiwzMDguMjk0LDcwNTAuOTEyLDMxNC44NjEsNzA1MC45MTIsMzE4LjE0NEw3MDUwLjkxMiwzMjEuNDI3Ij48L3BhdGg+PHBhdGggbWFya2VyLWVuZD0idXJsKCNnZU1lcm1haWRPdXRwdXQtMTcyNTUyMjk5NzEyOF9mbG93Y2hhcnQtcG9pbnRFbmQpIiBzdHlsZT0iZmlsbDpub25lOyIgY2xhc3M9ImVkZ2UtdGhpY2tuZXNzLW5vcm1hbCBlZGdlLXBhdHRlcm4tc29saWQgZmxvd2NoYXJ0LWxpbmsgTFMtQjQgTEUtQjQxIiBpZD0iTC1CNC1CNDEtMCIgZD0iTTYxOTYuMjI5LDIyNS43MTRMNjE3Ny40NjgsMjMwLjA1QzYxNTguNzA4LDIzNC4zODUsNjEyMS4xODcsMjQzLjA1Niw2MTAyLjQyNywyNTEuNTU4QzYwODMuNjY2LDI2MC4wNjEsNjA4My42NjYsMjY4LjM5NCw2MDgzLjY2NiwyNzYuNzI3QzYwODMuNjY2LDI4NS4wNjEsNjA4My42NjYsMjkzLjM5NCw2MDgzLjY2NiwzMDAuODQ0QzYwODMuNjY2LDMwOC4yOTQsNjA4My42NjYsMzE0Ljg2MSw2MDgzLjY2NiwzMTguMTQ0TDYwODMuNjY2LDMyMS40MjciPjwvcGF0aD48cGF0aCBtYXJrZXItZW5kPSJ1cmwoI2dlTWVybWFpZE91dHB1dC0xNzI1NTIyOTk3MTI4X2Zsb3djaGFydC1wb2ludEVuZCkiIHN0eWxlPSJmaWxsOm5vbmU7IiBjbGFzcz0iZWRnZS10aGlja25lc3Mtbm9ybWFsIGVkZ2UtcGF0dGVybi1zb2xpZCBmbG93Y2hhcnQtbGluayBMUy1CNCBMRS1CNDIiIGlkPSJMLUI0LUI0Mi0wIiBkPSJNNjI2NS4yMSwyMjYuNzI3TDYyNjUuMjEsMjMwLjg5NEM2MjY1LjIxLDIzNS4wNjEsNjI2NS4yMSwyNDMuMzk0LDYyNjUuMjEsMjUxLjcyN0M2MjY1LjIxLDI2MC4wNjEsNjI2NS4yMSwyNjguMzk0LDYyNjUuMjEsMjc2LjcyN0M2MjY1LjIxLDI4NS4wNjEsNjI2NS4yMSwyOTMuMzk0LDYyNjUuMjEsMzAwLjg0NEM2MjY1LjIxLDMwOC4yOTQsNjI2NS4yMSwzMTQuODYxLDYyNjUuMjEsMzE4LjE0NEw2MjY1LjIxLDMyMS40MjciPjwvcGF0aD48cGF0aCBtYXJrZXItZW5kPSJ1cmwoI2dlTWVybWFpZE91dHB1dC0xNzI1NTIyOTk3MTI4X2Zsb3djaGFydC1wb2ludEVuZCkiIHN0eWxlPSJmaWxsOm5vbmU7IiBjbGFzcz0iZWRnZS10aGlja25lc3Mtbm9ybWFsIGVkZ2UtcGF0dGVybi1zb2xpZCBmbG93Y2hhcnQtbGluayBMUy1CNCBMRS1CNDMiIGlkPSJMLUI0LUI0My0wIiBkPSJNNjMzNC4xOSwyMjUuMTk2TDYzNTMuOTY3LDIyOS42MThDNjM3My43NDMsMjM0LjA0LDY0MTMuMjk2LDI0Mi44ODQsNjQzMy4wNzMsMjUxLjQ3MkM2NDUyLjg1LDI2MC4wNjEsNjQ1Mi44NSwyNjguMzk0LDY0NTIuODUsMjc2LjcyN0M2NDUyLjg1LDI4NS4wNjEsNjQ1Mi44NSwyOTMuMzk0LDY0NTIuODUsMzAwLjg0NEM2NDUyLjg1LDMwOC4yOTQsNjQ1Mi44NSwzMTQuODYxLDY0NTIuODUsMzE4LjE0NEw2NDUyLjg1LDMyMS40MjciPjwvcGF0aD48cGF0aCBtYXJrZXItZW5kPSJ1cmwoI2dlTWVybWFpZE91dHB1dC0xNzI1NTIyOTk3MTI4X2Zsb3djaGFydC1wb2ludEVuZCkiIHN0eWxlPSJmaWxsOm5vbmU7IiBjbGFzcz0iZWRnZS10aGlja25lc3Mtbm9ybWFsIGVkZ2UtcGF0dGVybi1zb2xpZCBmbG93Y2hhcnQtbGluayBMUy1DMSBMRS1DMTEiIGlkPSJMLUMxLUMxMS0wIiBkPSJNNTYxNC4yMjIsMjIzLjAzN0w1NTkxLjk1LDIyNy44MTlDNTU2OS42NzcsMjMyLjYsNTUyNS4xMzIsMjQyLjE2NCw1NTAyLjg1OSwyNTEuMTEyQzU0ODAuNTg2LDI2MC4wNjEsNTQ4MC41ODYsMjY4LjM5NCw1NDgwLjU4NiwyNzYuNzI3QzU0ODAuNTg2LDI4NS4wNjEsNTQ4MC41ODYsMjkzLjM5NCw1NDgwLjU4NiwzMDAuODQ0QzU0ODAuNTg2LDMwOC4yOTQsNTQ4MC41ODYsMzE0Ljg2MSw1NDgwLjU4NiwzMTguMTQ0TDU0ODAuNTg2LDMyMS40MjciPjwvcGF0aD48cGF0aCBtYXJrZXItZW5kPSJ1cmwoI2dlTWVybWFpZE91dHB1dC0xNzI1NTIyOTk3MTI4X2Zsb3djaGFydC1wb2ludEVuZCkiIHN0eWxlPSJmaWxsOm5vbmU7IiBjbGFzcz0iZWRnZS10aGlja25lc3Mtbm9ybWFsIGVkZ2UtcGF0dGVybi1zb2xpZCBmbG93Y2hhcnQtbGluayBMUy1DMSBMRS1DMTIiIGlkPSJMLUMxLUMxMi0wIiBkPSJNNTY3Ni4wMDYsMjI2LjcyN0w1Njc2LjAwNiwyMzAuODk0QzU2NzYuMDA2LDIzNS4wNjEsNTY3Ni4wMDYsMjQzLjM5NCw1Njc2LjAwNiwyNTEuNzI3QzU2NzYuMDA2LDI2MC4wNjEsNTY3Ni4wMDYsMjY4LjM5NCw1Njc2LjAwNiwyNzYuNzI3QzU2NzYuMDA2LDI4NS4wNjEsNTY3Ni4wMDYsMjkzLjM5NCw1Njc2LjAwNiwzMDAuODQ0QzU2NzYuMDA2LDMwOC4yOTQsNTY3Ni4wMDYsMzE0Ljg2MSw1Njc2LjAwNiwzMTguMTQ0TDU2NzYuMDA2LDMyMS40MjciPjwvcGF0aD48cGF0aCBtYXJrZXItZW5kPSJ1cmwoI2dlTWVybWFpZE91dHB1dC0xNzI1NTIyOTk3MTI4X2Zsb3djaGFydC1wb2ludEVuZCkiIHN0eWxlPSJmaWxsOm5vbmU7IiBjbGFzcz0iZWRnZS10aGlja25lc3Mtbm9ybWFsIGVkZ2UtcGF0dGVybi1zb2xpZCBmbG93Y2hhcnQtbGluayBMUy1DMSBMRS1DMTMiIGlkPSJMLUMxLUMxMy0wIiBkPSJNNTczNy43OTEsMjIzLjM1M0w1NzU5LjMwNiwyMjguMDgyQzU3ODAuODIyLDIzMi44MTEsNTgyMy44NTMsMjQyLjI2OSw1ODQ1LjM2OSwyNTEuMTY1QzU4NjYuODg1LDI2MC4wNjEsNTg2Ni44ODUsMjY4LjM5NCw1ODY2Ljg4NSwyNzYuNzI3QzU4NjYuODg1LDI4NS4wNjEsNTg2Ni44ODUsMjkzLjM5NCw1ODY2Ljg4NSwzMDAuODQ0QzU4NjYuODg1LDMwOC4yOTQsNTg2Ni44ODUsMzE0Ljg2MSw1ODY2Ljg4NSwzMTguMTQ0TDU4NjYuODg1LDMyMS40MjciPjwvcGF0aD48cGF0aCBtYXJrZXItZW5kPSJ1cmwoI2dlTWVybWFpZE91dHB1dC0xNzI1NTIyOTk3MTI4X2Zsb3djaGFydC1wb2ludEVuZCkiIHN0eWxlPSJmaWxsOm5vbmU7IiBjbGFzcz0iZWRnZS10aGlja25lc3Mtbm9ybWFsIGVkZ2UtcGF0dGVybi1zb2xpZCBmbG93Y2hhcnQtbGluayBMUy1DMiBMRS1DMjEiIGlkPSJMLUMyLUMyMS0wIiBkPSJNNDk3OC42MjMsMjI2LjcyN0w0OTYyLjYxLDIzMC44OTRDNDk0Ni41OTgsMjM1LjA2MSw0OTE0LjU3MiwyNDMuMzk0LDQ4OTguNTYsMjUxLjcyN0M0ODgyLjU0NywyNjAuMDYxLDQ4ODIuNTQ3LDI2OC4zOTQsNDg4Mi41NDcsMjc2LjcyN0M0ODgyLjU0NywyODUuMDYxLDQ4ODIuNTQ3LDI5My4zOTQsNDg4Mi41NDcsMzAwLjg0NEM0ODgyLjU0NywzMDguMjk0LDQ4ODIuNTQ3LDMxNC44NjEsNDg4Mi41NDcsMzE4LjE0NEw0ODgyLjU0NywzMjEuNDI3Ij48L3BhdGg+PHBhdGggbWFya2VyLWVuZD0idXJsKCNnZU1lcm1haWRPdXRwdXQtMTcyNTUyMjk5NzEyOF9mbG93Y2hhcnQtcG9pbnRFbmQpIiBzdHlsZT0iZmlsbDpub25lOyIgY2xhc3M9ImVkZ2UtdGhpY2tuZXNzLW5vcm1hbCBlZGdlLXBhdHRlcm4tc29saWQgZmxvd2NoYXJ0LWxpbmsgTFMtQzIgTEUtQzIyIiBpZD0iTC1DMi1DMjItMCIgZD0iTTUwNDMuNzgsMjI2LjcyN0w1MDQzLjc4LDIzMC44OTRDNTA0My43OCwyMzUuMDYxLDUwNDMuNzgsMjQzLjM5NCw1MDQzLjc4LDI1MS43MjdDNTA0My43OCwyNjAuMDYxLDUwNDMuNzgsMjY4LjM5NCw1MDQzLjc4LDI3Ni43MjdDNTA0My43OCwyODUuMDYxLDUwNDMuNzgsMjkzLjM5NCw1MDQzLjc4LDMwMC44NDRDNTA0My43OCwzMDguMjk0LDUwNDMuNzgsMzE0Ljg2MSw1MDQzLjc4LDMxOC4xNDRMNTA0My43OCwzMjEuNDI3Ij48L3BhdGg+PHBhdGggbWFya2VyLWVuZD0idXJsKCNnZU1lcm1haWRPdXRwdXQtMTcyNTUyMjk5NzEyOF9mbG93Y2hhcnQtcG9pbnRFbmQpIiBzdHlsZT0iZmlsbDpub25lOyIgY2xhc3M9ImVkZ2UtdGhpY2tuZXNzLW5vcm1hbCBlZGdlLXBhdHRlcm4tc29saWQgZmxvd2NoYXJ0LWxpbmsgTFMtQzIgTEUtQzIzIiBpZD0iTC1DMi1DMjMtMCIgZD0iTTUxMjMuNDY0LDIyNi43MjdMNTE0My4wNDcsMjMwLjg5NEM1MTYyLjYzLDIzNS4wNjEsNTIwMS43OTYsMjQzLjM5NCw1MjIxLjM3OSwyNTEuNzI3QzUyNDAuOTYyLDI2MC4wNjEsNTI0MC45NjIsMjY4LjM5NCw1MjQwLjk2MiwyNzYuNzI3QzUyNDAuOTYyLDI4NS4wNjEsNTI0MC45NjIsMjkzLjM5NCw1MjQwLjk2MiwzMDAuODQ0QzUyNDAuOTYyLDMwOC4yOTQsNTI0MC45NjIsMzE0Ljg2MSw1MjQwLjk2MiwzMTguMTQ0TDUyNDAuOTYyLDMyMS40MjciPjwvcGF0aD48cGF0aCBtYXJrZXItZW5kPSJ1cmwoI2dlTWVybWFpZE91dHB1dC0xNzI1NTIyOTk3MTI4X2Zsb3djaGFydC1wb2ludEVuZCkiIHN0eWxlPSJmaWxsOm5vbmU7IiBjbGFzcz0iZWRnZS10aGlja25lc3Mtbm9ybWFsIGVkZ2UtcGF0dGVybi1zb2xpZCBmbG93Y2hhcnQtbGluayBMUy1DMyBMRS1DMzEiIGlkPSJMLUMzLUMzMS0wIiBkPSJNNDM4OS43MjgsMjI2LjcyN0w0MzY4Ljg2OCwyMzAuODk0QzQzNDguMDA4LDIzNS4wNjEsNDMwNi4yODksMjQzLjM5NCw0Mjg1LjQyOSwyNTEuNzI3QzQyNjQuNTY5LDI2MC4wNjEsNDI2NC41NjksMjY4LjM5NCw0MjY0LjU2OSwyNzYuNzI3QzQyNjQuNTY5LDI4NS4wNjEsNDI2NC41NjksMjkzLjM5NCw0MjY0LjU2OSwzMDAuODQ0QzQyNjQuNTY5LDMwOC4yOTQsNDI2NC41NjksMzE0Ljg2MSw0MjY0LjU2OSwzMTguMTQ0TDQyNjQuNTY5LDMyMS40MjciPjwvcGF0aD48cGF0aCBtYXJrZXItZW5kPSJ1cmwoI2dlTWVybWFpZE91dHB1dC0xNzI1NTIyOTk3MTI4X2Zsb3djaGFydC1wb2ludEVuZCkiIHN0eWxlPSJmaWxsOm5vbmU7IiBjbGFzcz0iZWRnZS10aGlja25lc3Mtbm9ybWFsIGVkZ2UtcGF0dGVybi1zb2xpZCBmbG93Y2hhcnQtbGluayBMUy1DMyBMRS1DMzIiIGlkPSJMLUMzLUMzMi0wIiBkPSJNNDQ3NC42MDksMjI2LjcyN0w0NDc0LjYwOSwyMzAuODk0QzQ0NzQuNjA5LDIzNS4wNjEsNDQ3NC42MDksMjQzLjM5NCw0NDc0LjYwOSwyNTEuNzI3QzQ0NzQuNjA5LDI2MC4wNjEsNDQ3NC42MDksMjY4LjM5NCw0NDc0LjYwOSwyNzYuNzI3QzQ0NzQuNjA5LDI4NS4wNjEsNDQ3NC42MDksMjkzLjM5NCw0NDc0LjYwOSwzMDAuODQ0QzQ0NzQuNjA5LDMwOC4yOTQsNDQ3NC42MDksMzE0Ljg2MSw0NDc0LjYwOSwzMTguMTQ0TDQ0NzQuNjA5LDMyMS40MjciPjwvcGF0aD48cGF0aCBtYXJrZXItZW5kPSJ1cmwoI2dlTWVybWFpZE91dHB1dC0xNzI1NTIyOTk3MTI4X2Zsb3djaGFydC1wb2ludEVuZCkiIHN0eWxlPSJmaWxsOm5vbmU7IiBjbGFzcz0iZWRnZS10aGlja25lc3Mtbm9ybWFsIGVkZ2UtcGF0dGVybi1zb2xpZCBmbG93Y2hhcnQtbGluayBMUy1DMyBMRS1DMzMiIGlkPSJMLUMzLUMzMy0wIiBkPSJNNDU1Ni4yMTgsMjI2LjcyN0w0NTc2LjI3NCwyMzAuODk0QzQ1OTYuMzMsMjM1LjA2MSw0NjM2LjQ0MSwyNDMuMzk0LDQ2NTYuNDk3LDI1MS43MjdDNDY3Ni41NTMsMjYwLjA2MSw0Njc2LjU1MywyNjguMzk0LDQ2NzYuNTUzLDI3Ni43MjdDNDY3Ni41NTMsMjg1LjA2MSw0Njc2LjU1MywyOTMuMzk0LDQ2NzYuNTUzLDMwMC44NDRDNDY3Ni41NTMsMzA4LjI5NCw0Njc2LjU1MywzMTQuODYxLDQ2NzYuNTUzLDMxOC4xNDRMNDY3Ni41NTMsMzIxLjQyNyI+PC9wYXRoPjxwYXRoIG1hcmtlci1lbmQ9InVybCgjZ2VNZXJtYWlkT3V0cHV0LTE3MjU1MjI5OTcxMjhfZmxvd2NoYXJ0LXBvaW50RW5kKSIgc3R5bGU9ImZpbGw6bm9uZTsiIGNsYXNzPSJlZGdlLXRoaWNrbmVzcy1ub3JtYWwgZWRnZS1wYXR0ZXJuLXNvbGlkIGZsb3djaGFydC1saW5rIExTLUM0IExFLUM0MSIgaWQ9IkwtQzQtQzQxLTAiIGQ9Ik0zNzI1LjY1MywyMjUuMzMxTDM3MDIuODMsMjI5LjczMUMzNjgwLjAwNywyMzQuMTMsMzYzNC4zNjEsMjQyLjkyOSwzNjExLjUzOCwyNTEuNDk1QzM1ODguNzE1LDI2MC4wNjEsMzU4OC43MTUsMjY4LjM5NCwzNTg4LjcxNSwyNzYuNzI3QzM1ODguNzE1LDI4NS4wNjEsMzU4OC43MTUsMjkzLjM5NCwzNTg4LjcxNSwzMDAuODQ0QzM1ODguNzE1LDMwOC4yOTQsMzU4OC43MTUsMzE0Ljg2MSwzNTg4LjcxNSwzMTguMTQ0TDM1ODguNzE1LDMyMS40MjciPjwvcGF0aD48cGF0aCBtYXJrZXItZW5kPSJ1cmwoI2dlTWVybWFpZE91dHB1dC0xNzI1NTIyOTk3MTI4X2Zsb3djaGFydC1wb2ludEVuZCkiIHN0eWxlPSJmaWxsOm5vbmU7IiBjbGFzcz0iZWRnZS10aGlja25lc3Mtbm9ybWFsIGVkZ2UtcGF0dGVybi1zb2xpZCBmbG93Y2hhcnQtbGluayBMUy1DNCBMRS1DNDIiIGlkPSJMLUM0LUM0Mi0wIiBkPSJNMzgwNi4zNjksMjI2LjcyN0wzODA2LjM2OSwyMzAuODk0QzM4MDYuMzY5LDIzNS4wNjEsMzgwNi4zNjksMjQzLjM5NCwzODA2LjM2OSwyNTEuNzI3QzM4MDYuMzY5LDI2MC4wNjEsMzgwNi4zNjksMjY4LjM5NCwzODA2LjM2OSwyNzYuNzI3QzM4MDYuMzY5LDI4NS4wNjEsMzgwNi4zNjksMjkzLjM5NCwzODA2LjM2OSwzMDAuODQ0QzM4MDYuMzY5LDMwOC4yOTQsMzgwNi4zNjksMzE0Ljg2MSwzODA2LjM2OSwzMTguMTQ0TDM4MDYuMzY5LDMyMS40MjciPjwvcGF0aD48cGF0aCBtYXJrZXItZW5kPSJ1cmwoI2dlTWVybWFpZE91dHB1dC0xNzI1NTIyOTk3MTI4X2Zsb3djaGFydC1wb2ludEVuZCkiIHN0eWxlPSJmaWxsOm5vbmU7IiBjbGFzcz0iZWRnZS10aGlja25lc3Mtbm9ybWFsIGVkZ2UtcGF0dGVybi1zb2xpZCBmbG93Y2hhcnQtbGluayBMUy1DNCBMRS1DNDMiIGlkPSJMLUM0LUM0My0wIiBkPSJNMzg4Ny4wODUsMjI1LjcxOUwzOTA5LjAyNiwyMzAuMDU0QzM5MzAuOTY3LDIzNC4zODgsMzk3NC44NSwyNDMuMDU4LDM5OTYuNzkxLDI1MS41NTlDNDAxOC43MzIsMjYwLjA2MSw0MDE4LjczMiwyNjguMzk0LDQwMTguNzMyLDI3Ni43MjdDNDAxOC43MzIsMjg1LjA2MSw0MDE4LjczMiwyOTMuMzk0LDQwMTguNzMyLDMwMC44NDRDNDAxOC43MzIsMzA4LjI5NCw0MDE4LjczMiwzMTQuODYxLDQwMTguNzMyLDMxOC4xNDRMNDAxOC43MzIsMzIxLjQyNyI+PC9wYXRoPjxwYXRoIG1hcmtlci1lbmQ9InVybCgjZ2VNZXJtYWlkT3V0cHV0LTE3MjU1MjI5OTcxMjhfZmxvd2NoYXJ0LXBvaW50RW5kKSIgc3R5bGU9ImZpbGw6bm9uZTsiIGNsYXNzPSJlZGdlLXRoaWNrbmVzcy1ub3JtYWwgZWRnZS1wYXR0ZXJuLXNvbGlkIGZsb3djaGFydC1saW5rIExTLUM1IExFLUM1MSIgaWQ9IkwtQzUtQzUxLTAiIGQ9Ik0zMDY1Ljc5NSwyMjEuODcxTDMwNDIuNTQ2LDIyNi44NDdDMzAxOS4yOTYsMjMxLjgyMywyOTcyLjc5OCwyNDEuNzc1LDI5NDkuNTQ5LDI1MC45MThDMjkyNi4zLDI2MC4wNjEsMjkyNi4zLDI2OC4zOTQsMjkyNi4zLDI3Ni43MjdDMjkyNi4zLDI4NS4wNjEsMjkyNi4zLDI5My4zOTQsMjkyNi4zLDMwMC44NDRDMjkyNi4zLDMwOC4yOTQsMjkyNi4zLDMxNC44NjEsMjkyNi4zLDMxOC4xNDRMMjkyNi4zLDMyMS40MjciPjwvcGF0aD48cGF0aCBtYXJrZXItZW5kPSJ1cmwoI2dlTWVybWFpZE91dHB1dC0xNzI1NTIyOTk3MTI4X2Zsb3djaGFydC1wb2ludEVuZCkiIHN0eWxlPSJmaWxsOm5vbmU7IiBjbGFzcz0iZWRnZS10aGlja25lc3Mtbm9ybWFsIGVkZ2UtcGF0dGVybi1zb2xpZCBmbG93Y2hhcnQtbGluayBMUy1DNSBMRS1DNTIiIGlkPSJMLUM1LUM1Mi0wIiBkPSJNMzEyMi4zMjMsMjI2LjcyN0wzMTIyLjMyMywyMzAuODk0QzMxMjIuMzIzLDIzNS4wNjEsMzEyMi4zMjMsMjQzLjM5NCwzMTIyLjMyMywyNTEuNzI3QzMxMjIuMzIzLDI2MC4wNjEsMzEyMi4zMjMsMjY4LjM5NCwzMTIyLjMyMywyNzYuNzI3QzMxMjIuMzIzLDI4NS4wNjEsMzEyMi4zMjMsMjkzLjM5NCwzMTIyLjMyMywzMDAuODQ0QzMxMjIuMzIzLDMwOC4yOTQsMzEyMi4zMjMsMzE0Ljg2MSwzMTIyLjMyMywzMTguMTQ0TDMxMjIuMzIzLDMyMS40MjciPjwvcGF0aD48cGF0aCBtYXJrZXItZW5kPSJ1cmwoI2dlTWVybWFpZE91dHB1dC0xNzI1NTIyOTk3MTI4X2Zsb3djaGFydC1wb2ludEVuZCkiIHN0eWxlPSJmaWxsOm5vbmU7IiBjbGFzcz0iZWRnZS10aGlja25lc3Mtbm9ybWFsIGVkZ2UtcGF0dGVybi1zb2xpZCBmbG93Y2hhcnQtbGluayBMUy1DNSBMRS1DNTMiIGlkPSJMLUM1LUM1My0wIiBkPSJNMzE3OC44NTIsMjIwLjU4OUwzMjA1Ljk3MywyMjUuNzc5QzMyMzMuMDk1LDIzMC45NjksMzI4Ny4zMzgsMjQxLjM0OCwzMzE0LjQ2LDI1MC43MDRDMzM0MS41ODIsMjYwLjA2MSwzMzQxLjU4MiwyNjguMzk0LDMzNDEuNTgyLDI3Ni43MjdDMzM0MS41ODIsMjg1LjA2MSwzMzQxLjU4MiwyOTMuMzk0LDMzNDEuNTgyLDMwMC44NDRDMzM0MS41ODIsMzA4LjI5NCwzMzQxLjU4MiwzMTQuODYxLDMzNDEuNTgyLDMxOC4xNDRMMzM0MS41ODIsMzIxLjQyNyI+PC9wYXRoPjxwYXRoIG1hcmtlci1lbmQ9InVybCgjZ2VNZXJtYWlkT3V0cHV0LTE3MjU1MjI5OTcxMjhfZmxvd2NoYXJ0LXBvaW50RW5kKSIgc3R5bGU9ImZpbGw6bm9uZTsiIGNsYXNzPSJlZGdlLXRoaWNrbmVzcy1ub3JtYWwgZWRnZS1wYXR0ZXJuLXNvbGlkIGZsb3djaGFydC1saW5rIExTLUQxIExFLUQxMSIgaWQ9IkwtRDEtRDExLTAiIGQ9Ik0yNDM5LjY1NCwyMjQuOTMyTDI0MjMuMjMzLDIyOS4zOThDMjQwNi44MTIsMjMzLjg2NCwyMzczLjk3LDI0Mi43OTYsMjM1Ny41NSwyNTEuNDI4QzIzNDEuMTI5LDI2MC4wNjEsMjM0MS4xMjksMjY4LjM5NCwyMzQxLjEyOSwyNzYuNzI3QzIzNDEuMTI5LDI4NS4wNjEsMjM0MS4xMjksMjkzLjM5NCwyMzQxLjEyOSwzMDAuODQ0QzIzNDEuMTI5LDMwOC4yOTQsMjM0MS4xMjksMzE0Ljg2MSwyMzQxLjEyOSwzMTguMTQ0TDIzNDEuMTI5LDMyMS40MjciPjwvcGF0aD48cGF0aCBtYXJrZXItZW5kPSJ1cmwoI2dlTWVybWFpZE91dHB1dC0xNzI1NTIyOTk3MTI4X2Zsb3djaGFydC1wb2ludEVuZCkiIHN0eWxlPSJmaWxsOm5vbmU7IiBjbGFzcz0iZWRnZS10aGlja25lc3Mtbm9ybWFsIGVkZ2UtcGF0dGVybi1zb2xpZCBmbG93Y2hhcnQtbGluayBMUy1EMSBMRS1EMTIiIGlkPSJMLUQxLUQxMi0wIiBkPSJNMjQ5NS4zOTYsMjI2LjcyN0wyNDk1LjM5NiwyMzAuODk0QzI0OTUuMzk2LDIzNS4wNjEsMjQ5NS4zOTYsMjQzLjM5NCwyNDk1LjM5NiwyNTEuNzI3QzI0OTUuMzk2LDI2MC4wNjEsMjQ5NS4zOTYsMjY4LjM5NCwyNDk1LjM5NiwyNzYuNzI3QzI0OTUuMzk2LDI4NS4wNjEsMjQ5NS4zOTYsMjkzLjM5NCwyNDk1LjM5NiwzMDAuODQ0QzI0OTUuMzk2LDMwOC4yOTQsMjQ5NS4zOTYsMzE0Ljg2MSwyNDk1LjM5NiwzMTguMTQ0TDI0OTUuMzk2LDMyMS40MjciPjwvcGF0aD48cGF0aCBtYXJrZXItZW5kPSJ1cmwoI2dlTWVybWFpZE91dHB1dC0xNzI1NTIyOTk3MTI4X2Zsb3djaGFydC1wb2ludEVuZCkiIHN0eWxlPSJmaWxsOm5vbmU7IiBjbGFzcz0iZWRnZS10aGlja25lc3Mtbm9ybWFsIGVkZ2UtcGF0dGVybi1zb2xpZCBmbG93Y2hhcnQtbGluayBMUy1EMSBMRS1EMTMiIGlkPSJMLUQxLUQxMy0wIiBkPSJNMjU1MS4xMzcsMjIxLjU5OUwyNTc0LjgwNCwyMjYuNjIxQzI1OTguNDcsMjMxLjY0MiwyNjQ1LjgwNCwyNDEuNjg1LDI2NjkuNDcsMjUwLjg3M0MyNjkzLjEzNywyNjAuMDYxLDI2OTMuMTM3LDI2OC4zOTQsMjY5My4xMzcsMjc2LjcyN0MyNjkzLjEzNywyODUuMDYxLDI2OTMuMTM3LDI5My4zOTQsMjY5My4xMzcsMzAwLjg0NEMyNjkzLjEzNywzMDguMjk0LDI2OTMuMTM3LDMxNC44NjEsMjY5My4xMzcsMzE4LjE0NEwyNjkzLjEzNywzMjEuNDI3Ij48L3BhdGg+PHBhdGggbWFya2VyLWVuZD0idXJsKCNnZU1lcm1haWRPdXRwdXQtMTcyNTUyMjk5NzEyOF9mbG93Y2hhcnQtcG9pbnRFbmQpIiBzdHlsZT0iZmlsbDpub25lOyIgY2xhc3M9ImVkZ2UtdGhpY2tuZXNzLW5vcm1hbCBlZGdlLXBhdHRlcm4tc29saWQgZmxvd2NoYXJ0LWxpbmsgTFMtRDIgTEUtRDIxIiBpZD0iTC1EMi1EMjEtMCIgZD0iTTE4OTguMjk3LDIyNS4xODlMMTg3OS43NzgsMjI5LjYxMkMxODYxLjI1OSwyMzQuMDM1LDE4MjQuMjIyLDI0Mi44ODEsMTgwNS43MDQsMjUxLjQ3MUMxNzg3LjE4NSwyNjAuMDYxLDE3ODcuMTg1LDI2OC4zOTQsMTc4Ny4xODUsMjc2LjcyN0MxNzg3LjE4NSwyODUuMDYxLDE3ODcuMTg1LDI5My4zOTQsMTc4Ny4xODUsMzAwLjg0NEMxNzg3LjE4NSwzMDguMjk0LDE3ODcuMTg1LDMxNC44NjEsMTc4Ny4xODUsMzE4LjE0NEwxNzg3LjE4NSwzMjEuNDI3Ij48L3BhdGg+PHBhdGggbWFya2VyLWVuZD0idXJsKCNnZU1lcm1haWRPdXRwdXQtMTcyNTUyMjk5NzEyOF9mbG93Y2hhcnQtcG9pbnRFbmQpIiBzdHlsZT0iZmlsbDpub25lOyIgY2xhc3M9ImVkZ2UtdGhpY2tuZXNzLW5vcm1hbCBlZGdlLXBhdHRlcm4tc29saWQgZmxvd2NoYXJ0LWxpbmsgTFMtRDIgTEUtRDIyIiBpZD0iTC1EMi1EMjItMCIgZD0iTTE5NjIuODM5LDIyNi43MjdMMTk2Mi44MzksMjMwLjg5NEMxOTYyLjgzOSwyMzUuMDYxLDE5NjIuODM5LDI0My4zOTQsMTk2Mi44MzksMjUxLjcyN0MxOTYyLjgzOSwyNjAuMDYxLDE5NjIuODM5LDI2OC4zOTQsMTk2Mi44MzksMjc2LjcyN0MxOTYyLjgzOSwyODUuMDYxLDE5NjIuODM5LDI5My4zOTQsMTk2Mi44MzksMzAwLjg0NEMxOTYyLjgzOSwzMDguMjk0LDE5NjIuODM5LDMxNC44NjEsMTk2Mi44MzksMzE4LjE0NEwxOTYyLjgzOSwzMjEuNDI3Ij48L3BhdGg+PHBhdGggbWFya2VyLWVuZD0idXJsKCNnZU1lcm1haWRPdXRwdXQtMTcyNTUyMjk5NzEyOF9mbG93Y2hhcnQtcG9pbnRFbmQpIiBzdHlsZT0iZmlsbDpub25lOyIgY2xhc3M9ImVkZ2UtdGhpY2tuZXNzLW5vcm1hbCBlZGdlLXBhdHRlcm4tc29saWQgZmxvd2NoYXJ0LWxpbmsgTFMtRDIgTEUtRDIzIiBpZD0iTC1EMi1EMjMtMCIgZD0iTTIwMjcuMzgxLDIyNC45NTlMMjA0Ni4zNDMsMjI5LjQyQzIwNjUuMzA0LDIzMy44ODIsMjEwMy4yMjgsMjQyLjgwNCwyMTIyLjE5LDI1MS40MzNDMjE0MS4xNTEsMjYwLjA2MSwyMTQxLjE1MSwyNjguMzk0LDIxNDEuMTUxLDI3Ni43MjdDMjE0MS4xNTEsMjg1LjA2MSwyMTQxLjE1MSwyOTMuMzk0LDIxNDEuMTUxLDMwMC44NDRDMjE0MS4xNTEsMzA4LjI5NCwyMTQxLjE1MSwzMTQuODYxLDIxNDEuMTUxLDMxOC4xNDRMMjE0MS4xNTEsMzIxLjQyNyI+PC9wYXRoPjxwYXRoIG1hcmtlci1lbmQ9InVybCgjZ2VNZXJtYWlkT3V0cHV0LTE3MjU1MjI5OTcxMjhfZmxvd2NoYXJ0LXBvaW50RW5kKSIgc3R5bGU9ImZpbGw6bm9uZTsiIGNsYXNzPSJlZGdlLXRoaWNrbmVzcy1ub3JtYWwgZWRnZS1wYXR0ZXJuLXNvbGlkIGZsb3djaGFydC1saW5rIExTLUQzIExFLUQzMSIgaWQ9IkwtRDMtRDMxLTAiIGQ9Ik0xMzM4Ljc5OSwyMjMuODg2TDEzMTkuNjIxLDIyOC41MjZDMTMwMC40NDMsMjMzLjE2NiwxMjYyLjA4NywyNDIuNDQ3LDEyNDIuOTA5LDI1MS4yNTRDMTIyMy43MzEsMjYwLjA2MSwxMjIzLjczMSwyNjguMzk0LDEyMjMuNzMxLDI3Ni43MjdDMTIyMy43MzEsMjg1LjA2MSwxMjIzLjczMSwyOTMuMzk0LDEyMjMuNzMxLDMwMC44NDRDMTIyMy43MzEsMzA4LjI5NCwxMjIzLjczMSwzMTQuODYxLDEyMjMuNzMxLDMxOC4xNDRMMTIyMy43MzEsMzIxLjQyNyI+PC9wYXRoPjxwYXRoIG1hcmtlci1lbmQ9InVybCgjZ2VNZXJtYWlkT3V0cHV0LTE3MjU1MjI5OTcxMjhfZmxvd2NoYXJ0LXBvaW50RW5kKSIgc3R5bGU9ImZpbGw6bm9uZTsiIGNsYXNzPSJlZGdlLXRoaWNrbmVzcy1ub3JtYWwgZWRnZS1wYXR0ZXJuLXNvbGlkIGZsb3djaGFydC1saW5rIExTLUQzIExFLUQzMiIgaWQ9IkwtRDMtRDMyLTAiIGQ9Ik0xMzk3LjEyOSwyMjYuNzI3TDEzOTcuMTI5LDIzMC44OTRDMTM5Ny4xMjksMjM1LjA2MSwxMzk3LjEyOSwyNDMuMzk0LDEzOTcuMTI5LDI1MS43MjdDMTM5Ny4xMjksMjYwLjA2MSwxMzk3LjEyOSwyNjguMzk0LDEzOTcuMTI5LDI3Ni43MjdDMTM5Ny4xMjksMjg1LjA2MSwxMzk3LjEyOSwyOTMuMzk0LDEzOTcuMTI5LDMwMC44NDRDMTM5Ny4xMjksMzA4LjI5NCwxMzk3LjEyOSwzMTQuODYxLDEzOTcuMTI5LDMxOC4xNDRMMTM5Ny4xMjksMzIxLjQyNyI+PC9wYXRoPjxwYXRoIG1hcmtlci1lbmQ9InVybCgjZ2VNZXJtYWlkT3V0cHV0LTE3MjU1MjI5OTcxMjhfZmxvd2NoYXJ0LXBvaW50RW5kKSIgc3R5bGU9ImZpbGw6bm9uZTsiIGNsYXNzPSJlZGdlLXRoaWNrbmVzcy1ub3JtYWwgZWRnZS1wYXR0ZXJuLXNvbGlkIGZsb3djaGFydC1saW5rIExTLUQzIExFLUQzMyIgaWQ9IkwtRDMtRDMzLTAiIGQ9Ik0xNDU1LjQ1OCwyMjMuNzcxTDE0NzQuODczLDIyOC40MzFDMTQ5NC4yODgsMjMzLjA5LDE1MzMuMTE3LDI0Mi40MDksMTU1Mi41MzIsMjUxLjIzNUMxNTcxLjk0NywyNjAuMDYxLDE1NzEuOTQ3LDI2OC4zOTQsMTU3MS45NDcsMjc2LjcyN0MxNTcxLjk0NywyODUuMDYxLDE1NzEuOTQ3LDI5My4zOTQsMTU3MS45NDcsMzAwLjg0NEMxNTcxLjk0NywzMDguMjk0LDE1NzEuOTQ3LDMxNC44NjEsMTU3MS45NDcsMzE4LjE0NEwxNTcxLjk0NywzMjEuNDI3Ij48L3BhdGg+PHBhdGggbWFya2VyLWVuZD0idXJsKCNnZU1lcm1haWRPdXRwdXQtMTcyNTUyMjk5NzEyOF9mbG93Y2hhcnQtcG9pbnRFbmQpIiBzdHlsZT0iZmlsbDpub25lOyIgY2xhc3M9ImVkZ2UtdGhpY2tuZXNzLW5vcm1hbCBlZGdlLXBhdHRlcm4tc29saWQgZmxvd2NoYXJ0LWxpbmsgTFMtRDQgTEUtRDQxIiBpZD0iTC1ENC1ENDEtMCIgZD0iTTc5MS44MzMsMjIzLjk2M0w3NzIuNTgzLDIyOC41OTFDNzUzLjMzMiwyMzMuMjE4LDcxNC44MzIsMjQyLjQ3Myw2OTUuNTgyLDI1MS4yNjdDNjc2LjMzMiwyNjAuMDYxLDY3Ni4zMzIsMjY4LjM5NCw2NzYuMzMyLDI3Ni43MjdDNjc2LjMzMiwyODUuMDYxLDY3Ni4zMzIsMjkzLjM5NCw2NzYuMzMyLDMwMC44NDRDNjc2LjMzMiwzMDguMjk0LDY3Ni4zMzIsMzE0Ljg2MSw2NzYuMzMyLDMxOC4xNDRMNjc2LjMzMiwzMjEuNDI3Ij48L3BhdGg+PHBhdGggbWFya2VyLWVuZD0idXJsKCNnZU1lcm1haWRPdXRwdXQtMTcyNTUyMjk5NzEyOF9mbG93Y2hhcnQtcG9pbnRFbmQpIiBzdHlsZT0iZmlsbDpub25lOyIgY2xhc3M9ImVkZ2UtdGhpY2tuZXNzLW5vcm1hbCBlZGdlLXBhdHRlcm4tc29saWQgZmxvd2NoYXJ0LWxpbmsgTFMtRDQgTEUtRDQyIiBpZD0iTC1ENC1ENDItMCIgZD0iTTg1MC44NjcsMjI2LjcyN0w4NTAuODY3LDIzMC44OTRDODUwLjg2NywyMzUuMDYxLDg1MC44NjcsMjQzLjM5NCw4NTAuODY3LDI1MS43MjdDODUwLjg2NywyNjAuMDYxLDg1MC44NjcsMjY4LjM5NCw4NTAuODY3LDI3Ni43MjdDODUwLjg2NywyODUuMDYxLDg1MC44NjcsMjkzLjM5NCw4NTAuODY3LDMwMC44NDRDODUwLjg2NywzMDguMjk0LDg1MC44NjcsMzE0Ljg2MSw4NTAuODY3LDMxOC4xNDRMODUwLjg2NywzMjEuNDI3Ij48L3BhdGg+PHBhdGggbWFya2VyLWVuZD0idXJsKCNnZU1lcm1haWRPdXRwdXQtMTcyNTUyMjk5NzEyOF9mbG93Y2hhcnQtcG9pbnRFbmQpIiBzdHlsZT0iZmlsbDpub25lOyIgY2xhc3M9ImVkZ2UtdGhpY2tuZXNzLW5vcm1hbCBlZGdlLXBhdHRlcm4tc29saWQgZmxvd2NoYXJ0LWxpbmsgTFMtRDQgTEUtRDQzIiBpZD0iTC1ENC1ENDMtMCIgZD0iTTkwOS45MDIsMjI0LjI4OUw5MjguNSwyMjguODYyQzk0Ny4wOTgsMjMzLjQzNSw5ODQuMjk1LDI0Mi41ODEsMTAwMi44OTQsMjUxLjMyMUMxMDIxLjQ5MiwyNjAuMDYxLDEwMjEuNDkyLDI2OC4zOTQsMTAyMS40OTIsMjc2LjcyN0MxMDIxLjQ5MiwyODUuMDYxLDEwMjEuNDkyLDI5My4zOTQsMTAyMS40OTIsMzAwLjg0NEMxMDIxLjQ5MiwzMDguMjk0LDEwMjEuNDkyLDMxNC44NjEsMTAyMS40OTIsMzE4LjE0NEwxMDIxLjQ5MiwzMjEuNDI3Ij48L3BhdGg+PHBhdGggbWFya2VyLWVuZD0idXJsKCNnZU1lcm1haWRPdXRwdXQtMTcyNTUyMjk5NzEyOF9mbG93Y2hhcnQtcG9pbnRFbmQpIiBzdHlsZT0iZmlsbDpub25lOyIgY2xhc3M9ImVkZ2UtdGhpY2tuZXNzLW5vcm1hbCBlZGdlLXBhdHRlcm4tc29saWQgZmxvd2NoYXJ0LWxpbmsgTFMtRDUgTEUtRDUxIiBpZD0iTC1ENS1ENTEtMCIgZD0iTTIxMy43MTQsMjI2LjcyN0wxOTYuMDkzLDIzMC44OTRDMTc4LjQ3MiwyMzUuMDYxLDE0My4yMywyNDMuMzk0LDEyNS42MSwyNTEuNzI3QzEwNy45ODksMjYwLjA2MSwxMDcuOTg5LDI2OC4zOTQsMTA3Ljk4OSwyNzYuNzI3QzEwNy45ODksMjg1LjA2MSwxMDcuOTg5LDI5My4zOTQsMTA3Ljk4OSwzMDAuODQ0QzEwNy45ODksMzA4LjI5NCwxMDcuOTg5LDMxNC44NjEsMTA3Ljk4OSwzMTguMTQ0TDEwNy45ODksMzIxLjQyNyI+PC9wYXRoPjxwYXRoIG1hcmtlci1lbmQ9InVybCgjZ2VNZXJtYWlkT3V0cHV0LTE3MjU1MjI5OTcxMjhfZmxvd2NoYXJ0LXBvaW50RW5kKSIgc3R5bGU9ImZpbGw6bm9uZTsiIGNsYXNzPSJlZGdlLXRoaWNrbmVzcy1ub3JtYWwgZWRnZS1wYXR0ZXJuLXNvbGlkIGZsb3djaGFydC1saW5rIExTLUQ1IExFLUQ1MiIgaWQ9IkwtRDUtRDUyLTAiIGQ9Ik0yODUuNDE1LDIyNi43MjdMMjg1LjQxNSwyMzAuODk0QzI4NS40MTUsMjM1LjA2MSwyODUuNDE1LDI0My4zOTQsMjg1LjQxNSwyNTEuNzI3QzI4NS40MTUsMjYwLjA2MSwyODUuNDE1LDI2OC4zOTQsMjg1LjQxNSwyNzYuNzI3QzI4NS40MTUsMjg1LjA2MSwyODUuNDE1LDI5My4zOTQsMjg1LjQxNSwzMDAuODQ0QzI4NS40MTUsMzA4LjI5NCwyODUuNDE1LDMxNC44NjEsMjg1LjQxNSwzMTguMTQ0TDI4NS40MTUsMzIxLjQyNyI+PC9wYXRoPjxwYXRoIG1hcmtlci1lbmQ9InVybCgjZ2VNZXJtYWlkT3V0cHV0LTE3MjU1MjI5OTcxMjhfZmxvd2NoYXJ0LXBvaW50RW5kKSIgc3R5bGU9ImZpbGw6bm9uZTsiIGNsYXNzPSJlZGdlLXRoaWNrbmVzcy1ub3JtYWwgZWRnZS1wYXR0ZXJuLXNvbGlkIGZsb3djaGFydC1saW5rIExTLUQ1IExFLUQ1MyIgaWQ9IkwtRDUtRDUzLTAiIGQ9Ik0zNTYuNDQ2LDIyNi43MjdMMzczLjkwMiwyMzAuODk0QzM5MS4zNTgsMjM1LjA2MSw0MjYuMjcsMjQzLjM5NCw0NDMuNzI2LDI1MS43MjdDNDYxLjE4MywyNjAuMDYxLDQ2MS4xODMsMjY4LjM5NCw0NjEuMTgzLDI3Ni43MjdDNDYxLjE4MywyODUuMDYxLDQ2MS4xODMsMjkzLjM5NCw0NjEuMTgzLDMwMC44NDRDNDYxLjE4MywzMDguMjk0LDQ2MS4xODMsMzE0Ljg2MSw0NjEuMTgzLDMxOC4xNDRMNDYxLjE4MywzMjEuNDI3Ij48L3BhdGg+PC9nPjxnIGNsYXNzPSJlZGdlTGFiZWxzIj48ZyBjbGFzcz0iZWRnZUxhYmVsIj48ZyB0cmFuc2Zvcm09InRyYW5zbGF0ZSgwLCAwKSIgY2xhc3M9ImxhYmVsIj48cmVjdCBoZWlnaHQ9IjAiIHdpZHRoPSIwIiByeT0iMCIgcng9IjAiPjwvcmVjdD48dGV4dCBzdHlsZT0iIj48dHNwYW4gY2xhc3M9InJvdyIgeD0iMCIgZHk9IjFlbSIgeG1sOnNwYWNlPSJwcmVzZXJ2ZSI+PC90c3Bhbj48L3RleHQ+PC9nPjwvZz48ZyBjbGFzcz0iZWRnZUxhYmVsIj48ZyB0cmFuc2Zvcm09InRyYW5zbGF0ZSgwLCAwKSIgY2xhc3M9ImxhYmVsIj48cmVjdCBoZWlnaHQ9IjAiIHdpZHRoPSIwIiByeT0iMCIgcng9IjAiPjwvcmVjdD48dGV4dCBzdHlsZT0iIj48dHNwYW4gY2xhc3M9InJvdyIgeD0iMCIgZHk9IjFlbSIgeG1sOnNwYWNlPSJwcmVzZXJ2ZSI+PC90c3Bhbj48L3RleHQ+PC9nPjwvZz48ZyBjbGFzcz0iZWRnZUxhYmVsIj48ZyB0cmFuc2Zvcm09InRyYW5zbGF0ZSgwLCAwKSIgY2xhc3M9ImxhYmVsIj48cmVjdCBoZWlnaHQ9IjAiIHdpZHRoPSIwIiByeT0iMCIgcng9IjAiPjwvcmVjdD48dGV4dCBzdHlsZT0iIj48dHNwYW4gY2xhc3M9InJvdyIgeD0iMCIgZHk9IjFlbSIgeG1sOnNwYWNlPSJwcmVzZXJ2ZSI+PC90c3Bhbj48L3RleHQ+PC9nPjwvZz48ZyBjbGFzcz0iZWRnZUxhYmVsIj48ZyB0cmFuc2Zvcm09InRyYW5zbGF0ZSgwLCAwKSIgY2xhc3M9ImxhYmVsIj48cmVjdCBoZWlnaHQ9IjAiIHdpZHRoPSIwIiByeT0iMCIgcng9IjAiPjwvcmVjdD48dGV4dCBzdHlsZT0iIj48dHNwYW4gY2xhc3M9InJvdyIgeD0iMCIgZHk9IjFlbSIgeG1sOnNwYWNlPSJwcmVzZXJ2ZSI+PC90c3Bhbj48L3RleHQ+PC9nPjwvZz48ZyBjbGFzcz0iZWRnZUxhYmVsIj48ZyB0cmFuc2Zvcm09InRyYW5zbGF0ZSgwLCAwKSIgY2xhc3M9ImxhYmVsIj48cmVjdCBoZWlnaHQ9IjAiIHdpZHRoPSIwIiByeT0iMCIgcng9IjAiPjwvcmVjdD48dGV4dCBzdHlsZT0iIj48dHNwYW4gY2xhc3M9InJvdyIgeD0iMCIgZHk9IjFlbSIgeG1sOnNwYWNlPSJwcmVzZXJ2ZSI+PC90c3Bhbj48L3RleHQ+PC9nPjwvZz48ZyBjbGFzcz0iZWRnZUxhYmVsIj48ZyB0cmFuc2Zvcm09InRyYW5zbGF0ZSgwLCAwKSIgY2xhc3M9ImxhYmVsIj48cmVjdCBoZWlnaHQ9IjAiIHdpZHRoPSIwIiByeT0iMCIgcng9IjAiPjwvcmVjdD48dGV4dCBzdHlsZT0iIj48dHNwYW4gY2xhc3M9InJvdyIgeD0iMCIgZHk9IjFlbSIgeG1sOnNwYWNlPSJwcmVzZXJ2ZSI+PC90c3Bhbj48L3RleHQ+PC9nPjwvZz48ZyBjbGFzcz0iZWRnZUxhYmVsIj48ZyB0cmFuc2Zvcm09InRyYW5zbGF0ZSgwLCAwKSIgY2xhc3M9ImxhYmVsIj48cmVjdCBoZWlnaHQ9IjAiIHdpZHRoPSIwIiByeT0iMCIgcng9IjAiPjwvcmVjdD48dGV4dCBzdHlsZT0iIj48dHNwYW4gY2xhc3M9InJvdyIgeD0iMCIgZHk9IjFlbSIgeG1sOnNwYWNlPSJwcmVzZXJ2ZSI+PC90c3Bhbj48L3RleHQ+PC9nPjwvZz48ZyBjbGFzcz0iZWRnZUxhYmVsIj48ZyB0cmFuc2Zvcm09InRyYW5zbGF0ZSgwLCAwKSIgY2xhc3M9ImxhYmVsIj48cmVjdCBoZWlnaHQ9IjAiIHdpZHRoPSIwIiByeT0iMCIgcng9IjAiPjwvcmVjdD48dGV4dCBzdHlsZT0iIj48dHNwYW4gY2xhc3M9InJvdyIgeD0iMCIgZHk9IjFlbSIgeG1sOnNwYWNlPSJwcmVzZXJ2ZSI+PC90c3Bhbj48L3RleHQ+PC9nPjwvZz48ZyBjbGFzcz0iZWRnZUxhYmVsIj48ZyB0cmFuc2Zvcm09InRyYW5zbGF0ZSgwLCAwKSIgY2xhc3M9ImxhYmVsIj48cmVjdCBoZWlnaHQ9IjAiIHdpZHRoPSIwIiByeT0iMCIgcng9IjAiPjwvcmVjdD48dGV4dCBzdHlsZT0iIj48dHNwYW4gY2xhc3M9InJvdyIgeD0iMCIgZHk9IjFlbSIgeG1sOnNwYWNlPSJwcmVzZXJ2ZSI+PC90c3Bhbj48L3RleHQ+PC9nPjwvZz48ZyBjbGFzcz0iZWRnZUxhYmVsIj48ZyB0cmFuc2Zvcm09InRyYW5zbGF0ZSgwLCAwKSIgY2xhc3M9ImxhYmVsIj48cmVjdCBoZWlnaHQ9IjAiIHdpZHRoPSIwIiByeT0iMCIgcng9IjAiPjwvcmVjdD48dGV4dCBzdHlsZT0iIj48dHNwYW4gY2xhc3M9InJvdyIgeD0iMCIgZHk9IjFlbSIgeG1sOnNwYWNlPSJwcmVzZXJ2ZSI+PC90c3Bhbj48L3RleHQ+PC9nPjwvZz48ZyBjbGFzcz0iZWRnZUxhYmVsIj48ZyB0cmFuc2Zvcm09InRyYW5zbGF0ZSgwLCAwKSIgY2xhc3M9ImxhYmVsIj48cmVjdCBoZWlnaHQ9IjAiIHdpZHRoPSIwIiByeT0iMCIgcng9IjAiPjwvcmVjdD48dGV4dCBzdHlsZT0iIj48dHNwYW4gY2xhc3M9InJvdyIgeD0iMCIgZHk9IjFlbSIgeG1sOnNwYWNlPSJwcmVzZXJ2ZSI+PC90c3Bhbj48L3RleHQ+PC9nPjwvZz48ZyBjbGFzcz0iZWRnZUxhYmVsIj48ZyB0cmFuc2Zvcm09InRyYW5zbGF0ZSgwLCAwKSIgY2xhc3M9ImxhYmVsIj48cmVjdCBoZWlnaHQ9IjAiIHdpZHRoPSIwIiByeT0iMCIgcng9IjAiPjwvcmVjdD48dGV4dCBzdHlsZT0iIj48dHNwYW4gY2xhc3M9InJvdyIgeD0iMCIgZHk9IjFlbSIgeG1sOnNwYWNlPSJwcmVzZXJ2ZSI+PC90c3Bhbj48L3RleHQ+PC9nPjwvZz48ZyBjbGFzcz0iZWRnZUxhYmVsIj48ZyB0cmFuc2Zvcm09InRyYW5zbGF0ZSgwLCAwKSIgY2xhc3M9ImxhYmVsIj48cmVjdCBoZWlnaHQ9IjAiIHdpZHRoPSIwIiByeT0iMCIgcng9IjAiPjwvcmVjdD48dGV4dCBzdHlsZT0iIj48dHNwYW4gY2xhc3M9InJvdyIgeD0iMCIgZHk9IjFlbSIgeG1sOnNwYWNlPSJwcmVzZXJ2ZSI+PC90c3Bhbj48L3RleHQ+PC9nPjwvZz48ZyBjbGFzcz0iZWRnZUxhYmVsIj48ZyB0cmFuc2Zvcm09InRyYW5zbGF0ZSgwLCAwKSIgY2xhc3M9ImxhYmVsIj48cmVjdCBoZWlnaHQ9IjAiIHdpZHRoPSIwIiByeT0iMCIgcng9IjAiPjwvcmVjdD48dGV4dCBzdHlsZT0iIj48dHNwYW4gY2xhc3M9InJvdyIgeD0iMCIgZHk9IjFlbSIgeG1sOnNwYWNlPSJwcmVzZXJ2ZSI+PC90c3Bhbj48L3RleHQ+PC9nPjwvZz48ZyBjbGFzcz0iZWRnZUxhYmVsIj48ZyB0cmFuc2Zvcm09InRyYW5zbGF0ZSgwLCAwKSIgY2xhc3M9ImxhYmVsIj48cmVjdCBoZWlnaHQ9IjAiIHdpZHRoPSIwIiByeT0iMCIgcng9IjAiPjwvcmVjdD48dGV4dCBzdHlsZT0iIj48dHNwYW4gY2xhc3M9InJvdyIgeD0iMCIgZHk9IjFlbSIgeG1sOnNwYWNlPSJwcmVzZXJ2ZSI+PC90c3Bhbj48L3RleHQ+PC9nPjwvZz48ZyBjbGFzcz0iZWRnZUxhYmVsIj48ZyB0cmFuc2Zvcm09InRyYW5zbGF0ZSgwLCAwKSIgY2xhc3M9ImxhYmVsIj48cmVjdCBoZWlnaHQ9IjAiIHdpZHRoPSIwIiByeT0iMCIgcng9IjAiPjwvcmVjdD48dGV4dCBzdHlsZT0iIj48dHNwYW4gY2xhc3M9InJvdyIgeD0iMCIgZHk9IjFlbSIgeG1sOnNwYWNlPSJwcmVzZXJ2ZSI+PC90c3Bhbj48L3RleHQ+PC9nPjwvZz48ZyBjbGFzcz0iZWRnZUxhYmVsIj48ZyB0cmFuc2Zvcm09InRyYW5zbGF0ZSgwLCAwKSIgY2xhc3M9ImxhYmVsIj48cmVjdCBoZWlnaHQ9IjAiIHdpZHRoPSIwIiByeT0iMCIgcng9IjAiPjwvcmVjdD48dGV4dCBzdHlsZT0iIj48dHNwYW4gY2xhc3M9InJvdyIgeD0iMCIgZHk9IjFlbSIgeG1sOnNwYWNlPSJwcmVzZXJ2ZSI+PC90c3Bhbj48L3RleHQ+PC9nPjwvZz48ZyBjbGFzcz0iZWRnZUxhYmVsIj48ZyB0cmFuc2Zvcm09InRyYW5zbGF0ZSgwLCAwKSIgY2xhc3M9ImxhYmVsIj48cmVjdCBoZWlnaHQ9IjAiIHdpZHRoPSIwIiByeT0iMCIgcng9IjAiPjwvcmVjdD48dGV4dCBzdHlsZT0iIj48dHNwYW4gY2xhc3M9InJvdyIgeD0iMCIgZHk9IjFlbSIgeG1sOnNwYWNlPSJwcmVzZXJ2ZSI+PC90c3Bhbj48L3RleHQ+PC9nPjwvZz48ZyBjbGFzcz0iZWRnZUxhYmVsIj48ZyB0cmFuc2Zvcm09InRyYW5zbGF0ZSgwLCAwKSIgY2xhc3M9ImxhYmVsIj48cmVjdCBoZWlnaHQ9IjAiIHdpZHRoPSIwIiByeT0iMCIgcng9IjAiPjwvcmVjdD48dGV4dCBzdHlsZT0iIj48dHNwYW4gY2xhc3M9InJvdyIgeD0iMCIgZHk9IjFlbSIgeG1sOnNwYWNlPSJwcmVzZXJ2ZSI+PC90c3Bhbj48L3RleHQ+PC9nPjwvZz48ZyBjbGFzcz0iZWRnZUxhYmVsIj48ZyB0cmFuc2Zvcm09InRyYW5zbGF0ZSgwLCAwKSIgY2xhc3M9ImxhYmVsIj48cmVjdCBoZWlnaHQ9IjAiIHdpZHRoPSIwIiByeT0iMCIgcng9IjAiPjwvcmVjdD48dGV4dCBzdHlsZT0iIj48dHNwYW4gY2xhc3M9InJvdyIgeD0iMCIgZHk9IjFlbSIgeG1sOnNwYWNlPSJwcmVzZXJ2ZSI+PC90c3Bhbj48L3RleHQ+PC9nPjwvZz48ZyBjbGFzcz0iZWRnZUxhYmVsIj48ZyB0cmFuc2Zvcm09InRyYW5zbGF0ZSgwLCAwKSIgY2xhc3M9ImxhYmVsIj48cmVjdCBoZWlnaHQ9IjAiIHdpZHRoPSIwIiByeT0iMCIgcng9IjAiPjwvcmVjdD48dGV4dCBzdHlsZT0iIj48dHNwYW4gY2xhc3M9InJvdyIgeD0iMCIgZHk9IjFlbSIgeG1sOnNwYWNlPSJwcmVzZXJ2ZSI+PC90c3Bhbj48L3RleHQ+PC9nPjwvZz48ZyBjbGFzcz0iZWRnZUxhYmVsIj48ZyB0cmFuc2Zvcm09InRyYW5zbGF0ZSgwLCAwKSIgY2xhc3M9ImxhYmVsIj48cmVjdCBoZWlnaHQ9IjAiIHdpZHRoPSIwIiByeT0iMCIgcng9IjAiPjwvcmVjdD48dGV4dCBzdHlsZT0iIj48dHNwYW4gY2xhc3M9InJvdyIgeD0iMCIgZHk9IjFlbSIgeG1sOnNwYWNlPSJwcmVzZXJ2ZSI+PC90c3Bhbj48L3RleHQ+PC9nPjwvZz48ZyBjbGFzcz0iZWRnZUxhYmVsIj48ZyB0cmFuc2Zvcm09InRyYW5zbGF0ZSgwLCAwKSIgY2xhc3M9ImxhYmVsIj48cmVjdCBoZWlnaHQ9IjAiIHdpZHRoPSIwIiByeT0iMCIgcng9IjAiPjwvcmVjdD48dGV4dCBzdHlsZT0iIj48dHNwYW4gY2xhc3M9InJvdyIgeD0iMCIgZHk9IjFlbSIgeG1sOnNwYWNlPSJwcmVzZXJ2ZSI+PC90c3Bhbj48L3RleHQ+PC9nPjwvZz48ZyBjbGFzcz0iZWRnZUxhYmVsIj48ZyB0cmFuc2Zvcm09InRyYW5zbGF0ZSgwLCAwKSIgY2xhc3M9ImxhYmVsIj48cmVjdCBoZWlnaHQ9IjAiIHdpZHRoPSIwIiByeT0iMCIgcng9IjAiPjwvcmVjdD48dGV4dCBzdHlsZT0iIj48dHNwYW4gY2xhc3M9InJvdyIgeD0iMCIgZHk9IjFlbSIgeG1sOnNwYWNlPSJwcmVzZXJ2ZSI+PC90c3Bhbj48L3RleHQ+PC9nPjwvZz48ZyBjbGFzcz0iZWRnZUxhYmVsIj48ZyB0cmFuc2Zvcm09InRyYW5zbGF0ZSgwLCAwKSIgY2xhc3M9ImxhYmVsIj48cmVjdCBoZWlnaHQ9IjAiIHdpZHRoPSIwIiByeT0iMCIgcng9IjAiPjwvcmVjdD48dGV4dCBzdHlsZT0iIj48dHNwYW4gY2xhc3M9InJvdyIgeD0iMCIgZHk9IjFlbSIgeG1sOnNwYWNlPSJwcmVzZXJ2ZSI+PC90c3Bhbj48L3RleHQ+PC9nPjwvZz48ZyBjbGFzcz0iZWRnZUxhYmVsIj48ZyB0cmFuc2Zvcm09InRyYW5zbGF0ZSgwLCAwKSIgY2xhc3M9ImxhYmVsIj48cmVjdCBoZWlnaHQ9IjAiIHdpZHRoPSIwIiByeT0iMCIgcng9IjAiPjwvcmVjdD48dGV4dCBzdHlsZT0iIj48dHNwYW4gY2xhc3M9InJvdyIgeD0iMCIgZHk9IjFlbSIgeG1sOnNwYWNlPSJwcmVzZXJ2ZSI+PC90c3Bhbj48L3RleHQ+PC9nPjwvZz48ZyBjbGFzcz0iZWRnZUxhYmVsIj48ZyB0cmFuc2Zvcm09InRyYW5zbGF0ZSgwLCAwKSIgY2xhc3M9ImxhYmVsIj48cmVjdCBoZWlnaHQ9IjAiIHdpZHRoPSIwIiByeT0iMCIgcng9IjAiPjwvcmVjdD48dGV4dCBzdHlsZT0iIj48dHNwYW4gY2xhc3M9InJvdyIgeD0iMCIgZHk9IjFlbSIgeG1sOnNwYWNlPSJwcmVzZXJ2ZSI+PC90c3Bhbj48L3RleHQ+PC9nPjwvZz48ZyBjbGFzcz0iZWRnZUxhYmVsIj48ZyB0cmFuc2Zvcm09InRyYW5zbGF0ZSgwLCAwKSIgY2xhc3M9ImxhYmVsIj48cmVjdCBoZWlnaHQ9IjAiIHdpZHRoPSIwIiByeT0iMCIgcng9IjAiPjwvcmVjdD48dGV4dCBzdHlsZT0iIj48dHNwYW4gY2xhc3M9InJvdyIgeD0iMCIgZHk9IjFlbSIgeG1sOnNwYWNlPSJwcmVzZXJ2ZSI+PC90c3Bhbj48L3RleHQ+PC9nPjwvZz48ZyBjbGFzcz0iZWRnZUxhYmVsIj48ZyB0cmFuc2Zvcm09InRyYW5zbGF0ZSgwLCAwKSIgY2xhc3M9ImxhYmVsIj48cmVjdCBoZWlnaHQ9IjAiIHdpZHRoPSIwIiByeT0iMCIgcng9IjAiPjwvcmVjdD48dGV4dCBzdHlsZT0iIj48dHNwYW4gY2xhc3M9InJvdyIgeD0iMCIgZHk9IjFlbSIgeG1sOnNwYWNlPSJwcmVzZXJ2ZSI+PC90c3Bhbj48L3RleHQ+PC9nPjwvZz48ZyBjbGFzcz0iZWRnZUxhYmVsIj48ZyB0cmFuc2Zvcm09InRyYW5zbGF0ZSgwLCAwKSIgY2xhc3M9ImxhYmVsIj48cmVjdCBoZWlnaHQ9IjAiIHdpZHRoPSIwIiByeT0iMCIgcng9IjAiPjwvcmVjdD48dGV4dCBzdHlsZT0iIj48dHNwYW4gY2xhc3M9InJvdyIgeD0iMCIgZHk9IjFlbSIgeG1sOnNwYWNlPSJwcmVzZXJ2ZSI+PC90c3Bhbj48L3RleHQ+PC9nPjwvZz48ZyBjbGFzcz0iZWRnZUxhYmVsIj48ZyB0cmFuc2Zvcm09InRyYW5zbGF0ZSgwLCAwKSIgY2xhc3M9ImxhYmVsIj48cmVjdCBoZWlnaHQ9IjAiIHdpZHRoPSIwIiByeT0iMCIgcng9IjAiPjwvcmVjdD48dGV4dCBzdHlsZT0iIj48dHNwYW4gY2xhc3M9InJvdyIgeD0iMCIgZHk9IjFlbSIgeG1sOnNwYWNlPSJwcmVzZXJ2ZSI+PC90c3Bhbj48L3RleHQ+PC9nPjwvZz48ZyBjbGFzcz0iZWRnZUxhYmVsIj48ZyB0cmFuc2Zvcm09InRyYW5zbGF0ZSgwLCAwKSIgY2xhc3M9ImxhYmVsIj48cmVjdCBoZWlnaHQ9IjAiIHdpZHRoPSIwIiByeT0iMCIgcng9IjAiPjwvcmVjdD48dGV4dCBzdHlsZT0iIj48dHNwYW4gY2xhc3M9InJvdyIgeD0iMCIgZHk9IjFlbSIgeG1sOnNwYWNlPSJwcmVzZXJ2ZSI+PC90c3Bhbj48L3RleHQ+PC9nPjwvZz48ZyBjbGFzcz0iZWRnZUxhYmVsIj48ZyB0cmFuc2Zvcm09InRyYW5zbGF0ZSgwLCAwKSIgY2xhc3M9ImxhYmVsIj48cmVjdCBoZWlnaHQ9IjAiIHdpZHRoPSIwIiByeT0iMCIgcng9IjAiPjwvcmVjdD48dGV4dCBzdHlsZT0iIj48dHNwYW4gY2xhc3M9InJvdyIgeD0iMCIgZHk9IjFlbSIgeG1sOnNwYWNlPSJwcmVzZXJ2ZSI+PC90c3Bhbj48L3RleHQ+PC9nPjwvZz48ZyBjbGFzcz0iZWRnZUxhYmVsIj48ZyB0cmFuc2Zvcm09InRyYW5zbGF0ZSgwLCAwKSIgY2xhc3M9ImxhYmVsIj48cmVjdCBoZWlnaHQ9IjAiIHdpZHRoPSIwIiByeT0iMCIgcng9IjAiPjwvcmVjdD48dGV4dCBzdHlsZT0iIj48dHNwYW4gY2xhc3M9InJvdyIgeD0iMCIgZHk9IjFlbSIgeG1sOnNwYWNlPSJwcmVzZXJ2ZSI+PC90c3Bhbj48L3RleHQ+PC9nPjwvZz48ZyBjbGFzcz0iZWRnZUxhYmVsIj48ZyB0cmFuc2Zvcm09InRyYW5zbGF0ZSgwLCAwKSIgY2xhc3M9ImxhYmVsIj48cmVjdCBoZWlnaHQ9IjAiIHdpZHRoPSIwIiByeT0iMCIgcng9IjAiPjwvcmVjdD48dGV4dCBzdHlsZT0iIj48dHNwYW4gY2xhc3M9InJvdyIgeD0iMCIgZHk9IjFlbSIgeG1sOnNwYWNlPSJwcmVzZXJ2ZSI+PC90c3Bhbj48L3RleHQ+PC9nPjwvZz48ZyBjbGFzcz0iZWRnZUxhYmVsIj48ZyB0cmFuc2Zvcm09InRyYW5zbGF0ZSgwLCAwKSIgY2xhc3M9ImxhYmVsIj48cmVjdCBoZWlnaHQ9IjAiIHdpZHRoPSIwIiByeT0iMCIgcng9IjAiPjwvcmVjdD48dGV4dCBzdHlsZT0iIj48dHNwYW4gY2xhc3M9InJvdyIgeD0iMCIgZHk9IjFlbSIgeG1sOnNwYWNlPSJwcmVzZXJ2ZSI+PC90c3Bhbj48L3RleHQ+PC9nPjwvZz48ZyBjbGFzcz0iZWRnZUxhYmVsIj48ZyB0cmFuc2Zvcm09InRyYW5zbGF0ZSgwLCAwKSIgY2xhc3M9ImxhYmVsIj48cmVjdCBoZWlnaHQ9IjAiIHdpZHRoPSIwIiByeT0iMCIgcng9IjAiPjwvcmVjdD48dGV4dCBzdHlsZT0iIj48dHNwYW4gY2xhc3M9InJvdyIgeD0iMCIgZHk9IjFlbSIgeG1sOnNwYWNlPSJwcmVzZXJ2ZSI+PC90c3Bhbj48L3RleHQ+PC9nPjwvZz48ZyBjbGFzcz0iZWRnZUxhYmVsIj48ZyB0cmFuc2Zvcm09InRyYW5zbGF0ZSgwLCAwKSIgY2xhc3M9ImxhYmVsIj48cmVjdCBoZWlnaHQ9IjAiIHdpZHRoPSIwIiByeT0iMCIgcng9IjAiPjwvcmVjdD48dGV4dCBzdHlsZT0iIj48dHNwYW4gY2xhc3M9InJvdyIgeD0iMCIgZHk9IjFlbSIgeG1sOnNwYWNlPSJwcmVzZXJ2ZSI+PC90c3Bhbj48L3RleHQ+PC9nPjwvZz48ZyBjbGFzcz0iZWRnZUxhYmVsIj48ZyB0cmFuc2Zvcm09InRyYW5zbGF0ZSgwLCAwKSIgY2xhc3M9ImxhYmVsIj48cmVjdCBoZWlnaHQ9IjAiIHdpZHRoPSIwIiByeT0iMCIgcng9IjAiPjwvcmVjdD48dGV4dCBzdHlsZT0iIj48dHNwYW4gY2xhc3M9InJvdyIgeD0iMCIgZHk9IjFlbSIgeG1sOnNwYWNlPSJwcmVzZXJ2ZSI+PC90c3Bhbj48L3RleHQ+PC9nPjwvZz48ZyBjbGFzcz0iZWRnZUxhYmVsIj48ZyB0cmFuc2Zvcm09InRyYW5zbGF0ZSgwLCAwKSIgY2xhc3M9ImxhYmVsIj48cmVjdCBoZWlnaHQ9IjAiIHdpZHRoPSIwIiByeT0iMCIgcng9IjAiPjwvcmVjdD48dGV4dCBzdHlsZT0iIj48dHNwYW4gY2xhc3M9InJvdyIgeD0iMCIgZHk9IjFlbSIgeG1sOnNwYWNlPSJwcmVzZXJ2ZSI+PC90c3Bhbj48L3RleHQ+PC9nPjwvZz48ZyBjbGFzcz0iZWRnZUxhYmVsIj48ZyB0cmFuc2Zvcm09InRyYW5zbGF0ZSgwLCAwKSIgY2xhc3M9ImxhYmVsIj48cmVjdCBoZWlnaHQ9IjAiIHdpZHRoPSIwIiByeT0iMCIgcng9IjAiPjwvcmVjdD48dGV4dCBzdHlsZT0iIj48dHNwYW4gY2xhc3M9InJvdyIgeD0iMCIgZHk9IjFlbSIgeG1sOnNwYWNlPSJwcmVzZXJ2ZSI+PC90c3Bhbj48L3RleHQ+PC9nPjwvZz48ZyBjbGFzcz0iZWRnZUxhYmVsIj48ZyB0cmFuc2Zvcm09InRyYW5zbGF0ZSgwLCAwKSIgY2xhc3M9ImxhYmVsIj48cmVjdCBoZWlnaHQ9IjAiIHdpZHRoPSIwIiByeT0iMCIgcng9IjAiPjwvcmVjdD48dGV4dCBzdHlsZT0iIj48dHNwYW4gY2xhc3M9InJvdyIgeD0iMCIgZHk9IjFlbSIgeG1sOnNwYWNlPSJwcmVzZXJ2ZSI+PC90c3Bhbj48L3RleHQ+PC9nPjwvZz48ZyBjbGFzcz0iZWRnZUxhYmVsIj48ZyB0cmFuc2Zvcm09InRyYW5zbGF0ZSgwLCAwKSIgY2xhc3M9ImxhYmVsIj48cmVjdCBoZWlnaHQ9IjAiIHdpZHRoPSIwIiByeT0iMCIgcng9IjAiPjwvcmVjdD48dGV4dCBzdHlsZT0iIj48dHNwYW4gY2xhc3M9InJvdyIgeD0iMCIgZHk9IjFlbSIgeG1sOnNwYWNlPSJwcmVzZXJ2ZSI+PC90c3Bhbj48L3RleHQ+PC9nPjwvZz48ZyBjbGFzcz0iZWRnZUxhYmVsIj48ZyB0cmFuc2Zvcm09InRyYW5zbGF0ZSgwLCAwKSIgY2xhc3M9ImxhYmVsIj48cmVjdCBoZWlnaHQ9IjAiIHdpZHRoPSIwIiByeT0iMCIgcng9IjAiPjwvcmVjdD48dGV4dCBzdHlsZT0iIj48dHNwYW4gY2xhc3M9InJvdyIgeD0iMCIgZHk9IjFlbSIgeG1sOnNwYWNlPSJwcmVzZXJ2ZSI+PC90c3Bhbj48L3RleHQ+PC9nPjwvZz48ZyBjbGFzcz0iZWRnZUxhYmVsIj48ZyB0cmFuc2Zvcm09InRyYW5zbGF0ZSgwLCAwKSIgY2xhc3M9ImxhYmVsIj48cmVjdCBoZWlnaHQ9IjAiIHdpZHRoPSIwIiByeT0iMCIgcng9IjAiPjwvcmVjdD48dGV4dCBzdHlsZT0iIj48dHNwYW4gY2xhc3M9InJvdyIgeD0iMCIgZHk9IjFlbSIgeG1sOnNwYWNlPSJwcmVzZXJ2ZSI+PC90c3Bhbj48L3RleHQ+PC9nPjwvZz48ZyBjbGFzcz0iZWRnZUxhYmVsIj48ZyB0cmFuc2Zvcm09InRyYW5zbGF0ZSgwLCAwKSIgY2xhc3M9ImxhYmVsIj48cmVjdCBoZWlnaHQ9IjAiIHdpZHRoPSIwIiByeT0iMCIgcng9IjAiPjwvcmVjdD48dGV4dCBzdHlsZT0iIj48dHNwYW4gY2xhc3M9InJvdyIgeD0iMCIgZHk9IjFlbSIgeG1sOnNwYWNlPSJwcmVzZXJ2ZSI+PC90c3Bhbj48L3RleHQ+PC9nPjwvZz48ZyBjbGFzcz0iZWRnZUxhYmVsIj48ZyB0cmFuc2Zvcm09InRyYW5zbGF0ZSgwLCAwKSIgY2xhc3M9ImxhYmVsIj48cmVjdCBoZWlnaHQ9IjAiIHdpZHRoPSIwIiByeT0iMCIgcng9IjAiPjwvcmVjdD48dGV4dCBzdHlsZT0iIj48dHNwYW4gY2xhc3M9InJvdyIgeD0iMCIgZHk9IjFlbSIgeG1sOnNwYWNlPSJwcmVzZXJ2ZSI+PC90c3Bhbj48L3RleHQ+PC9nPjwvZz48ZyBjbGFzcz0iZWRnZUxhYmVsIj48ZyB0cmFuc2Zvcm09InRyYW5zbGF0ZSgwLCAwKSIgY2xhc3M9ImxhYmVsIj48cmVjdCBoZWlnaHQ9IjAiIHdpZHRoPSIwIiByeT0iMCIgcng9IjAiPjwvcmVjdD48dGV4dCBzdHlsZT0iIj48dHNwYW4gY2xhc3M9InJvdyIgeD0iMCIgZHk9IjFlbSIgeG1sOnNwYWNlPSJwcmVzZXJ2ZSI+PC90c3Bhbj48L3RleHQ+PC9nPjwvZz48ZyBjbGFzcz0iZWRnZUxhYmVsIj48ZyB0cmFuc2Zvcm09InRyYW5zbGF0ZSgwLCAwKSIgY2xhc3M9ImxhYmVsIj48cmVjdCBoZWlnaHQ9IjAiIHdpZHRoPSIwIiByeT0iMCIgcng9IjAiPjwvcmVjdD48dGV4dCBzdHlsZT0iIj48dHNwYW4gY2xhc3M9InJvdyIgeD0iMCIgZHk9IjFlbSIgeG1sOnNwYWNlPSJwcmVzZXJ2ZSI+PC90c3Bhbj48L3RleHQ+PC9nPjwvZz48ZyBjbGFzcz0iZWRnZUxhYmVsIj48ZyB0cmFuc2Zvcm09InRyYW5zbGF0ZSgwLCAwKSIgY2xhc3M9ImxhYmVsIj48cmVjdCBoZWlnaHQ9IjAiIHdpZHRoPSIwIiByeT0iMCIgcng9IjAiPjwvcmVjdD48dGV4dCBzdHlsZT0iIj48dHNwYW4gY2xhc3M9InJvdyIgeD0iMCIgZHk9IjFlbSIgeG1sOnNwYWNlPSJwcmVzZXJ2ZSI+PC90c3Bhbj48L3RleHQ+PC9nPjwvZz48ZyBjbGFzcz0iZWRnZUxhYmVsIj48ZyB0cmFuc2Zvcm09InRyYW5zbGF0ZSgwLCAwKSIgY2xhc3M9ImxhYmVsIj48cmVjdCBoZWlnaHQ9IjAiIHdpZHRoPSIwIiByeT0iMCIgcng9IjAiPjwvcmVjdD48dGV4dCBzdHlsZT0iIj48dHNwYW4gY2xhc3M9InJvdyIgeD0iMCIgZHk9IjFlbSIgeG1sOnNwYWNlPSJwcmVzZXJ2ZSI+PC90c3Bhbj48L3RleHQ+PC9nPjwvZz48ZyBjbGFzcz0iZWRnZUxhYmVsIj48ZyB0cmFuc2Zvcm09InRyYW5zbGF0ZSgwLCAwKSIgY2xhc3M9ImxhYmVsIj48cmVjdCBoZWlnaHQ9IjAiIHdpZHRoPSIwIiByeT0iMCIgcng9IjAiPjwvcmVjdD48dGV4dCBzdHlsZT0iIj48dHNwYW4gY2xhc3M9InJvdyIgeD0iMCIgZHk9IjFlbSIgeG1sOnNwYWNlPSJwcmVzZXJ2ZSI+PC90c3Bhbj48L3RleHQ+PC9nPjwvZz48ZyBjbGFzcz0iZWRnZUxhYmVsIj48ZyB0cmFuc2Zvcm09InRyYW5zbGF0ZSgwLCAwKSIgY2xhc3M9ImxhYmVsIj48cmVjdCBoZWlnaHQ9IjAiIHdpZHRoPSIwIiByeT0iMCIgcng9IjAiPjwvcmVjdD48dGV4dCBzdHlsZT0iIj48dHNwYW4gY2xhc3M9InJvdyIgeD0iMCIgZHk9IjFlbSIgeG1sOnNwYWNlPSJwcmVzZXJ2ZSI+PC90c3Bhbj48L3RleHQ+PC9nPjwvZz48ZyBjbGFzcz0iZWRnZUxhYmVsIj48ZyB0cmFuc2Zvcm09InRyYW5zbGF0ZSgwLCAwKSIgY2xhc3M9ImxhYmVsIj48cmVjdCBoZWlnaHQ9IjAiIHdpZHRoPSIwIiByeT0iMCIgcng9IjAiPjwvcmVjdD48dGV4dCBzdHlsZT0iIj48dHNwYW4gY2xhc3M9InJvdyIgeD0iMCIgZHk9IjFlbSIgeG1sOnNwYWNlPSJwcmVzZXJ2ZSI+PC90c3Bhbj48L3RleHQ+PC9nPjwvZz48ZyBjbGFzcz0iZWRnZUxhYmVsIj48ZyB0cmFuc2Zvcm09InRyYW5zbGF0ZSgwLCAwKSIgY2xhc3M9ImxhYmVsIj48cmVjdCBoZWlnaHQ9IjAiIHdpZHRoPSIwIiByeT0iMCIgcng9IjAiPjwvcmVjdD48dGV4dCBzdHlsZT0iIj48dHNwYW4gY2xhc3M9InJvdyIgeD0iMCIgZHk9IjFlbSIgeG1sOnNwYWNlPSJwcmVzZXJ2ZSI+PC90c3Bhbj48L3RleHQ+PC9nPjwvZz48ZyBjbGFzcz0iZWRnZUxhYmVsIj48ZyB0cmFuc2Zvcm09InRyYW5zbGF0ZSgwLCAwKSIgY2xhc3M9ImxhYmVsIj48cmVjdCBoZWlnaHQ9IjAiIHdpZHRoPSIwIiByeT0iMCIgcng9IjAiPjwvcmVjdD48dGV4dCBzdHlsZT0iIj48dHNwYW4gY2xhc3M9InJvdyIgeD0iMCIgZHk9IjFlbSIgeG1sOnNwYWNlPSJwcmVzZXJ2ZSI+PC90c3Bhbj48L3RleHQ+PC9nPjwvZz48ZyBjbGFzcz0iZWRnZUxhYmVsIj48ZyB0cmFuc2Zvcm09InRyYW5zbGF0ZSgwLCAwKSIgY2xhc3M9ImxhYmVsIj48cmVjdCBoZWlnaHQ9IjAiIHdpZHRoPSIwIiByeT0iMCIgcng9IjAiPjwvcmVjdD48dGV4dCBzdHlsZT0iIj48dHNwYW4gY2xhc3M9InJvdyIgeD0iMCIgZHk9IjFlbSIgeG1sOnNwYWNlPSJwcmVzZXJ2ZSI+PC90c3Bhbj48L3RleHQ+PC9nPjwvZz48ZyBjbGFzcz0iZWRnZUxhYmVsIj48ZyB0cmFuc2Zvcm09InRyYW5zbGF0ZSgwLCAwKSIgY2xhc3M9ImxhYmVsIj48cmVjdCBoZWlnaHQ9IjAiIHdpZHRoPSIwIiByeT0iMCIgcng9IjAiPjwvcmVjdD48dGV4dCBzdHlsZT0iIj48dHNwYW4gY2xhc3M9InJvdyIgeD0iMCIgZHk9IjFlbSIgeG1sOnNwYWNlPSJwcmVzZXJ2ZSI+PC90c3Bhbj48L3RleHQ+PC9nPjwvZz48ZyBjbGFzcz0iZWRnZUxhYmVsIj48ZyB0cmFuc2Zvcm09InRyYW5zbGF0ZSgwLCAwKSIgY2xhc3M9ImxhYmVsIj48cmVjdCBoZWlnaHQ9IjAiIHdpZHRoPSIwIiByeT0iMCIgcng9IjAiPjwvcmVjdD48dGV4dCBzdHlsZT0iIj48dHNwYW4gY2xhc3M9InJvdyIgeD0iMCIgZHk9IjFlbSIgeG1sOnNwYWNlPSJwcmVzZXJ2ZSI+PC90c3Bhbj48L3RleHQ+PC9nPjwvZz48L2c+PGcgY2xhc3M9Im5vZGVzIj48ZyB0cmFuc2Zvcm09InRyYW5zbGF0ZSgxMDcuOTg4NjM5ODMxNTQyOTcsIDM0My42ODE4MjE4MjMxMjAxKSIgZGF0YS1pZD0iRDUxIiBkYXRhLW5vZGU9InRydWUiIGlkPSJmbG93Y2hhcnQtRDUxLTI3NiIgY2xhc3M9Im5vZGUgZGVmYXVsdCBkZWZhdWx0IGZsb3djaGFydC1sYWJlbCI+PHJlY3QgaGVpZ2h0PSIzMy45MDkwOTE5NDk0NjI4OSIgd2lkdGg9IjE0NS45NzcyNzk2NjMwODU5NCIgeT0iLTE2Ljk1NDU0NTk3NDczMTQ0NSIgeD0iLTcyLjk4ODYzOTgzMTU0Mjk3IiByeT0iMCIgcng9IjAiIHN0eWxlPSIiIGNsYXNzPSJiYXNpYyBsYWJlbC1jb250YWluZXIiPjwvcmVjdD48ZyB0cmFuc2Zvcm09InRyYW5zbGF0ZSgwLCAtOS40NTQ1NDU5NzQ3MzE0NDUpIiBzdHlsZT0iIiBjbGFzcz0ibGFiZWwiPjxyZWN0PjwvcmVjdD48dGV4dCBzdHlsZT0iIj48dHNwYW4gY2xhc3M9InJvdyIgeD0iMCIgZHk9IjFlbSIgeG1sOnNwYWNlPSJwcmVzZXJ2ZSI+aW52ZXN0bWVudCBhZHZpY2U8L3RzcGFuPjwvdGV4dD48L2c+PC9nPjxnIHRyYW5zZm9ybT0idHJhbnNsYXRlKDI4NS40MTUxMzQ0Mjk5MzE2NCwgMzQzLjY4MTgyMTgyMzEyMDEpIiBkYXRhLWlkPSJENTIiIGRhdGEtbm9kZT0idHJ1ZSIgaWQ9ImZsb3djaGFydC1ENTItMjc4IiBjbGFzcz0ibm9kZSBkZWZhdWx0IGRlZmF1bHQgZmxvd2NoYXJ0LWxhYmVsIj48cmVjdCBoZWlnaHQ9IjMzLjkwOTA5MTk0OTQ2Mjg5IiB3aWR0aD0iMTA4Ljg3NTcwOTUzMzY5MTQiIHk9Ii0xNi45NTQ1NDU5NzQ3MzE0NDUiIHg9Ii01NC40Mzc4NTQ3NjY4NDU3IiByeT0iMCIgcng9IjAiIHN0eWxlPSIiIGNsYXNzPSJiYXNpYyBsYWJlbC1jb250YWluZXIiPjwvcmVjdD48ZyB0cmFuc2Zvcm09InRyYW5zbGF0ZSgwLCAtOS40NTQ1NDU5NzQ3MzE0NDUpIiBzdHlsZT0iIiBjbGFzcz0ibGFiZWwiPjxyZWN0PjwvcmVjdD48dGV4dCBzdHlsZT0iIj48dHNwYW4gY2xhc3M9InJvdyIgeD0iMCIgZHk9IjFlbSIgeG1sOnNwYWNlPSJwcmVzZXJ2ZSI+Y3JlZGl0IGFkdmljZTwvdHNwYW4+PC90ZXh0PjwvZz48L2c+PGcgdHJhbnNmb3JtPSJ0cmFuc2xhdGUoNDYxLjE4MjUzMzI2NDE2MDE2LCAzNDMuNjgxODIxODIzMTIwMSkiIGRhdGEtaWQ9IkQ1MyIgZGF0YS1ub2RlPSJ0cnVlIiBpZD0iZmxvd2NoYXJ0LUQ1My0yODAiIGNsYXNzPSJub2RlIGRlZmF1bHQgZGVmYXVsdCBmbG93Y2hhcnQtbGFiZWwiPjxyZWN0IGhlaWdodD0iMzMuOTA5MDkxOTQ5NDYyODkiIHdpZHRoPSIxNDIuNjU5MDk1NzY0MTYwMTYiIHk9Ii0xNi45NTQ1NDU5NzQ3MzE0NDUiIHg9Ii03MS4zMjk1NDc4ODIwODAwOCIgcnk9IjAiIHJ4PSIwIiBzdHlsZT0iIiBjbGFzcz0iYmFzaWMgbGFiZWwtY29udGFpbmVyIj48L3JlY3Q+PGcgdHJhbnNmb3JtPSJ0cmFuc2xhdGUoMCwgLTkuNDU0NTQ1OTc0NzMxNDQ1KSIgc3R5bGU9IiIgY2xhc3M9ImxhYmVsIj48cmVjdD48L3JlY3Q+PHRleHQgc3R5bGU9IiI+PHRzcGFuIGNsYXNzPSJyb3ciIHg9IjAiIGR5PSIxZW0iIHhtbDpzcGFjZT0icHJlc2VydmUiPmZpbmFuY2lhbCBwbGFubmluZzwvdHNwYW4+PC90ZXh0PjwvZz48L2c+PGcgdHJhbnNmb3JtPSJ0cmFuc2xhdGUoNjc2LjMzMTY4MDI5Nzg1MTYsIDM0My42ODE4MjE4MjMxMjAxKSIgZGF0YS1pZD0iRDQxIiBkYXRhLW5vZGU9InRydWUiIGlkPSJmbG93Y2hhcnQtRDQxLTI3MCIgY2xhc3M9Im5vZGUgZGVmYXVsdCBkZWZhdWx0IGZsb3djaGFydC1sYWJlbCI+PHJlY3QgaGVpZ2h0PSIzMy45MDkwOTE5NDk0NjI4OSIgd2lkdGg9IjEwNy42MzkyMDU5MzI2MTcxOSIgeT0iLTE2Ljk1NDU0NTk3NDczMTQ0NSIgeD0iLTUzLjgxOTYwMjk2NjMwODU5NCIgcnk9IjAiIHJ4PSIwIiBzdHlsZT0iIiBjbGFzcz0iYmFzaWMgbGFiZWwtY29udGFpbmVyIj48L3JlY3Q+PGcgdHJhbnNmb3JtPSJ0cmFuc2xhdGUoMCwgLTkuNDU0NTQ1OTc0NzMxNDQ1KSIgc3R5bGU9IiIgY2xhc3M9ImxhYmVsIj48cmVjdD48L3JlY3Q+PHRleHQgc3R5bGU9IiI+PHRzcGFuIGNsYXNzPSJyb3ciIHg9IjAiIGR5PSIxZW0iIHhtbDpzcGFjZT0icHJlc2VydmUiPmRhdGEgYW5hbHlzaXM8L3RzcGFuPjwvdGV4dD48L2c+PC9nPjxnIHRyYW5zZm9ybT0idHJhbnNsYXRlKDg1MC44NjcxOTUxMjkzOTQ1LCAzNDMuNjgxODIxODIzMTIwMSkiIGRhdGEtaWQ9IkQ0MiIgZGF0YS1ub2RlPSJ0cnVlIiBpZD0iZmxvd2NoYXJ0LUQ0Mi0yNzIiIGNsYXNzPSJub2RlIGRlZmF1bHQgZGVmYXVsdCBmbG93Y2hhcnQtbGFiZWwiPjxyZWN0IGhlaWdodD0iMzMuOTA5MDkxOTQ5NDYyODkiIHdpZHRoPSIxNDEuNDMxODIzNzMwNDY4NzUiIHk9Ii0xNi45NTQ1NDU5NzQ3MzE0NDUiIHg9Ii03MC43MTU5MTE4NjUyMzQzOCIgcnk9IjAiIHJ4PSIwIiBzdHlsZT0iIiBjbGFzcz0iYmFzaWMgbGFiZWwtY29udGFpbmVyIj48L3JlY3Q+PGcgdHJhbnNmb3JtPSJ0cmFuc2xhdGUoMCwgLTkuNDU0NTQ1OTc0NzMxNDQ1KSIgc3R5bGU9IiIgY2xhc3M9ImxhYmVsIj48cmVjdD48L3JlY3Q+PHRleHQgc3R5bGU9IiI+PHRzcGFuIGNsYXNzPSJyb3ciIHg9IjAiIGR5PSIxZW0iIHhtbDpzcGFjZT0icHJlc2VydmUiPmRhdGEgdmlzdWFsaXphdGlvbjwvdHNwYW4+PC90ZXh0PjwvZz48L2c+PGcgdHJhbnNmb3JtPSJ0cmFuc2xhdGUoMTAyMS40OTIxOTg5NDQwOTE4LCAzNDMuNjgxODIxODIzMTIwMSkiIGRhdGEtaWQ9IkQ0MyIgZGF0YS1ub2RlPSJ0cnVlIiBpZD0iZmxvd2NoYXJ0LUQ0My0yNzQiIGNsYXNzPSJub2RlIGRlZmF1bHQgZGVmYXVsdCBmbG93Y2hhcnQtbGFiZWwiPjxyZWN0IGhlaWdodD0iMzMuOTA5MDkxOTQ5NDYyODkiIHdpZHRoPSI5OS44MTgxODM4OTg5MjU3OCIgeT0iLTE2Ljk1NDU0NTk3NDczMTQ0NSIgeD0iLTQ5LjkwOTA5MTk0OTQ2Mjg5IiByeT0iMCIgcng9IjAiIHN0eWxlPSIiIGNsYXNzPSJiYXNpYyBsYWJlbC1jb250YWluZXIiPjwvcmVjdD48ZyB0cmFuc2Zvcm09InRyYW5zbGF0ZSgwLCAtOS40NTQ1NDU5NzQ3MzE0NDUpIiBzdHlsZT0iIiBjbGFzcz0ibGFiZWwiPjxyZWN0PjwvcmVjdD48dGV4dCBzdHlsZT0iIj48dHNwYW4gY2xhc3M9InJvdyIgeD0iMCIgZHk9IjFlbSIgeG1sOnNwYWNlPSJwcmVzZXJ2ZSI+ZGF0YSBtaW5pbmc8L3RzcGFuPjwvdGV4dD48L2c+PC9nPjxnIHRyYW5zZm9ybT0idHJhbnNsYXRlKDEyMjMuNzMwODM0OTYwOTM3NSwgMzQzLjY4MTgyMTgyMzEyMDEpIiBkYXRhLWlkPSJEMzEiIGRhdGEtbm9kZT0idHJ1ZSIgaWQ9ImZsb3djaGFydC1EMzEtMjY0IiBjbGFzcz0ibm9kZSBkZWZhdWx0IGRlZmF1bHQgZmxvd2NoYXJ0LWxhYmVsIj48cmVjdCBoZWlnaHQ9IjMzLjkwOTA5MTk0OTQ2Mjg5IiB3aWR0aD0iMTI0LjY1OTA5NTc2NDE2MDE2IiB5PSItMTYuOTU0NTQ1OTc0NzMxNDQ1IiB4PSItNjIuMzI5NTQ3ODgyMDgwMDgiIHJ5PSIwIiByeD0iMCIgc3R5bGU9IiIgY2xhc3M9ImJhc2ljIGxhYmVsLWNvbnRhaW5lciI+PC9yZWN0PjxnIHRyYW5zZm9ybT0idHJhbnNsYXRlKDAsIC05LjQ1NDU0NTk3NDczMTQ0NSkiIHN0eWxlPSIiIGNsYXNzPSJsYWJlbCI+PHJlY3Q+PC9yZWN0Pjx0ZXh0IHN0eWxlPSIiPjx0c3BhbiBjbGFzcz0icm93IiB4PSIwIiBkeT0iMWVtIiB4bWw6c3BhY2U9InByZXNlcnZlIj5lcnJvciBkZXRlY3Rpb248L3RzcGFuPjwvdGV4dD48L2c+PC9nPjxnIHRyYW5zZm9ybT0idHJhbnNsYXRlKDEzOTcuMTI4NTU5MTEyNTQ4OCwgMzQzLjY4MTgyMTgyMzEyMDEpIiBkYXRhLWlkPSJEMzIiIGRhdGEtbm9kZT0idHJ1ZSIgaWQ9ImZsb3djaGFydC1EMzItMjY2IiBjbGFzcz0ibm9kZSBkZWZhdWx0IGRlZmF1bHQgZmxvd2NoYXJ0LWxhYmVsIj48cmVjdCBoZWlnaHQ9IjMzLjkwOTA5MTk0OTQ2Mjg5IiB3aWR0aD0iMTIyLjEzNjM2Nzc5Nzg1MTU2IiB5PSItMTYuOTU0NTQ1OTc0NzMxNDQ1IiB4PSItNjEuMDY4MTgzODk4OTI1NzgiIHJ5PSIwIiByeD0iMCIgc3R5bGU9IiIgY2xhc3M9ImJhc2ljIGxhYmVsLWNvbnRhaW5lciI+PC9yZWN0PjxnIHRyYW5zZm9ybT0idHJhbnNsYXRlKDAsIC05LjQ1NDU0NTk3NDczMTQ0NSkiIHN0eWxlPSIiIGNsYXNzPSJsYWJlbCI+PHJlY3Q+PC9yZWN0Pjx0ZXh0IHN0eWxlPSIiPjx0c3BhbiBjbGFzcz0icm93IiB4PSIwIiBkeT0iMWVtIiB4bWw6c3BhY2U9InByZXNlcnZlIj5lcnJvciByZXBvcnRpbmc8L3RzcGFuPjwvdGV4dD48L2c+PC9nPjxnIHRyYW5zZm9ybT0idHJhbnNsYXRlKDE1NzEuOTQ2NzM5MTk2Nzc3MywgMzQzLjY4MTgyMTgyMzEyMDEpIiBkYXRhLWlkPSJEMzMiIGRhdGEtbm9kZT0idHJ1ZSIgaWQ9ImZsb3djaGFydC1EMzMtMjY4IiBjbGFzcz0ibm9kZSBkZWZhdWx0IGRlZmF1bHQgZmxvd2NoYXJ0LWxhYmVsIj48cmVjdCBoZWlnaHQ9IjMzLjkwOTA5MTk0OTQ2Mjg5IiB3aWR0aD0iMTI3LjUiIHk9Ii0xNi45NTQ1NDU5NzQ3MzE0NDUiIHg9Ii02My43NSIgcnk9IjAiIHJ4PSIwIiBzdHlsZT0iIiBjbGFzcz0iYmFzaWMgbGFiZWwtY29udGFpbmVyIj48L3JlY3Q+PGcgdHJhbnNmb3JtPSJ0cmFuc2xhdGUoMCwgLTkuNDU0NTQ1OTc0NzMxNDQ1KSIgc3R5bGU9IiIgY2xhc3M9ImxhYmVsIj48cmVjdD48L3JlY3Q+PHRleHQgc3R5bGU9IiI+PHRzcGFuIGNsYXNzPSJyb3ciIHg9IjAiIGR5PSIxZW0iIHhtbDpzcGFjZT0icHJlc2VydmUiPmVycm9yIHJlc29sdXRpb248L3RzcGFuPjwvdGV4dD48L2c+PC9nPjxnIHRyYW5zZm9ybT0idHJhbnNsYXRlKDE3ODcuMTg1MzgyODQzMDE3NiwgMzQzLjY4MTgyMTgyMzEyMDEpIiBkYXRhLWlkPSJEMjEiIGRhdGEtbm9kZT0idHJ1ZSIgaWQ9ImZsb3djaGFydC1EMjEtMjU4IiBjbGFzcz0ibm9kZSBkZWZhdWx0IGRlZmF1bHQgZmxvd2NoYXJ0LWxhYmVsIj48cmVjdCBoZWlnaHQ9IjMzLjkwOTA5MTk0OTQ2Mjg5IiB3aWR0aD0iMTIyLjk3NzI3OTY2MzA4NTk0IiB5PSItMTYuOTU0NTQ1OTc0NzMxNDQ1IiB4PSItNjEuNDg4NjM5ODMxNTQyOTciIHJ5PSIwIiByeD0iMCIgc3R5bGU9IiIgY2xhc3M9ImJhc2ljIGxhYmVsLWNvbnRhaW5lciI+PC9yZWN0PjxnIHRyYW5zZm9ybT0idHJhbnNsYXRlKDAsIC05LjQ1NDU0NTk3NDczMTQ0NSkiIHN0eWxlPSIiIGNsYXNzPSJsYWJlbCI+PHJlY3Q+PC9yZWN0Pjx0ZXh0IHN0eWxlPSIiPjx0c3BhbiBjbGFzcz0icm93IiB4PSIwIiBkeT0iMWVtIiB4bWw6c3BhY2U9InByZXNlcnZlIj5kYXRhIHZhbGlkYXRpb248L3RzcGFuPjwvdGV4dD48L2c+PC9nPjxnIHRyYW5zZm9ybT0idHJhbnNsYXRlKDE5NjIuODM4ODA2MTUyMzQzOCwgMzQzLjY4MTgyMTgyMzEyMDEpIiBkYXRhLWlkPSJEMjIiIGRhdGEtbm9kZT0idHJ1ZSIgaWQ9ImZsb3djaGFydC1EMjItMjYwIiBjbGFzcz0ibm9kZSBkZWZhdWx0IGRlZmF1bHQgZmxvd2NoYXJ0LWxhYmVsIj48cmVjdCBoZWlnaHQ9IjMzLjkwOTA5MTk0OTQ2Mjg5IiB3aWR0aD0iMTI4LjMyOTU1MTY5Njc3NzM0IiB5PSItMTYuOTU0NTQ1OTc0NzMxNDQ1IiB4PSItNjQuMTY0Nzc1ODQ4Mzg4NjciIHJ5PSIwIiByeD0iMCIgc3R5bGU9IiIgY2xhc3M9ImJhc2ljIGxhYmVsLWNvbnRhaW5lciI+PC9yZWN0PjxnIHRyYW5zZm9ybT0idHJhbnNsYXRlKDAsIC05LjQ1NDU0NTk3NDczMTQ0NSkiIHN0eWxlPSIiIGNsYXNzPSJsYWJlbCI+PHJlY3Q+PC9yZWN0Pjx0ZXh0IHN0eWxlPSIiPjx0c3BhbiBjbGFzcz0icm93IiB4PSIwIiBkeT0iMWVtIiB4bWw6c3BhY2U9InByZXNlcnZlIj5kYXRhIGZvcm1hdHRpbmc8L3RzcGFuPjwvdGV4dD48L2c+PC9nPjxnIHRyYW5zZm9ybT0idHJhbnNsYXRlKDIxNDEuMTUxMzEzNzgxNzM4MywgMzQzLjY4MTgyMTgyMzEyMDEpIiBkYXRhLWlkPSJEMjMiIGRhdGEtbm9kZT0idHJ1ZSIgaWQ9ImZsb3djaGFydC1EMjMtMjYyIiBjbGFzcz0ibm9kZSBkZWZhdWx0IGRlZmF1bHQgZmxvd2NoYXJ0LWxhYmVsIj48cmVjdCBoZWlnaHQ9IjMzLjkwOTA5MTk0OTQ2Mjg5IiB3aWR0aD0iMTI4LjI5NTQ1NTkzMjYxNzIiIHk9Ii0xNi45NTQ1NDU5NzQ3MzE0NDUiIHg9Ii02NC4xNDc3Mjc5NjYzMDg2IiByeT0iMCIgcng9IjAiIHN0eWxlPSIiIGNsYXNzPSJiYXNpYyBsYWJlbC1jb250YWluZXIiPjwvcmVjdD48ZyB0cmFuc2Zvcm09InRyYW5zbGF0ZSgwLCAtOS40NTQ1NDU5NzQ3MzE0NDUpIiBzdHlsZT0iIiBjbGFzcz0ibGFiZWwiPjxyZWN0PjwvcmVjdD48dGV4dCBzdHlsZT0iIj48dHNwYW4gY2xhc3M9InJvdyIgeD0iMCIgZHk9IjFlbSIgeG1sOnNwYWNlPSJwcmVzZXJ2ZSI+ZGF0YSBjb252ZXJzaW9uPC90c3Bhbj48L3RleHQ+PC9nPjwvZz48ZyB0cmFuc2Zvcm09InRyYW5zbGF0ZSgyMzQxLjEyODU4OTYzMDEyNywgMzQzLjY4MTgyMTgyMzEyMDEpIiBkYXRhLWlkPSJEMTEiIGRhdGEtbm9kZT0idHJ1ZSIgaWQ9ImZsb3djaGFydC1EMTEtMjUyIiBjbGFzcz0ibm9kZSBkZWZhdWx0IGRlZmF1bHQgZmxvd2NoYXJ0LWxhYmVsIj48cmVjdCBoZWlnaHQ9IjMzLjkwOTA5MTk0OTQ2Mjg5IiB3aWR0aD0iOTEuNjU5MDk1NzY0MTYwMTYiIHk9Ii0xNi45NTQ1NDU5NzQ3MzE0NDUiIHg9Ii00NS44Mjk1NDc4ODIwODAwOCIgcnk9IjAiIHJ4PSIwIiBzdHlsZT0iIiBjbGFzcz0iYmFzaWMgbGFiZWwtY29udGFpbmVyIj48L3JlY3Q+PGcgdHJhbnNmb3JtPSJ0cmFuc2xhdGUoMCwgLTkuNDU0NTQ1OTc0NzMxNDQ1KSIgc3R5bGU9IiIgY2xhc3M9ImxhYmVsIj48cmVjdD48L3JlY3Q+PHRleHQgc3R5bGU9IiI+PHRzcGFuIGNsYXNzPSJyb3ciIHg9IjAiIGR5PSIxZW0iIHhtbDpzcGFjZT0icHJlc2VydmUiPmVuY3J5cHRpb248L3RzcGFuPjwvdGV4dD48L2c+PC9nPjxnIHRyYW5zZm9ybT0idHJhbnNsYXRlKDI0OTUuMzk1NjM3NTEyMjA3LCAzNDMuNjgxODIxODIzMTIwMSkiIGRhdGEtaWQ9IkQxMiIgZGF0YS1ub2RlPSJ0cnVlIiBpZD0iZmxvd2NoYXJ0LUQxMi0yNTQiIGNsYXNzPSJub2RlIGRlZmF1bHQgZGVmYXVsdCBmbG93Y2hhcnQtbGFiZWwiPjxyZWN0IGhlaWdodD0iMzMuOTA5MDkxOTQ5NDYyODkiIHdpZHRoPSIxMTYuODc1IiB5PSItMTYuOTU0NTQ1OTc0NzMxNDQ1IiB4PSItNTguNDM3NSIgcnk9IjAiIHJ4PSIwIiBzdHlsZT0iIiBjbGFzcz0iYmFzaWMgbGFiZWwtY29udGFpbmVyIj48L3JlY3Q+PGcgdHJhbnNmb3JtPSJ0cmFuc2xhdGUoMCwgLTkuNDU0NTQ1OTc0NzMxNDQ1KSIgc3R5bGU9IiIgY2xhc3M9ImxhYmVsIj48cmVjdD48L3JlY3Q+PHRleHQgc3R5bGU9IiI+PHRzcGFuIGNsYXNzPSJyb3ciIHg9IjAiIGR5PSIxZW0iIHhtbDpzcGFjZT0icHJlc2VydmUiPmFjY2VzcyBjb250cm9sPC90c3Bhbj48L3RleHQ+PC9nPjwvZz48ZyB0cmFuc2Zvcm09InRyYW5zbGF0ZSgyNjkzLjEzNzExNTQ3ODUxNTYsIDM0My42ODE4MjE4MjMxMjAxKSIgZGF0YS1pZD0iRDEzIiBkYXRhLW5vZGU9InRydWUiIGlkPSJmbG93Y2hhcnQtRDEzLTI1NiIgY2xhc3M9Im5vZGUgZGVmYXVsdCBkZWZhdWx0IGZsb3djaGFydC1sYWJlbCI+PHJlY3QgaGVpZ2h0PSIzMy45MDkwOTE5NDk0NjI4OSIgd2lkdGg9IjE3OC42MDc5NTU5MzI2MTcyIiB5PSItMTYuOTU0NTQ1OTc0NzMxNDQ1IiB4PSItODkuMzAzOTc3OTY2MzA4NiIgcnk9IjAiIHJ4PSIwIiBzdHlsZT0iIiBjbGFzcz0iYmFzaWMgbGFiZWwtY29udGFpbmVyIj48L3JlY3Q+PGcgdHJhbnNmb3JtPSJ0cmFuc2xhdGUoMCwgLTkuNDU0NTQ1OTc0NzMxNDQ1KSIgc3R5bGU9IiIgY2xhc3M9ImxhYmVsIj48cmVjdD48L3JlY3Q+PHRleHQgc3R5bGU9IiI+PHRzcGFuIGNsYXNzPSJyb3ciIHg9IjAiIGR5PSIxZW0iIHhtbDpzcGFjZT0icHJlc2VydmUiPnBhc3N3b3JkIG1hbmFnZW1lbnQ8L3RzcGFuPjwvdGV4dD48L2c+PC9nPjxnIHRyYW5zZm9ybT0idHJhbnNsYXRlKDI5MjYuMjk5NzU4OTExMTMzLCAzNDMuNjgxODIxODIzMTIwMSkiIGRhdGEtaWQ9IkM1MSIgZGF0YS1ub2RlPSJ0cnVlIiBpZD0iZmxvd2NoYXJ0LUM1MS0yNDYiIGNsYXNzPSJub2RlIGRlZmF1bHQgZGVmYXVsdCBmbG93Y2hhcnQtbGFiZWwiPjxyZWN0IGhlaWdodD0iMzMuOTA5MDkxOTQ5NDYyODkiIHdpZHRoPSIxMDcuNzE3MzMwOTMyNjE3MTkiIHk9Ii0xNi45NTQ1NDU5NzQ3MzE0NDUiIHg9Ii01My44NTg2NjU0NjYzMDg1OTQiIHJ5PSIwIiByeD0iMCIgc3R5bGU9IiIgY2xhc3M9ImJhc2ljIGxhYmVsLWNvbnRhaW5lciI+PC9yZWN0PjxnIHRyYW5zZm9ybT0idHJhbnNsYXRlKDAsIC05LjQ1NDU0NTk3NDczMTQ0NSkiIHN0eWxlPSIiIGNsYXNzPSJsYWJlbCI+PHJlY3Q+PC9yZWN0Pjx0ZXh0IHN0eWxlPSIiPjx0c3BhbiBjbGFzcz0icm93IiB4PSIwIiBkeT0iMWVtIiB4bWw6c3BhY2U9InByZXNlcnZlIj5jcmVkaXQgcmVwb3J0PC90c3Bhbj48L3RleHQ+PC9nPjwvZz48ZyB0cmFuc2Zvcm09InRyYW5zbGF0ZSgzMTIyLjMyMzE5NjQxMTEzMywgMzQzLjY4MTgyMTgyMzEyMDEpIiBkYXRhLWlkPSJDNTIiIGRhdGEtbm9kZT0idHJ1ZSIgaWQ9ImZsb3djaGFydC1DNTItMjQ4IiBjbGFzcz0ibm9kZSBkZWZhdWx0IGRlZmF1bHQgZmxvd2NoYXJ0LWxhYmVsIj48cmVjdCBoZWlnaHQ9IjMzLjkwOTA5MTk0OTQ2Mjg5IiB3aWR0aD0iMTg0LjMyOTU0NDA2NzM4MjgiIHk9Ii0xNi45NTQ1NDU5NzQ3MzE0NDUiIHg9Ii05Mi4xNjQ3NzIwMzM2OTE0IiByeT0iMCIgcng9IjAiIHN0eWxlPSIiIGNsYXNzPSJiYXNpYyBsYWJlbC1jb250YWluZXIiPjwvcmVjdD48ZyB0cmFuc2Zvcm09InRyYW5zbGF0ZSgwLCAtOS40NTQ1NDU5NzQ3MzE0NDUpIiBzdHlsZT0iIiBjbGFzcz0ibGFiZWwiPjxyZWN0PjwvcmVjdD48dGV4dCBzdHlsZT0iIj48dHNwYW4gY2xhc3M9InJvdyIgeD0iMCIgZHk9IjFlbSIgeG1sOnNwYWNlPSJwcmVzZXJ2ZSI+Y3JlZGl0IHNjb3JlIGNhbGN1bGF0aW9uPC90c3Bhbj48L3RleHQ+PC9nPjwvZz48ZyB0cmFuc2Zvcm09InRyYW5zbGF0ZSgzMzQxLjU4MTcxODQ0NDgyNCwgMzQzLjY4MTgyMTgyMzEyMDEpIiBkYXRhLWlkPSJDNTMiIGRhdGEtbm9kZT0idHJ1ZSIgaWQ9ImZsb3djaGFydC1DNTMtMjUwIiBjbGFzcz0ibm9kZSBkZWZhdWx0IGRlZmF1bHQgZmxvd2NoYXJ0LWxhYmVsIj48cmVjdCBoZWlnaHQ9IjMzLjkwOTA5MTk0OTQ2Mjg5IiB3aWR0aD0iMTU0LjE4NzUiIHk9Ii0xNi45NTQ1NDU5NzQ3MzE0NDUiIHg9Ii03Ny4wOTM3NSIgcnk9IjAiIHJ4PSIwIiBzdHlsZT0iIiBjbGFzcz0iYmFzaWMgbGFiZWwtY29udGFpbmVyIj48L3JlY3Q+PGcgdHJhbnNmb3JtPSJ0cmFuc2xhdGUoMCwgLTkuNDU0NTQ1OTc0NzMxNDQ1KSIgc3R5bGU9IiIgY2xhc3M9ImxhYmVsIj48cmVjdD48L3JlY3Q+PHRleHQgc3R5bGU9IiI+PHRzcGFuIGNsYXNzPSJyb3ciIHg9IjAiIGR5PSIxZW0iIHhtbDpzcGFjZT0icHJlc2VydmUiPmNyZWRpdCBzY29yZSBoaXN0b3J5PC90c3Bhbj48L3RleHQ+PC9nPjwvZz48ZyB0cmFuc2Zvcm09InRyYW5zbGF0ZSgzNTg4LjcxNTI0MDQ3ODUxNTYsIDM0My42ODE4MjE4MjMxMjAxKSIgZGF0YS1pZD0iQzQxIiBkYXRhLW5vZGU9InRydWUiIGlkPSJmbG93Y2hhcnQtQzQxLTI0MCIgY2xhc3M9Im5vZGUgZGVmYXVsdCBkZWZhdWx0IGZsb3djaGFydC1sYWJlbCI+PHJlY3QgaGVpZ2h0PSIzMy45MDkwOTE5NDk0NjI4OSIgd2lkdGg9IjE2MC4wNzk1NDQwNjczODI4IiB5PSItMTYuOTU0NTQ1OTc0NzMxNDQ1IiB4PSItODAuMDM5NzcyMDMzNjkxNCIgcnk9IjAiIHJ4PSIwIiBzdHlsZT0iIiBjbGFzcz0iYmFzaWMgbGFiZWwtY29udGFpbmVyIj48L3JlY3Q+PGcgdHJhbnNmb3JtPSJ0cmFuc2xhdGUoMCwgLTkuNDU0NTQ1OTc0NzMxNDQ1KSIgc3R5bGU9IiIgY2xhc3M9ImxhYmVsIj48cmVjdD48L3JlY3Q+PHRleHQgc3R5bGU9IiI+PHRzcGFuIGNsYXNzPSJyb3ciIHg9IjAiIGR5PSIxZW0iIHhtbDpzcGFjZT0icHJlc2VydmUiPnRyYW5zYWN0aW9uIGNyZWF0aW9uPC90c3Bhbj48L3RleHQ+PC9nPjwvZz48ZyB0cmFuc2Zvcm09InRyYW5zbGF0ZSgzODA2LjM2ODY1MjM0Mzc1LCAzNDMuNjgxODIxODIzMTIwMSkiIGRhdGEtaWQ9IkM0MiIgZGF0YS1ub2RlPSJ0cnVlIiBpZD0iZmxvd2NoYXJ0LUM0Mi0yNDIiIGNsYXNzPSJub2RlIGRlZmF1bHQgZGVmYXVsdCBmbG93Y2hhcnQtbGFiZWwiPjxyZWN0IGhlaWdodD0iMzMuOTA5MDkxOTQ5NDYyODkiIHdpZHRoPSIxNzUuMjI3Mjc5NjYzMDg1OTQiIHk9Ii0xNi45NTQ1NDU5NzQ3MzE0NDUiIHg9Ii04Ny42MTM2Mzk4MzE1NDI5NyIgcnk9IjAiIHJ4PSIwIiBzdHlsZT0iIiBjbGFzcz0iYmFzaWMgbGFiZWwtY29udGFpbmVyIj48L3JlY3Q+PGcgdHJhbnNmb3JtPSJ0cmFuc2xhdGUoMCwgLTkuNDU0NTQ1OTc0NzMxNDQ1KSIgc3R5bGU9IiIgY2xhc3M9ImxhYmVsIj48cmVjdD48L3JlY3Q+PHRleHQgc3R5bGU9IiI+PHRzcGFuIGNsYXNzPSJyb3ciIHg9IjAiIGR5PSIxZW0iIHhtbDpzcGFjZT0icHJlc2VydmUiPnRyYW5zYWN0aW9uIHByb2Nlc3Npbmc8L3RzcGFuPjwvdGV4dD48L2c+PC9nPjxnIHRyYW5zZm9ybT0idHJhbnNsYXRlKDQwMTguNzMyMjkyMTc1MjkzLCAzNDMuNjgxODIxODIzMTIwMSkiIGRhdGEtaWQ9IkM0MyIgZGF0YS1ub2RlPSJ0cnVlIiBpZD0iZmxvd2NoYXJ0LUM0My0yNDQiIGNsYXNzPSJub2RlIGRlZmF1bHQgZGVmYXVsdCBmbG93Y2hhcnQtbGFiZWwiPjxyZWN0IGhlaWdodD0iMzMuOTA5MDkxOTQ5NDYyODkiIHdpZHRoPSIxNDkuNSIgeT0iLTE2Ljk1NDU0NTk3NDczMTQ0NSIgeD0iLTc0Ljc1IiByeT0iMCIgcng9IjAiIHN0eWxlPSIiIGNsYXNzPSJiYXNpYyBsYWJlbC1jb250YWluZXIiPjwvcmVjdD48ZyB0cmFuc2Zvcm09InRyYW5zbGF0ZSgwLCAtOS40NTQ1NDU5NzQ3MzE0NDUpIiBzdHlsZT0iIiBjbGFzcz0ibGFiZWwiPjxyZWN0PjwvcmVjdD48dGV4dCBzdHlsZT0iIj48dHNwYW4gY2xhc3M9InJvdyIgeD0iMCIgZHk9IjFlbSIgeG1sOnNwYWNlPSJwcmVzZXJ2ZSI+dHJhbnNhY3Rpb24gaGlzdG9yeTwvdHNwYW4+PC90ZXh0PjwvZz48L2c+PGcgdHJhbnNmb3JtPSJ0cmFuc2xhdGUoNDI2NC41Njg1ODgyNTY4MzYsIDM0My42ODE4MjE4MjMxMjAxKSIgZGF0YS1pZD0iQzMxIiBkYXRhLW5vZGU9InRydWUiIGlkPSJmbG93Y2hhcnQtQzMxLTIzNCIgY2xhc3M9Im5vZGUgZGVmYXVsdCBkZWZhdWx0IGZsb3djaGFydC1sYWJlbCI+PHJlY3QgaGVpZ2h0PSIzMy45MDkwOTE5NDk0NjI4OSIgd2lkdGg9IjE2Mi4xNzI1OTIxNjMwODU5NCIgeT0iLTE2Ljk1NDU0NTk3NDczMTQ0NSIgeD0iLTgxLjA4NjI5NjA4MTU0Mjk3IiByeT0iMCIgcng9IjAiIHN0eWxlPSIiIGNsYXNzPSJiYXNpYyBsYWJlbC1jb250YWluZXIiPjwvcmVjdD48ZyB0cmFuc2Zvcm09InRyYW5zbGF0ZSgwLCAtOS40NTQ1NDU5NzQ3MzE0NDUpIiBzdHlsZT0iIiBjbGFzcz0ibGFiZWwiPjxyZWN0PjwvcmVjdD48dGV4dCBzdHlsZT0iIj48dHNwYW4gY2xhc3M9InJvdyIgeD0iMCIgZHk9IjFlbSIgeG1sOnNwYWNlPSJwcmVzZXJ2ZSI+aW52ZXN0bWVudCBwb3J0Zm9saW88L3RzcGFuPjwvdGV4dD48L2c+PC9nPjxnIHRyYW5zZm9ybT0idHJhbnNsYXRlKDQ0NzQuNjA5NDI4NDA1NzYyLCAzNDMuNjgxODIxODIzMTIwMSkiIGRhdGEtaWQ9IkMzMiIgZGF0YS1ub2RlPSJ0cnVlIiBpZD0iZmxvd2NoYXJ0LUMzMi0yMzYiIGNsYXNzPSJub2RlIGRlZmF1bHQgZGVmYXVsdCBmbG93Y2hhcnQtbGFiZWwiPjxyZWN0IGhlaWdodD0iMzMuOTA5MDkxOTQ5NDYyODkiIHdpZHRoPSIxNTcuOTA5MDg4MTM0NzY1NjIiIHk9Ii0xNi45NTQ1NDU5NzQ3MzE0NDUiIHg9Ii03OC45NTQ1NDQwNjczODI4MSIgcnk9IjAiIHJ4PSIwIiBzdHlsZT0iIiBjbGFzcz0iYmFzaWMgbGFiZWwtY29udGFpbmVyIj48L3JlY3Q+PGcgdHJhbnNmb3JtPSJ0cmFuc2xhdGUoMCwgLTkuNDU0NTQ1OTc0NzMxNDQ1KSIgc3R5bGU9IiIgY2xhc3M9ImxhYmVsIj48cmVjdD48L3JlY3Q+PHRleHQgc3R5bGU9IiI+PHRzcGFuIGNsYXNzPSJyb3ciIHg9IjAiIGR5PSIxZW0iIHhtbDpzcGFjZT0icHJlc2VydmUiPmludmVzdG1lbnQgdHJhY2tpbmc8L3RzcGFuPjwvdGV4dD48L2c+PC9nPjxnIHRyYW5zZm9ybT0idHJhbnNsYXRlKDQ2NzYuNTUyNjEyMzA0Njg3NSwgMzQzLjY4MTgyMTgyMzEyMDEpIiBkYXRhLWlkPSJDMzMiIGRhdGEtbm9kZT0idHJ1ZSIgaWQ9ImZsb3djaGFydC1DMzMtMjM4IiBjbGFzcz0ibm9kZSBkZWZhdWx0IGRlZmF1bHQgZmxvd2NoYXJ0LWxhYmVsIj48cmVjdCBoZWlnaHQ9IjMzLjkwOTA5MTk0OTQ2Mjg5IiB3aWR0aD0iMTQ1Ljk3NzI3OTY2MzA4NTk0IiB5PSItMTYuOTU0NTQ1OTc0NzMxNDQ1IiB4PSItNzIuOTg4NjM5ODMxNTQyOTciIHJ5PSIwIiByeD0iMCIgc3R5bGU9IiIgY2xhc3M9ImJhc2ljIGxhYmVsLWNvbnRhaW5lciI+PC9yZWN0PjxnIHRyYW5zZm9ybT0idHJhbnNsYXRlKDAsIC05LjQ1NDU0NTk3NDczMTQ0NSkiIHN0eWxlPSIiIGNsYXNzPSJsYWJlbCI+PHJlY3Q+PC9yZWN0Pjx0ZXh0IHN0eWxlPSIiPjx0c3BhbiBjbGFzcz0icm93IiB4PSIwIiBkeT0iMWVtIiB4bWw6c3BhY2U9InByZXNlcnZlIj5pbnZlc3RtZW50IGFkdmljZTwvdHNwYW4+PC90ZXh0PjwvZz48L2c+PGcgdHJhbnNmb3JtPSJ0cmFuc2xhdGUoNDg4Mi41NDY5MzYwMzUxNTYsIDM0My42ODE4MjE4MjMxMjAxKSIgZGF0YS1pZD0iQzIxIiBkYXRhLW5vZGU9InRydWUiIGlkPSJmbG93Y2hhcnQtQzIxLTIyOCIgY2xhc3M9Im5vZGUgZGVmYXVsdCBkZWZhdWx0IGZsb3djaGFydC1sYWJlbCI+PHJlY3QgaGVpZ2h0PSIzMy45MDkwOTE5NDk0NjI4OSIgd2lkdGg9Ijg2LjAxMTM2Nzc5Nzg1MTU2IiB5PSItMTYuOTU0NTQ1OTc0NzMxNDQ1IiB4PSItNDMuMDA1NjgzODk4OTI1NzgiIHJ5PSIwIiByeD0iMCIgc3R5bGU9IiIgY2xhc3M9ImJhc2ljIGxhYmVsLWNvbnRhaW5lciI+PC9yZWN0PjxnIHRyYW5zZm9ybT0idHJhbnNsYXRlKDAsIC05LjQ1NDU0NTk3NDczMTQ0NSkiIHN0eWxlPSIiIGNsYXNzPSJsYWJlbCI+PHJlY3Q+PC9yZWN0Pjx0ZXh0IHN0eWxlPSIiPjx0c3BhbiBjbGFzcz0icm93IiB4PSIwIiBkeT0iMWVtIiB4bWw6c3BhY2U9InByZXNlcnZlIj5idWRnZXRpbmc8L3RzcGFuPjwvdGV4dD48L2c+PC9nPjxnIHRyYW5zZm9ybT0idHJhbnNsYXRlKDUwNDMuNzc5ODk5NTk3MTY4LCAzNDMuNjgxODIxODIzMTIwMSkiIGRhdGEtaWQ9IkMyMiIgZGF0YS1ub2RlPSJ0cnVlIiBpZD0iZmxvd2NoYXJ0LUMyMi0yMzAiIGNsYXNzPSJub2RlIGRlZmF1bHQgZGVmYXVsdCBmbG93Y2hhcnQtbGFiZWwiPjxyZWN0IGhlaWdodD0iMzMuOTA5MDkxOTQ5NDYyODkiIHdpZHRoPSIxMzYuNDU0NTUxNjk2Nzc3MzQiIHk9Ii0xNi45NTQ1NDU5NzQ3MzE0NDUiIHg9Ii02OC4yMjcyNzU4NDgzODg2NyIgcnk9IjAiIHJ4PSIwIiBzdHlsZT0iIiBjbGFzcz0iYmFzaWMgbGFiZWwtY29udGFpbmVyIj48L3JlY3Q+PGcgdHJhbnNmb3JtPSJ0cmFuc2xhdGUoMCwgLTkuNDU0NTQ1OTc0NzMxNDQ1KSIgc3R5bGU9IiIgY2xhc3M9ImxhYmVsIj48cmVjdD48L3JlY3Q+PHRleHQgc3R5bGU9IiI+PHRzcGFuIGNsYXNzPSJyb3ciIHg9IjAiIGR5PSIxZW0iIHhtbDpzcGFjZT0icHJlc2VydmUiPmV4cGVuc2UgdHJhY2tpbmc8L3RzcGFuPjwvdGV4dD48L2c+PC9nPjxnIHRyYW5zZm9ybT0idHJhbnNsYXRlKDUyNDAuOTYxNzIzMzI3NjM3LCAzNDMuNjgxODIxODIzMTIwMSkiIGRhdGEtaWQ9IkMyMyIgZGF0YS1ub2RlPSJ0cnVlIiBpZD0iZmxvd2NoYXJ0LUMyMy0yMzIiIGNsYXNzPSJub2RlIGRlZmF1bHQgZGVmYXVsdCBmbG93Y2hhcnQtbGFiZWwiPjxyZWN0IGhlaWdodD0iMzMuOTA5MDkxOTQ5NDYyODkiIHdpZHRoPSIxNTcuOTA5MDg4MTM0NzY1NjIiIHk9Ii0xNi45NTQ1NDU5NzQ3MzE0NDUiIHg9Ii03OC45NTQ1NDQwNjczODI4MSIgcnk9IjAiIHJ4PSIwIiBzdHlsZT0iIiBjbGFzcz0iYmFzaWMgbGFiZWwtY29udGFpbmVyIj48L3JlY3Q+PGcgdHJhbnNmb3JtPSJ0cmFuc2xhdGUoMCwgLTkuNDU0NTQ1OTc0NzMxNDQ1KSIgc3R5bGU9IiIgY2xhc3M9ImxhYmVsIj48cmVjdD48L3JlY3Q+PHRleHQgc3R5bGU9IiI+PHRzcGFuIGNsYXNzPSJyb3ciIHg9IjAiIGR5PSIxZW0iIHhtbDpzcGFjZT0icHJlc2VydmUiPmludmVzdG1lbnQgdHJhY2tpbmc8L3RzcGFuPjwvdGV4dD48L2c+PC9nPjxnIHRyYW5zZm9ybT0idHJhbnNsYXRlKDU0ODAuNTg2MzY0NzQ2MDk0LCAzNDMuNjgxODIxODIzMTIwMSkiIGRhdGEtaWQ9IkMxMSIgZGF0YS1ub2RlPSJ0cnVlIiBpZD0iZmxvd2NoYXJ0LUMxMS0yMjIiIGNsYXNzPSJub2RlIGRlZmF1bHQgZGVmYXVsdCBmbG93Y2hhcnQtbGFiZWwiPjxyZWN0IGhlaWdodD0iMzMuOTA5MDkxOTQ5NDYyODkiIHdpZHRoPSIxNDEuMzQwMjAyMzMxNTQyOTciIHk9Ii0xNi45NTQ1NDU5NzQ3MzE0NDUiIHg9Ii03MC42NzAxMDExNjU3NzE0OCIgcnk9IjAiIHJ4PSIwIiBzdHlsZT0iIiBjbGFzcz0iYmFzaWMgbGFiZWwtY29udGFpbmVyIj48L3JlY3Q+PGcgdHJhbnNmb3JtPSJ0cmFuc2xhdGUoMCwgLTkuNDU0NTQ1OTc0NzMxNDQ1KSIgc3R5bGU9IiIgY2xhc3M9ImxhYmVsIj48cmVjdD48L3JlY3Q+PHRleHQgc3R5bGU9IiI+PHRzcGFuIGNsYXNzPSJyb3ciIHg9IjAiIGR5PSIxZW0iIHhtbDpzcGFjZT0icHJlc2VydmUiPmFjY291bnQgb3ZlcnZpZXc8L3RzcGFuPjwvdGV4dD48L2c+PC9nPjxnIHRyYW5zZm9ybT0idHJhbnNsYXRlKDU2NzYuMDA2NDYyMDk3MTY4LCAzNDMuNjgxODIxODIzMTIwMSkiIGRhdGEtaWQ9IkMxMiIgZGF0YS1ub2RlPSJ0cnVlIiBpZD0iZmxvd2NoYXJ0LUMxMi0yMjQiIGNsYXNzPSJub2RlIGRlZmF1bHQgZGVmYXVsdCBmbG93Y2hhcnQtbGFiZWwiPjxyZWN0IGhlaWdodD0iMzMuOTA5MDkxOTQ5NDYyODkiIHdpZHRoPSIxNDkuNSIgeT0iLTE2Ljk1NDU0NTk3NDczMTQ0NSIgeD0iLTc0Ljc1IiByeT0iMCIgcng9IjAiIHN0eWxlPSIiIGNsYXNzPSJiYXNpYyBsYWJlbC1jb250YWluZXIiPjwvcmVjdD48ZyB0cmFuc2Zvcm09InRyYW5zbGF0ZSgwLCAtOS40NTQ1NDU5NzQ3MzE0NDUpIiBzdHlsZT0iIiBjbGFzcz0ibGFiZWwiPjxyZWN0PjwvcmVjdD48dGV4dCBzdHlsZT0iIj48dHNwYW4gY2xhc3M9InJvdyIgeD0iMCIgZHk9IjFlbSIgeG1sOnNwYWNlPSJwcmVzZXJ2ZSI+dHJhbnNhY3Rpb24gaGlzdG9yeTwvdHNwYW4+PC90ZXh0PjwvZz48L2c+PGcgdHJhbnNmb3JtPSJ0cmFuc2xhdGUoNTg2Ni44ODQ2NTg4MTM0NzcsIDM0My42ODE4MjE4MjMxMjAxKSIgZGF0YS1pZD0iQzEzIiBkYXRhLW5vZGU9InRydWUiIGlkPSJmbG93Y2hhcnQtQzEzLTIyNiIgY2xhc3M9Im5vZGUgZGVmYXVsdCBkZWZhdWx0IGZsb3djaGFydC1sYWJlbCI+PHJlY3QgaGVpZ2h0PSIzMy45MDkwOTE5NDk0NjI4OSIgd2lkdGg9IjEzMi4yNTYzOTM0MzI2MTcyIiB5PSItMTYuOTU0NTQ1OTc0NzMxNDQ1IiB4PSItNjYuMTI4MTk2NzE2MzA4NiIgcnk9IjAiIHJ4PSIwIiBzdHlsZT0iIiBjbGFzcz0iYmFzaWMgbGFiZWwtY29udGFpbmVyIj48L3JlY3Q+PGcgdHJhbnNmb3JtPSJ0cmFuc2xhdGUoMCwgLTkuNDU0NTQ1OTc0NzMxNDQ1KSIgc3R5bGU9IiIgY2xhc3M9ImxhYmVsIj48cmVjdD48L3JlY3Q+PHRleHQgc3R5bGU9IiI+PHRzcGFuIGNsYXNzPSJyb3ciIHg9IjAiIGR5PSIxZW0iIHhtbDpzcGFjZT0icHJlc2VydmUiPmFjY291bnQgc2V0dGluZ3M8L3RzcGFuPjwvdGV4dD48L2c+PC9nPjxnIHRyYW5zZm9ybT0idHJhbnNsYXRlKDYwODMuNjY2MjYzNTgwMzIyLCAzNDMuNjgxODIxODIzMTIwMSkiIGRhdGEtaWQ9IkI0MSIgZGF0YS1ub2RlPSJ0cnVlIiBpZD0iZmxvd2NoYXJ0LUI0MS0yMTYiIGNsYXNzPSJub2RlIGRlZmF1bHQgZGVmYXVsdCBmbG93Y2hhcnQtbGFiZWwiPjxyZWN0IGhlaWdodD0iMzMuOTA5MDkxOTQ5NDYyODkiIHdpZHRoPSIxMjEuMzA2ODIzNzMwNDY4NzUiIHk9Ii0xNi45NTQ1NDU5NzQ3MzE0NDUiIHg9Ii02MC42NTM0MTE4NjUyMzQzNzUiIHJ5PSIwIiByeD0iMCIgc3R5bGU9IiIgY2xhc3M9ImJhc2ljIGxhYmVsLWNvbnRhaW5lciI+PC9yZWN0PjxnIHRyYW5zZm9ybT0idHJhbnNsYXRlKDAsIC05LjQ1NDU0NTk3NDczMTQ0NSkiIHN0eWxlPSIiIGNsYXNzPSJsYWJlbCI+PHJlY3Q+PC9yZWN0Pjx0ZXh0IHN0eWxlPSIiPjx0c3BhbiBjbGFzcz0icm93IiB4PSIwIiBkeT0iMWVtIiB4bWw6c3BhY2U9InByZXNlcnZlIj50aWNrZXQgY3JlYXRpb248L3RzcGFuPjwvdGV4dD48L2c+PC9nPjxnIHRyYW5zZm9ybT0idHJhbnNsYXRlKDYyNjUuMjA5NTg3MDk3MTY4LCAzNDMuNjgxODIxODIzMTIwMSkiIGRhdGEtaWQ9IkI0MiIgZGF0YS1ub2RlPSJ0cnVlIiBpZD0iZmxvd2NoYXJ0LUI0Mi0yMTgiIGNsYXNzPSJub2RlIGRlZmF1bHQgZGVmYXVsdCBmbG93Y2hhcnQtbGFiZWwiPjxyZWN0IGhlaWdodD0iMzMuOTA5MDkxOTQ5NDYyODkiIHdpZHRoPSIxNDEuNzc5ODMwOTMyNjE3MiIgeT0iLTE2Ljk1NDU0NTk3NDczMTQ0NSIgeD0iLTcwLjg4OTkxNTQ2NjMwODYiIHJ5PSIwIiByeD0iMCIgc3R5bGU9IiIgY2xhc3M9ImJhc2ljIGxhYmVsLWNvbnRhaW5lciI+PC9yZWN0PjxnIHRyYW5zZm9ybT0idHJhbnNsYXRlKDAsIC05LjQ1NDU0NTk3NDczMTQ0NSkiIHN0eWxlPSIiIGNsYXNzPSJsYWJlbCI+PHJlY3Q+PC9yZWN0Pjx0ZXh0IHN0eWxlPSIiPjx0c3BhbiBjbGFzcz0icm93IiB4PSIwIiBkeT0iMWVtIiB4bWw6c3BhY2U9InByZXNlcnZlIj50aWNrZXQgYXNzaWdubWVudDwvdHNwYW4+PC90ZXh0PjwvZz48L2c+PGcgdHJhbnNmb3JtPSJ0cmFuc2xhdGUoNjQ1Mi44NDk1MDI1NjM0NzcsIDM0My42ODE4MjE4MjMxMjAxKSIgZGF0YS1pZD0iQjQzIiBkYXRhLW5vZGU9InRydWUiIGlkPSJmbG93Y2hhcnQtQjQzLTIyMCIgY2xhc3M9Im5vZGUgZGVmYXVsdCBkZWZhdWx0IGZsb3djaGFydC1sYWJlbCI+PHJlY3QgaGVpZ2h0PSIzMy45MDkwOTE5NDk0NjI4OSIgd2lkdGg9IjEzMy41IiB5PSItMTYuOTU0NTQ1OTc0NzMxNDQ1IiB4PSItNjYuNzUiIHJ5PSIwIiByeD0iMCIgc3R5bGU9IiIgY2xhc3M9ImJhc2ljIGxhYmVsLWNvbnRhaW5lciI+PC9yZWN0PjxnIHRyYW5zZm9ybT0idHJhbnNsYXRlKDAsIC05LjQ1NDU0NTk3NDczMTQ0NSkiIHN0eWxlPSIiIGNsYXNzPSJsYWJlbCI+PHJlY3Q+PC9yZWN0Pjx0ZXh0IHN0eWxlPSIiPjx0c3BhbiBjbGFzcz0icm93IiB4PSIwIiBkeT0iMWVtIiB4bWw6c3BhY2U9InByZXNlcnZlIj50aWNrZXQgcmVzb2x1dGlvbjwvdHNwYW4+PC90ZXh0PjwvZz48L2c+PGcgdHJhbnNmb3JtPSJ0cmFuc2xhdGUoNjY5OC45MDM0ODA1Mjk3ODUsIDM0My42ODE4MjE4MjMxMjAxKSIgZGF0YS1pZD0iQjMxIiBkYXRhLW5vZGU9InRydWUiIGlkPSJmbG93Y2hhcnQtQjMxLTIxMCIgY2xhc3M9Im5vZGUgZGVmYXVsdCBkZWZhdWx0IGZsb3djaGFydC1sYWJlbCI+PHJlY3QgaGVpZ2h0PSIzMy45MDkwOTE5NDk0NjI4OSIgd2lkdGg9IjE3OC42MDc5NTU5MzI2MTcyIiB5PSItMTYuOTU0NTQ1OTc0NzMxNDQ1IiB4PSItODkuMzAzOTc3OTY2MzA4NiIgcnk9IjAiIHJ4PSIwIiBzdHlsZT0iIiBjbGFzcz0iYmFzaWMgbGFiZWwtY29udGFpbmVyIj48L3JlY3Q+PGcgdHJhbnNmb3JtPSJ0cmFuc2xhdGUoMCwgLTkuNDU0NTQ1OTc0NzMxNDQ1KSIgc3R5bGU9IiIgY2xhc3M9ImxhYmVsIj48cmVjdD48L3JlY3Q+PHRleHQgc3R5bGU9IiI+PHRzcGFuIGNsYXNzPSJyb3ciIHg9IjAiIGR5PSIxZW0iIHhtbDpzcGFjZT0icHJlc2VydmUiPnBhc3N3b3JkIG1hbmFnZW1lbnQ8L3RzcGFuPjwvdGV4dD48L2c+PC9nPjxnIHRyYW5zZm9ybT0idHJhbnNsYXRlKDY4OTYuNjQ0OTU4NDk2MDk0LCAzNDMuNjgxODIxODIzMTIwMSkiIGRhdGEtaWQ9IkIzMiIgZGF0YS1ub2RlPSJ0cnVlIiBpZD0iZmxvd2NoYXJ0LUIzMi0yMTIiIGNsYXNzPSJub2RlIGRlZmF1bHQgZGVmYXVsdCBmbG93Y2hhcnQtbGFiZWwiPjxyZWN0IGhlaWdodD0iMzMuOTA5MDkxOTQ5NDYyODkiIHdpZHRoPSIxMTYuODc1IiB5PSItMTYuOTU0NTQ1OTc0NzMxNDQ1IiB4PSItNTguNDM3NSIgcnk9IjAiIHJ4PSIwIiBzdHlsZT0iIiBjbGFzcz0iYmFzaWMgbGFiZWwtY29udGFpbmVyIj48L3JlY3Q+PGcgdHJhbnNmb3JtPSJ0cmFuc2xhdGUoMCwgLTkuNDU0NTQ1OTc0NzMxNDQ1KSIgc3R5bGU9IiIgY2xhc3M9ImxhYmVsIj48cmVjdD48L3JlY3Q+PHRleHQgc3R5bGU9IiI+PHRzcGFuIGNsYXNzPSJyb3ciIHg9IjAiIGR5PSIxZW0iIHhtbDpzcGFjZT0icHJlc2VydmUiPmFjY2VzcyBjb250cm9sPC90c3Bhbj48L3RleHQ+PC9nPjwvZz48ZyB0cmFuc2Zvcm09InRyYW5zbGF0ZSg3MDUwLjkxMjAwNjM3ODE3NCwgMzQzLjY4MTgyMTgyMzEyMDEpIiBkYXRhLWlkPSJCMzMiIGRhdGEtbm9kZT0idHJ1ZSIgaWQ9ImZsb3djaGFydC1CMzMtMjE0IiBjbGFzcz0ibm9kZSBkZWZhdWx0IGRlZmF1bHQgZmxvd2NoYXJ0LWxhYmVsIj48cmVjdCBoZWlnaHQ9IjMzLjkwOTA5MTk0OTQ2Mjg5IiB3aWR0aD0iOTEuNjU5MDk1NzY0MTYwMTYiIHk9Ii0xNi45NTQ1NDU5NzQ3MzE0NDUiIHg9Ii00NS44Mjk1NDc4ODIwODAwOCIgcnk9IjAiIHJ4PSIwIiBzdHlsZT0iIiBjbGFzcz0iYmFzaWMgbGFiZWwtY29udGFpbmVyIj48L3JlY3Q+PGcgdHJhbnNmb3JtPSJ0cmFuc2xhdGUoMCwgLTkuNDU0NTQ1OTc0NzMxNDQ1KSIgc3R5bGU9IiIgY2xhc3M9ImxhYmVsIj48cmVjdD48L3JlY3Q+PHRleHQgc3R5bGU9IiI+PHRzcGFuIGNsYXNzPSJyb3ciIHg9IjAiIGR5PSIxZW0iIHhtbDpzcGFjZT0icHJlc2VydmUiPmVuY3J5cHRpb248L3RzcGFuPjwvdGV4dD48L2c+PC9nPjxnIHRyYW5zZm9ybT0idHJhbnNsYXRlKDcyNTQuMjMwMTk0MDkxNzk3LCAzNDMuNjgxODIxODIzMTIwMSkiIGRhdGEtaWQ9IkIyMSIgZGF0YS1ub2RlPSJ0cnVlIiBpZD0iZmxvd2NoYXJ0LUIyMS0yMDQiIGNsYXNzPSJub2RlIGRlZmF1bHQgZGVmYXVsdCBmbG93Y2hhcnQtbGFiZWwiPjxyZWN0IGhlaWdodD0iMzMuOTA5MDkxOTQ5NDYyODkiIHdpZHRoPSIxMzQuOTc3Mjc5NjYzMDg1OTQiIHk9Ii0xNi45NTQ1NDU5NzQ3MzE0NDUiIHg9Ii02Ny40ODg2Mzk4MzE1NDI5NyIgcnk9IjAiIHJ4PSIwIiBzdHlsZT0iIiBjbGFzcz0iYmFzaWMgbGFiZWwtY29udGFpbmVyIj48L3JlY3Q+PGcgdHJhbnNmb3JtPSJ0cmFuc2xhdGUoMCwgLTkuNDU0NTQ1OTc0NzMxNDQ1KSIgc3R5bGU9IiIgY2xhc3M9ImxhYmVsIj48cmVjdD48L3JlY3Q+PHRleHQgc3R5bGU9IiI+PHRzcGFuIGNsYXNzPSJyb3ciIHg9IjAiIGR5PSIxZW0iIHhtbDpzcGFjZT0icHJlc2VydmUiPnByb2R1Y3QgY3JlYXRpb248L3RzcGFuPjwvdGV4dD48L2c+PC9nPjxnIHRyYW5zZm9ybT0idHJhbnNsYXRlKDc0MzkuMTEwODc3OTkwNzIzLCAzNDMuNjgxODIxODIzMTIwMSkiIGRhdGEtaWQ9IkIyMiIgZGF0YS1ub2RlPSJ0cnVlIiBpZD0iZmxvd2NoYXJ0LUIyMi0yMDYiIGNsYXNzPSJub2RlIGRlZmF1bHQgZGVmYXVsdCBmbG93Y2hhcnQtbGFiZWwiPjxyZWN0IGhlaWdodD0iMzMuOTA5MDkxOTQ5NDYyODkiIHdpZHRoPSIxMzQuNzg0MDk1NzY0MTYwMTYiIHk9Ii0xNi45NTQ1NDU5NzQ3MzE0NDUiIHg9Ii02Ny4zOTIwNDc4ODIwODAwOCIgcnk9IjAiIHJ4PSIwIiBzdHlsZT0iIiBjbGFzcz0iYmFzaWMgbGFiZWwtY29udGFpbmVyIj48L3JlY3Q+PGcgdHJhbnNmb3JtPSJ0cmFuc2xhdGUoMCwgLTkuNDU0NTQ1OTc0NzMxNDQ1KSIgc3R5bGU9IiIgY2xhc3M9ImxhYmVsIj48cmVjdD48L3JlY3Q+PHRleHQgc3R5bGU9IiI+PHRzcGFuIGNsYXNzPSJyb3ciIHg9IjAiIGR5PSIxZW0iIHhtbDpzcGFjZT0icHJlc2VydmUiPnByb2R1Y3QgZGVsZXRpb248L3RzcGFuPjwvdGV4dD48L2c+PC9nPjxnIHRyYW5zZm9ybT0idHJhbnNsYXRlKDc2MTkuMjU4NjAyMTQyMzM0LCAzNDMuNjgxODIxODIzMTIwMSkiIGRhdGEtaWQ9IkIyMyIgZGF0YS1ub2RlPSJ0cnVlIiBpZD0iZmxvd2NoYXJ0LUIyMy0yMDgiIGNsYXNzPSJub2RlIGRlZmF1bHQgZGVmYXVsdCBmbG93Y2hhcnQtbGFiZWwiPjxyZWN0IGhlaWdodD0iMzMuOTA5MDkxOTQ5NDYyODkiIHdpZHRoPSIxMjUuNTExMzY3Nzk3ODUxNTYiIHk9Ii0xNi45NTQ1NDU5NzQ3MzE0NDUiIHg9Ii02Mi43NTU2ODM4OTg5MjU3OCIgcnk9IjAiIHJ4PSIwIiBzdHlsZT0iIiBjbGFzcz0iYmFzaWMgbGFiZWwtY29udGFpbmVyIj48L3JlY3Q+PGcgdHJhbnNmb3JtPSJ0cmFuc2xhdGUoMCwgLTkuNDU0NTQ1OTc0NzMxNDQ1KSIgc3R5bGU9IiIgY2xhc3M9ImxhYmVsIj48cmVjdD48L3JlY3Q+PHRleHQgc3R5bGU9IiI+PHRzcGFuIGNsYXNzPSJyb3ciIHg9IjAiIGR5PSIxZW0iIHhtbDpzcGFjZT0icHJlc2VydmUiPnByb2R1Y3QgdXBkYXRlPC90c3Bhbj48L3RleHQ+PC9nPjwvZz48ZyB0cmFuc2Zvcm09InRyYW5zbGF0ZSg3ODI2Ljc2NDI4MjIyNjU2MjUsIDM0My42ODE4MjE4MjMxMjAxKSIgZGF0YS1pZD0iQjExIiBkYXRhLW5vZGU9InRydWUiIGlkPSJmbG93Y2hhcnQtQjExLTE5OCIgY2xhc3M9Im5vZGUgZGVmYXVsdCBkZWZhdWx0IGZsb3djaGFydC1sYWJlbCI+PHJlY3QgaGVpZ2h0PSIzMy45MDkwOTE5NDk0NjI4OSIgd2lkdGg9IjEwOS41IiB5PSItMTYuOTU0NTQ1OTc0NzMxNDQ1IiB4PSItNTQuNzUiIHJ5PSIwIiByeD0iMCIgc3R5bGU9IiIgY2xhc3M9ImJhc2ljIGxhYmVsLWNvbnRhaW5lciI+PC9yZWN0PjxnIHRyYW5zZm9ybT0idHJhbnNsYXRlKDAsIC05LjQ1NDU0NTk3NDczMTQ0NSkiIHN0eWxlPSIiIGNsYXNzPSJsYWJlbCI+PHJlY3Q+PC9yZWN0Pjx0ZXh0IHN0eWxlPSIiPjx0c3BhbiBjbGFzcz0icm93IiB4PSIwIiBkeT0iMWVtIiB4bWw6c3BhY2U9InByZXNlcnZlIj51c2VyIGNyZWF0aW9uPC90c3Bhbj48L3RleHQ+PC9nPjwvZz48ZyB0cmFuc2Zvcm09InRyYW5zbGF0ZSg3OTg2LjE2NzY5MDI3NzEsIDM0My42ODE4MjE4MjMxMjAxKSIgZGF0YS1pZD0iQjEyIiBkYXRhLW5vZGU9InRydWUiIGlkPSJmbG93Y2hhcnQtQjEyLTIwMCIgY2xhc3M9Im5vZGUgZGVmYXVsdCBkZWZhdWx0IGZsb3djaGFydC1sYWJlbCI+PHJlY3QgaGVpZ2h0PSIzMy45MDkwOTE5NDk0NjI4OSIgd2lkdGg9IjEwOS4zMDY4MjM3MzA0Njg3NSIgeT0iLTE2Ljk1NDU0NTk3NDczMTQ0NSIgeD0iLTU0LjY1MzQxMTg2NTIzNDM3NSIgcnk9IjAiIHJ4PSIwIiBzdHlsZT0iIiBjbGFzcz0iYmFzaWMgbGFiZWwtY29udGFpbmVyIj48L3JlY3Q+PGcgdHJhbnNmb3JtPSJ0cmFuc2xhdGUoMCwgLTkuNDU0NTQ1OTc0NzMxNDQ1KSIgc3R5bGU9IiIgY2xhc3M9ImxhYmVsIj48cmVjdD48L3JlY3Q+PHRleHQgc3R5bGU9IiI+PHRzcGFuIGNsYXNzPSJyb3ciIHg9IjAiIGR5PSIxZW0iIHhtbDpzcGFjZT0icHJlc2VydmUiPnVzZXIgZGVsZXRpb248L3RzcGFuPjwvdGV4dD48L2c+PC9nPjxnIHRyYW5zZm9ybT0idHJhbnNsYXRlKDgxNDAuODM4MTQyMzk1MDE5NSwgMzQzLjY4MTgyMTgyMzEyMDEpIiBkYXRhLWlkPSJCMTMiIGRhdGEtbm9kZT0idHJ1ZSIgaWQ9ImZsb3djaGFydC1CMTMtMjAyIiBjbGFzcz0ibm9kZSBkZWZhdWx0IGRlZmF1bHQgZmxvd2NoYXJ0LWxhYmVsIj48cmVjdCBoZWlnaHQ9IjMzLjkwOTA5MTk0OTQ2Mjg5IiB3aWR0aD0iMTAwLjAzNDA5NTc2NDE2MDE2IiB5PSItMTYuOTU0NTQ1OTc0NzMxNDQ1IiB4PSItNTAuMDE3MDQ3ODgyMDgwMDgiIHJ5PSIwIiByeD0iMCIgc3R5bGU9IiIgY2xhc3M9ImJhc2ljIGxhYmVsLWNvbnRhaW5lciI+PC9yZWN0PjxnIHRyYW5zZm9ybT0idHJhbnNsYXRlKDAsIC05LjQ1NDU0NTk3NDczMTQ0NSkiIHN0eWxlPSIiIGNsYXNzPSJsYWJlbCI+PHJlY3Q+PC9yZWN0Pjx0ZXh0IHN0eWxlPSIiPjx0c3BhbiBjbGFzcz0icm93IiB4PSIwIiBkeT0iMWVtIiB4bWw6c3BhY2U9InByZXNlcnZlIj51c2VyIHVwZGF0ZTwvdHNwYW4+PC90ZXh0PjwvZz48L2c+PGcgdHJhbnNmb3JtPSJ0cmFuc2xhdGUoMjQ5NS4zOTU2Mzc1MTIyMDcsIDIwOS43NzI3Mjk4NzM2NTcyMykiIGRhdGEtaWQ9IkQxIiBkYXRhLW5vZGU9InRydWUiIGlkPSJmbG93Y2hhcnQtRDEtMTc0IiBjbGFzcz0ibm9kZSBkZWZhdWx0IGRlZmF1bHQgZmxvd2NoYXJ0LWxhYmVsIj48cmVjdCBoZWlnaHQ9IjMzLjkwOTA5MTk0OTQ2Mjg5IiB3aWR0aD0iMTExLjQ4Mjk1NTkzMjYxNzE5IiB5PSItMTYuOTU0NTQ1OTc0NzMxNDQ1IiB4PSItNTUuNzQxNDc3OTY2MzA4NTk0IiByeT0iMCIgcng9IjAiIHN0eWxlPSIiIGNsYXNzPSJiYXNpYyBsYWJlbC1jb250YWluZXIiPjwvcmVjdD48ZyB0cmFuc2Zvcm09InRyYW5zbGF0ZSgwLCAtOS40NTQ1NDU5NzQ3MzE0NDUpIiBzdHlsZT0iIiBjbGFzcz0ibGFiZWwiPjxyZWN0PjwvcmVjdD48dGV4dCBzdHlsZT0iIj48dHNwYW4gY2xhc3M9InJvdyIgeD0iMCIgZHk9IjFlbSIgeG1sOnNwYWNlPSJwcmVzZXJ2ZSI+c2VjdXJpdHkgdG9vbHM8L3RzcGFuPjwvdGV4dD48L2c+PC9nPjxnIHRyYW5zZm9ybT0idHJhbnNsYXRlKDE5NjIuODM4ODA2MTUyMzQzOCwgMjA5Ljc3MjcyOTg3MzY1NzIzKSIgZGF0YS1pZD0iRDIiIGRhdGEtbm9kZT0idHJ1ZSIgaWQ9ImZsb3djaGFydC1EMi0xNzYiIGNsYXNzPSJub2RlIGRlZmF1bHQgZGVmYXVsdCBmbG93Y2hhcnQtbGFiZWwiPjxyZWN0IGhlaWdodD0iMzMuOTA5MDkxOTQ5NDYyODkiIHdpZHRoPSIxMjkuMDg0NTE4NDMyNjE3MiIgeT0iLTE2Ljk1NDU0NTk3NDczMTQ0NSIgeD0iLTY0LjU0MjI1OTIxNjMwODYiIHJ5PSIwIiByeD0iMCIgc3R5bGU9IiIgY2xhc3M9ImJhc2ljIGxhYmVsLWNvbnRhaW5lciI+PC9yZWN0PjxnIHRyYW5zZm9ybT0idHJhbnNsYXRlKDAsIC05LjQ1NDU0NTk3NDczMTQ0NSkiIHN0eWxlPSIiIGNsYXNzPSJsYWJlbCI+PHJlY3Q+PC9yZWN0Pjx0ZXh0IHN0eWxlPSIiPjx0c3BhbiBjbGFzcz0icm93IiB4PSIwIiBkeT0iMWVtIiB4bWw6c3BhY2U9InByZXNlcnZlIj51dGlsaXR5IGZ1bmN0aW9uczwvdHNwYW4+PC90ZXh0PjwvZz48L2c+PGcgdHJhbnNmb3JtPSJ0cmFuc2xhdGUoMTM5Ny4xMjg1NTkxMTI1NDg4LCAyMDkuNzcyNzI5ODczNjU3MjMpIiBkYXRhLWlkPSJEMyIgZGF0YS1ub2RlPSJ0cnVlIiBpZD0iZmxvd2NoYXJ0LUQzLTE3OCIgY2xhc3M9Im5vZGUgZGVmYXVsdCBkZWZhdWx0IGZsb3djaGFydC1sYWJlbCI+PHJlY3QgaGVpZ2h0PSIzMy45MDkwOTE5NDk0NjI4OSIgd2lkdGg9IjExNi42NTkwOTU3NjQxNjAxNiIgeT0iLTE2Ljk1NDU0NTk3NDczMTQ0NSIgeD0iLTU4LjMyOTU0Nzg4MjA4MDA4IiByeT0iMCIgcng9IjAiIHN0eWxlPSIiIGNsYXNzPSJiYXNpYyBsYWJlbC1jb250YWluZXIiPjwvcmVjdD48ZyB0cmFuc2Zvcm09InRyYW5zbGF0ZSgwLCAtOS40NTQ1NDU5NzQ3MzE0NDUpIiBzdHlsZT0iIiBjbGFzcz0ibGFiZWwiPjxyZWN0PjwvcmVjdD48dGV4dCBzdHlsZT0iIj48dHNwYW4gY2xhc3M9InJvdyIgeD0iMCIgZHk9IjFlbSIgeG1sOnNwYWNlPSJwcmVzZXJ2ZSI+ZXJyb3IgaGFuZGxpbmc8L3RzcGFuPjwvdGV4dD48L2c+PC9nPjxnIHRyYW5zZm9ybT0idHJhbnNsYXRlKDg1MC44NjcxOTUxMjkzOTQ1LCAyMDkuNzcyNzI5ODczNjU3MjMpIiBkYXRhLWlkPSJENCIgZGF0YS1ub2RlPSJ0cnVlIiBpZD0iZmxvd2NoYXJ0LUQ0LTE4MCIgY2xhc3M9Im5vZGUgZGVmYXVsdCBkZWZhdWx0IGZsb3djaGFydC1sYWJlbCI+PHJlY3QgaGVpZ2h0PSIzMy45MDkwOTE5NDk0NjI4OSIgd2lkdGg9IjExOC4wNjg4OTM0MzI2MTcxOSIgeT0iLTE2Ljk1NDU0NTk3NDczMTQ0NSIgeD0iLTU5LjAzNDQ0NjcxNjMwODU5NCIgcnk9IjAiIHJ4PSIwIiBzdHlsZT0iIiBjbGFzcz0iYmFzaWMgbGFiZWwtY29udGFpbmVyIj48L3JlY3Q+PGcgdHJhbnNmb3JtPSJ0cmFuc2xhdGUoMCwgLTkuNDU0NTQ1OTc0NzMxNDQ1KSIgc3R5bGU9IiIgY2xhc3M9ImxhYmVsIj48cmVjdD48L3JlY3Q+PHRleHQgc3R5bGU9IiI+PHRzcGFuIGNsYXNzPSJyb3ciIHg9IjAiIGR5PSIxZW0iIHhtbDpzcGFjZT0icHJlc2VydmUiPmFuYWx5dGljcyB0b29sczwvdHNwYW4+PC90ZXh0PjwvZz48L2c+PGcgdHJhbnNmb3JtPSJ0cmFuc2xhdGUoMjg1LjQxNTEzNDQyOTkzMTY0LCAyMDkuNzcyNzI5ODczNjU3MjMpIiBkYXRhLWlkPSJENSIgZGF0YS1ub2RlPSJ0cnVlIiBpZD0iZmxvd2NoYXJ0LUQ1LTE4MiIgY2xhc3M9Im5vZGUgZGVmYXVsdCBkZWZhdWx0IGZsb3djaGFydC1sYWJlbCI+PHJlY3QgaGVpZ2h0PSIzMy45MDkwOTE5NDk0NjI4OSIgd2lkdGg9IjE1NC4xNDcwMTg0MzI2MTcyIiB5PSItMTYuOTU0NTQ1OTc0NzMxNDQ1IiB4PSItNzcuMDczNTA5MjE2MzA4NiIgcnk9IjAiIHJ4PSIwIiBzdHlsZT0iIiBjbGFzcz0iYmFzaWMgbGFiZWwtY29udGFpbmVyIj48L3JlY3Q+PGcgdHJhbnNmb3JtPSJ0cmFuc2xhdGUoMCwgLTkuNDU0NTQ1OTc0NzMxNDQ1KSIgc3R5bGU9IiIgY2xhc3M9ImxhYmVsIj48cmVjdD48L3JlY3Q+PHRleHQgc3R5bGU9IiI+PHRzcGFuIGNsYXNzPSJyb3ciIHg9IjAiIGR5PSIxZW0iIHhtbDpzcGFjZT0icHJlc2VydmUiPmFkdmlzb3J5IGFsZ29yaXRobXM8L3RzcGFuPjwvdGV4dD48L2c+PC9nPjxnIHRyYW5zZm9ybT0idHJhbnNsYXRlKDU2NzYuMDA2NDYyMDk3MTY4LCAyMDkuNzcyNzI5ODczNjU3MjMpIiBkYXRhLWlkPSJDMSIgZGF0YS1ub2RlPSJ0cnVlIiBpZD0iZmxvd2NoYXJ0LUMxLTE2NCIgY2xhc3M9Im5vZGUgZGVmYXVsdCBkZWZhdWx0IGZsb3djaGFydC1sYWJlbCI+PHJlY3QgaGVpZ2h0PSIzMy45MDkwOTE5NDk0NjI4OSIgd2lkdGg9IjEyMy41NjgxODM4OTg5MjU3OCIgeT0iLTE2Ljk1NDU0NTk3NDczMTQ0NSIgeD0iLTYxLjc4NDA5MTk0OTQ2Mjg5IiByeT0iMCIgcng9IjAiIHN0eWxlPSIiIGNsYXNzPSJiYXNpYyBsYWJlbC1jb250YWluZXIiPjwvcmVjdD48ZyB0cmFuc2Zvcm09InRyYW5zbGF0ZSgwLCAtOS40NTQ1NDU5NzQ3MzE0NDUpIiBzdHlsZT0iIiBjbGFzcz0ibGFiZWwiPjxyZWN0PjwvcmVjdD48dGV4dCBzdHlsZT0iIj48dHNwYW4gY2xhc3M9InJvdyIgeD0iMCIgZHk9IjFlbSIgeG1sOnNwYWNlPSJwcmVzZXJ2ZSI+dXNlciBkYXNoYm9hcmQ8L3RzcGFuPjwvdGV4dD48L2c+PC9nPjxnIHRyYW5zZm9ybT0idHJhbnNsYXRlKDUwNDMuNzc5ODk5NTk3MTY4LCAyMDkuNzcyNzI5ODczNjU3MjMpIiBkYXRhLWlkPSJDMiIgZGF0YS1ub2RlPSJ0cnVlIiBpZD0iZmxvd2NoYXJ0LUMyLTE2NiIgY2xhc3M9Im5vZGUgZGVmYXVsdCBkZWZhdWx0IGZsb3djaGFydC1sYWJlbCI+PHJlY3QgaGVpZ2h0PSIzMy45MDkwOTE5NDk0NjI4OSIgd2lkdGg9IjIzMS4zMzQ1MTg0MzI2MTcyIiB5PSItMTYuOTU0NTQ1OTc0NzMxNDQ1IiB4PSItMTE1LjY2NzI1OTIxNjMwODYiIHJ5PSIwIiByeD0iMCIgc3R5bGU9IiIgY2xhc3M9ImJhc2ljIGxhYmVsLWNvbnRhaW5lciI+PC9yZWN0PjxnIHRyYW5zZm9ybT0idHJhbnNsYXRlKDAsIC05LjQ1NDU0NTk3NDczMTQ0NSkiIHN0eWxlPSIiIGNsYXNzPSJsYWJlbCI+PHJlY3Q+PC9yZWN0Pjx0ZXh0IHN0eWxlPSIiPjx0c3BhbiBjbGFzcz0icm93IiB4PSIwIiBkeT0iMWVtIiB4bWw6c3BhY2U9InByZXNlcnZlIj5wZXJzb25hbCBmaW5hbmNlIG1hbmFnZW1lbnQ8L3RzcGFuPjwvdGV4dD48L2c+PC9nPjxnIHRyYW5zZm9ybT0idHJhbnNsYXRlKDQ0NzQuNjA5NDI4NDA1NzYyLCAyMDkuNzcyNzI5ODczNjU3MjMpIiBkYXRhLWlkPSJDMyIgZGF0YS1ub2RlPSJ0cnVlIiBpZD0iZmxvd2NoYXJ0LUMzLTE2OCIgY2xhc3M9Im5vZGUgZGVmYXVsdCBkZWZhdWx0IGZsb3djaGFydC1sYWJlbCI+PHJlY3QgaGVpZ2h0PSIzMy45MDkwOTE5NDk0NjI4OSIgd2lkdGg9IjE5Mi40OTA3Njg0MzI2MTcyIiB5PSItMTYuOTU0NTQ1OTc0NzMxNDQ1IiB4PSItOTYuMjQ1Mzg0MjE2MzA4NiIgcnk9IjAiIHJ4PSIwIiBzdHlsZT0iIiBjbGFzcz0iYmFzaWMgbGFiZWwtY29udGFpbmVyIj48L3JlY3Q+PGcgdHJhbnNmb3JtPSJ0cmFuc2xhdGUoMCwgLTkuNDU0NTQ1OTc0NzMxNDQ1KSIgc3R5bGU9IiIgY2xhc3M9ImxhYmVsIj48cmVjdD48L3JlY3Q+PHRleHQgc3R5bGU9IiI+PHRzcGFuIGNsYXNzPSJyb3ciIHg9IjAiIGR5PSIxZW0iIHhtbDpzcGFjZT0icHJlc2VydmUiPmludmVzdG1lbnQgbWFuYWdlbWVudDwvdHNwYW4+PC90ZXh0PjwvZz48L2c+PGcgdHJhbnNmb3JtPSJ0cmFuc2xhdGUoMzgwNi4zNjg2NTIzNDM3NSwgMjA5Ljc3MjcyOTg3MzY1NzIzKSIgZGF0YS1pZD0iQzQiIGRhdGEtbm9kZT0idHJ1ZSIgaWQ9ImZsb3djaGFydC1DNC0xNzAiIGNsYXNzPSJub2RlIGRlZmF1bHQgZGVmYXVsdCBmbG93Y2hhcnQtbGFiZWwiPjxyZWN0IGhlaWdodD0iMzMuOTA5MDkxOTQ5NDYyODkiIHdpZHRoPSIxNjEuNDMxODIzNzMwNDY4NzUiIHk9Ii0xNi45NTQ1NDU5NzQ3MzE0NDUiIHg9Ii04MC43MTU5MTE4NjUyMzQzOCIgcnk9IjAiIHJ4PSIwIiBzdHlsZT0iIiBjbGFzcz0iYmFzaWMgbGFiZWwtY29udGFpbmVyIj48L3JlY3Q+PGcgdHJhbnNmb3JtPSJ0cmFuc2xhdGUoMCwgLTkuNDU0NTQ1OTc0NzMxNDQ1KSIgc3R5bGU9IiIgY2xhc3M9ImxhYmVsIj48cmVjdD48L3JlY3Q+PHRleHQgc3R5bGU9IiI+PHRzcGFuIGNsYXNzPSJyb3ciIHg9IjAiIGR5PSIxZW0iIHhtbDpzcGFjZT0icHJlc2VydmUiPnRyYW5zYWN0aW9uIGhhbmRsaW5nPC90c3Bhbj48L3RleHQ+PC9nPjwvZz48ZyB0cmFuc2Zvcm09InRyYW5zbGF0ZSgzMTIyLjMyMzE5NjQxMTEzMywgMjA5Ljc3MjcyOTg3MzY1NzIzKSIgZGF0YS1pZD0iQzUiIGRhdGEtbm9kZT0idHJ1ZSIgaWQ9ImZsb3djaGFydC1DNS0xNzIiIGNsYXNzPSJub2RlIGRlZmF1bHQgZGVmYXVsdCBmbG93Y2hhcnQtbGFiZWwiPjxyZWN0IGhlaWdodD0iMzMuOTA5MDkxOTQ5NDYyODkiIHdpZHRoPSIxMTMuMDU2ODIzNzMwNDY4NzUiIHk9Ii0xNi45NTQ1NDU5NzQ3MzE0NDUiIHg9Ii01Ni41Mjg0MTE4NjUyMzQzNzUiIHJ5PSIwIiByeD0iMCIgc3R5bGU9IiIgY2xhc3M9ImJhc2ljIGxhYmVsLWNvbnRhaW5lciI+PC9yZWN0PjxnIHRyYW5zZm9ybT0idHJhbnNsYXRlKDAsIC05LjQ1NDU0NTk3NDczMTQ0NSkiIHN0eWxlPSIiIGNsYXNzPSJsYWJlbCI+PHJlY3Q+PC9yZWN0Pjx0ZXh0IHN0eWxlPSIiPjx0c3BhbiBjbGFzcz0icm93IiB4PSIwIiBkeT0iMWVtIiB4bWw6c3BhY2U9InByZXNlcnZlIj5jcmVkaXQgc2NvcmluZzwvdHNwYW4+PC90ZXh0PjwvZz48L2c+PGcgdHJhbnNmb3JtPSJ0cmFuc2xhdGUoNzk4Ni4xNjc2OTAyNzcxLCAyMDkuNzcyNzI5ODczNjU3MjMpIiBkYXRhLWlkPSJCMSIgZGF0YS1ub2RlPSJ0cnVlIiBpZD0iZmxvd2NoYXJ0LUIxLTE1NiIgY2xhc3M9Im5vZGUgZGVmYXVsdCBkZWZhdWx0IGZsb3djaGFydC1sYWJlbCI+PHJlY3QgaGVpZ2h0PSIzMy45MDkwOTE5NDk0NjI4OSIgd2lkdGg9IjE0Mi44NzM1ODA5MzI2MTcyIiB5PSItMTYuOTU0NTQ1OTc0NzMxNDQ1IiB4PSItNzEuNDM2NzkwNDY2MzA4NiIgcnk9IjAiIHJ4PSIwIiBzdHlsZT0iIiBjbGFzcz0iYmFzaWMgbGFiZWwtY29udGFpbmVyIj48L3JlY3Q+PGcgdHJhbnNmb3JtPSJ0cmFuc2xhdGUoMCwgLTkuNDU0NTQ1OTc0NzMxNDQ1KSIgc3R5bGU9IiIgY2xhc3M9ImxhYmVsIj48cmVjdD48L3JlY3Q+PHRleHQgc3R5bGU9IiI+PHRzcGFuIGNsYXNzPSJyb3ciIHg9IjAiIGR5PSIxZW0iIHhtbDpzcGFjZT0icHJlc2VydmUiPnVzZXIgbWFuYWdlbWVudDwvdHNwYW4+PC90ZXh0PjwvZz48L2c+PGcgdHJhbnNmb3JtPSJ0cmFuc2xhdGUoNzQzOS4xMTA4Nzc5OTA3MjMsIDIwOS43NzI3Mjk4NzM2NTcyMykiIGRhdGEtaWQ9IkIyIiBkYXRhLW5vZGU9InRydWUiIGlkPSJmbG93Y2hhcnQtQjItMTU4IiBjbGFzcz0ibm9kZSBkZWZhdWx0IGRlZmF1bHQgZmxvd2NoYXJ0LWxhYmVsIj48cmVjdCBoZWlnaHQ9IjMzLjkwOTA5MTk0OTQ2Mjg5IiB3aWR0aD0iMTY4LjM1MDE0MzQzMjYxNzIiIHk9Ii0xNi45NTQ1NDU5NzQ3MzE0NDUiIHg9Ii04NC4xNzUwNzE3MTYzMDg2IiByeT0iMCIgcng9IjAiIHN0eWxlPSIiIGNsYXNzPSJiYXNpYyBsYWJlbC1jb250YWluZXIiPjwvcmVjdD48ZyB0cmFuc2Zvcm09InRyYW5zbGF0ZSgwLCAtOS40NTQ1NDU5NzQ3MzE0NDUpIiBzdHlsZT0iIiBjbGFzcz0ibGFiZWwiPjxyZWN0PjwvcmVjdD48dGV4dCBzdHlsZT0iIj48dHNwYW4gY2xhc3M9InJvdyIgeD0iMCIgZHk9IjFlbSIgeG1sOnNwYWNlPSJwcmVzZXJ2ZSI+cHJvZHVjdCBtYW5hZ2VtZW50PC90c3Bhbj48L3RleHQ+PC9nPjwvZz48ZyB0cmFuc2Zvcm09InRyYW5zbGF0ZSg2ODk2LjY0NDk1ODQ5NjA5NCwgMjA5Ljc3MjcyOTg3MzY1NzIzKSIgZGF0YS1pZD0iQjMiIGRhdGEtbm9kZT0idHJ1ZSIgaWQ9ImZsb3djaGFydC1CMy0xNjAiIGNsYXNzPSJub2RlIGRlZmF1bHQgZGVmYXVsdCBmbG93Y2hhcnQtbGFiZWwiPjxyZWN0IGhlaWdodD0iMzMuOTA5MDkxOTQ5NDYyODkiIHdpZHRoPSIxMjYuMDA3ODEyNSIgeT0iLTE2Ljk1NDU0NTk3NDczMTQ0NSIgeD0iLTYzLjAwMzkwNjI1IiByeT0iMCIgcng9IjAiIHN0eWxlPSIiIGNsYXNzPSJiYXNpYyBsYWJlbC1jb250YWluZXIiPjwvcmVjdD48ZyB0cmFuc2Zvcm09InRyYW5zbGF0ZSgwLCAtOS40NTQ1NDU5NzQ3MzE0NDUpIiBzdHlsZT0iIiBjbGFzcz0ibGFiZWwiPjxyZWN0PjwvcmVjdD48dGV4dCBzdHlsZT0iIj48dHNwYW4gY2xhc3M9InJvdyIgeD0iMCIgZHk9IjFlbSIgeG1sOnNwYWNlPSJwcmVzZXJ2ZSI+c3lzdGVtIHNlY3VyaXR5PC90c3Bhbj48L3RleHQ+PC9nPjwvZz48ZyB0cmFuc2Zvcm09InRyYW5zbGF0ZSg2MjY1LjIwOTU4NzA5NzE2OCwgMjA5Ljc3MjcyOTg3MzY1NzIzKSIgZGF0YS1pZD0iQjQiIGRhdGEtbm9kZT0idHJ1ZSIgaWQ9ImZsb3djaGFydC1CNC0xNjIiIGNsYXNzPSJub2RlIGRlZmF1bHQgZGVmYXVsdCBmbG93Y2hhcnQtbGFiZWwiPjxyZWN0IGhlaWdodD0iMzMuOTA5MDkxOTQ5NDYyODkiIHdpZHRoPSIxMzcuOTYxNjU0NjYzMDg1OTQiIHk9Ii0xNi45NTQ1NDU5NzQ3MzE0NDUiIHg9Ii02OC45ODA4MjczMzE1NDI5NyIgcnk9IjAiIHJ4PSIwIiBzdHlsZT0iIiBjbGFzcz0iYmFzaWMgbGFiZWwtY29udGFpbmVyIj48L3JlY3Q+PGcgdHJhbnNmb3JtPSJ0cmFuc2xhdGUoMCwgLTkuNDU0NTQ1OTc0NzMxNDQ1KSIgc3R5bGU9IiIgY2xhc3M9ImxhYmVsIj48cmVjdD48L3JlY3Q+PHRleHQgc3R5bGU9IiI+PHRzcGFuIGNsYXNzPSJyb3ciIHg9IjAiIGR5PSIxZW0iIHhtbDpzcGFjZT0icHJlc2VydmUiPnN1cHBvcnQgaGVscGRlc2s8L3RzcGFuPjwvdGV4dD48L2c+PC9nPjxnIHRyYW5zZm9ybT0idHJhbnNsYXRlKDQ0NzQuNjA5NDI4NDA1NzYyLCAxNi45NTQ1NDU5NzQ3MzE0NDUpIiBkYXRhLWlkPSJBIiBkYXRhLW5vZGU9InRydWUiIGlkPSJmbG93Y2hhcnQtQS0xNDkiIGNsYXNzPSJub2RlIGRlZmF1bHQgZGVmYXVsdCBmbG93Y2hhcnQtbGFiZWwiPjxyZWN0IGhlaWdodD0iMzMuOTA5MDkxOTQ5NDYyODkiIHdpZHRoPSI5Ni4yODQwOTU3NjQxNjAxNiIgeT0iLTE2Ljk1NDU0NTk3NDczMTQ0NSIgeD0iLTQ4LjE0MjA0Nzg4MjA4MDA4IiByeT0iMCIgcng9IjAiIHN0eWxlPSIiIGNsYXNzPSJiYXNpYyBsYWJlbC1jb250YWluZXIiPjwvcmVjdD48ZyB0cmFuc2Zvcm09InRyYW5zbGF0ZSgwLCAtOS40NTQ1NDU5NzQ3MzE0NDUpIiBzdHlsZT0iIiBjbGFzcz0ibGFiZWwiPjxyZWN0PjwvcmVjdD48dGV4dCBzdHlsZT0iIj48dHNwYW4gY2xhc3M9InJvdyIgeD0iMCIgZHk9IjFlbSIgeG1sOnNwYWNlPSJwcmVzZXJ2ZSI+Y29tLmZpbmh1YjwvdHNwYW4+PC90ZXh0PjwvZz48L2c+PGcgdHJhbnNmb3JtPSJ0cmFuc2xhdGUoNzE2Ny44Nzc5MTgyNDM0MDgsIDEwMC44NjM2Mzc5MjQxOTQzNCkiIGRhdGEtaWQ9IkIiIGRhdGEtbm9kZT0idHJ1ZSIgaWQ9ImZsb3djaGFydC1CLTE1MCIgY2xhc3M9Im5vZGUgZGVmYXVsdCBkZWZhdWx0IGZsb3djaGFydC1sYWJlbCI+PHJlY3QgaGVpZ2h0PSIzMy45MDkwOTE5NDk0NjI4OSIgd2lkdGg9IjU4LjkwOTA5MTk0OTQ2Mjg5IiB5PSItMTYuOTU0NTQ1OTc0NzMxNDQ1IiB4PSItMjkuNDU0NTQ1OTc0NzMxNDQ1IiByeT0iMCIgcng9IjAiIHN0eWxlPSIiIGNsYXNzPSJiYXNpYyBsYWJlbC1jb250YWluZXIiPjwvcmVjdD48ZyB0cmFuc2Zvcm09InRyYW5zbGF0ZSgwLCAtOS40NTQ1NDU5NzQ3MzE0NDUpIiBzdHlsZT0iIiBjbGFzcz0ibGFiZWwiPjxyZWN0PjwvcmVjdD48dGV4dCBzdHlsZT0iIj48dHNwYW4gY2xhc3M9InJvdyIgeD0iMCIgZHk9IjFlbSIgeG1sOnNwYWNlPSJwcmVzZXJ2ZSI+YWRtaW48L3RzcGFuPjwvdGV4dD48L2c+PC9nPjxnIHRyYW5zZm9ybT0idHJhbnNsYXRlKDQ0NzQuNjA5NDI4NDA1NzYyLCAxMDAuODYzNjM3OTI0MTk0MzQpIiBkYXRhLWlkPSJDIiBkYXRhLW5vZGU9InRydWUiIGlkPSJmbG93Y2hhcnQtQy0xNTIiIGNsYXNzPSJub2RlIGRlZmF1bHQgZGVmYXVsdCBmbG93Y2hhcnQtbGFiZWwiPjxyZWN0IGhlaWdodD0iMzMuOTA5MDkxOTQ5NDYyODkiIHdpZHRoPSI0NS40OTA3Njg0MzI2MTcxOSIgeT0iLTE2Ljk1NDU0NTk3NDczMTQ0NSIgeD0iLTIyLjc0NTM4NDIxNjMwODU5NCIgcnk9IjAiIHJ4PSIwIiBzdHlsZT0iIiBjbGFzcz0iYmFzaWMgbGFiZWwtY29udGFpbmVyIj48L3JlY3Q+PGcgdHJhbnNmb3JtPSJ0cmFuc2xhdGUoMCwgLTkuNDU0NTQ1OTc0NzMxNDQ1KSIgc3R5bGU9IiIgY2xhc3M9ImxhYmVsIj48cmVjdD48L3JlY3Q+PHRleHQgc3R5bGU9IiI+PHRzcGFuIGNsYXNzPSJyb3ciIHg9IjAiIGR5PSIxZW0iIHhtbDpzcGFjZT0icHJlc2VydmUiPnVzZXI8L3RzcGFuPjwvdGV4dD48L2c+PC9nPjxnIHRyYW5zZm9ybT0idHJhbnNsYXRlKDEzOTcuMTI4NTU5MTEyNTQ4OCwgMTAwLjg2MzYzNzkyNDE5NDM0KSIgZGF0YS1pZD0iRCIgZGF0YS1ub2RlPSJ0cnVlIiBpZD0iZmxvd2NoYXJ0LUQtMTU0IiBjbGFzcz0ibm9kZSBkZWZhdWx0IGRlZmF1bHQgZmxvd2NoYXJ0LWxhYmVsIj48cmVjdCBoZWlnaHQ9IjMzLjkwOTA5MTk0OTQ2Mjg5IiB3aWR0aD0iNjIuMDM5MDYyNSIgeT0iLTE2Ljk1NDU0NTk3NDczMTQ0NSIgeD0iLTMxLjAxOTUzMTI1IiByeT0iMCIgcng9IjAiIHN0eWxlPSIiIGNsYXNzPSJiYXNpYyBsYWJlbC1jb250YWluZXIiPjwvcmVjdD48ZyB0cmFuc2Zvcm09InRyYW5zbGF0ZSgwLCAtOS40NTQ1NDU5NzQ3MzE0NDUpIiBzdHlsZT0iIiBjbGFzcz0ibGFiZWwiPjxyZWN0PjwvcmVjdD48dGV4dCBzdHlsZT0iIj48dHNwYW4gY2xhc3M9InJvdyIgeD0iMCIgZHk9IjFlbSIgeG1sOnNwYWNlPSJwcmVzZXJ2ZSI+bGlicmFyeTwvdHNwYW4+PC90ZXh0PjwvZz48L2c+PC9nPjwvZz48L2c+PC9zdmc+;" vertex="1" parent="1">
            <mxGeometry x="4.139999999999986" y="500" width="8241.85546875" height="401.6363525390625" as="geometry" />
          </mxCell>
        </UserObject>
      </root>
    </mxGraphModel>
  </diagram>
</mxfile>
